<?xml version="1.0" standalone="no"?>
<!DOCTYPE svg PUBLIC "-//W3C//DTD SVG 1.1//EN" "http://www.w3.org/Graphics/SVG/1.1/DTD/svg11.dtd" >
<svg xmlns="http://www.w3.org/2000/svg" xmlns:xlink="http://www.w3.org/1999/xlink" version="1.1">
<metadata>
Created by FontForge 20170731 at Fri May  6 13:43:17 2022
 By Aleksey,,,
Copyright 2015 The Cormorant Project Authors (github.com/CatharsisFonts/Cormorant)
</metadata>
<defs>
<font id="CormorantGaramond-Light" horiz-adv-x="477" >
  <font-face 
    font-family="Cormorant Garamond Light"
    font-weight="300"
    font-stretch="normal"
    units-per-em="1000"
    panose-1="0 0 0 0 0 0 0 0 0 0"
    ascent="800"
    descent="-200"
    x-height="386"
    cap-height="625"
    bbox="-102.111 -282.167 1451.8 922.533"
    underline-thickness="50"
    underline-position="-175"
    unicode-range="U+0020-FFFB"
  />
<missing-glyph horiz-adv-x="501" 
d="M94 725h317v-1000h-317v1000zM233 626v-38h-66v-32h166v32h-66v38h66v32h-165v-32h65zM333 426v34h-66v69h-100v-103h166zM200 495h33v-35h-33v35zM233 365v-36h-66v-34h100v70h66v33h-166v-33h66zM167 273v-34h166v99h-32v-65h-134zM267 160v24h34v-48h-101v80h-33v-113
h166v113h-100v-56h34zM333 -70v113h-166v-113h166zM200 11h101v-48h-101v48zM237 -126l-70 -47v-33h166v33h-101l69 47h32v34h-166v-34h70z" />
    <glyph glyph-name="T_T.liga" unicode="TT" horiz-adv-x="1146" 
d="M1106 654q5 0 5 -4q-3 -26 -6 -84.5t-3 -94.5q0 -2 -6 -2t-6 2q0 53 -11 82.5t-37.5 42.5t-73.5 13q-52 0 -72.5 -3.5t-28 -17t-7.5 -46.5v-461q0 -31 7 -45t27.5 -19t65.5 -5q3 0 3 -6t-3 -6q-33 0 -52 1l-76 1l-74 -1q-20 -1 -54 -1q-2 0 -2 6t2 6q44 0 65 5t29 19.5
t8 44.5v463q0 32 -7.5 45t-26.5 16.5t-66 3.5q-65 0 -86.5 -6.5t-27.5 -31t-8 -100.5q0 -2 -6 -2t-6 2l1 45q0 48 -9 66t-33 22.5t-89 4.5q-44 0 -63.5 -4.5t-26.5 -18t-7 -44.5v-461q0 -31 6.5 -45t24.5 -19t58 -5q2 0 2 -6t-2 -6q-30 0 -47 1l-70 1l-73 -1q-20 -1 -55 -1
q-2 0 -2 6t2 6q45 0 66 5t28.5 19.5t7.5 44.5v463q0 33 -8 46t-28.5 16t-74.5 3q-63 0 -92 -30t-39 -108q0 -2 -6 -2t-6 2q4 27 9 86.5t5 89.5q0 5 6 5t6 -5q0 -22 53 -22q86 -3 201 -3q56 0 118 2l63 1q42 0 55.5 1t17 6t4.5 19q0 4 6 4t6 -4q-1 -14 1.5 -18.5t12 -5.5
t41.5 -2q81 -3 190 -3q59 0 125 2l68 1q35 0 52 5t22 20q2 4 7 4z" />
    <glyph glyph-name="T_h.liga" unicode="Th" horiz-adv-x="1023" 
d="M187 6q0 6 2 6q45 0 66 5t28.5 19.5t7.5 44.5v463q0 33 -8 46t-28.5 16t-74.5 3q-63 0 -92 -30t-39 -108q0 -2 -6 -2t-6 2q4 27 9 86.5t5 89.5q0 5 6 5t6 -5q0 -22 53 -22q57 -2 201 -2q141 0 193 2q126 3 144 100q1 3 6 2t5 -3v-643q0 -30 5 -44.5t18.5 -19.5t42.5 -5
q3 0 3 -6t-3 -6q-23 0 -36 1l-53 1l-52 -1q-14 -1 -37 -1q-2 0 -2 6t2 6q29 0 42.5 5t18.5 19.5t5 44.5v517q0 11 -12 11h-153q-52 0 -73 -3.5t-28.5 -17t-7.5 -46.5v-461q0 -31 7 -45t28 -19t66 -5q2 0 2 -6t-2 -6q-33 0 -52 1l-77 1l-73 -1q-20 -1 -55 -1q-2 0 -2 6z
M820 6q0 6 2 6q29 0 42.5 5t18.5 19.5t5 44.5v163q0 61 -23.5 90t-71.5 29q-38 0 -77.5 -25.5t-68.5 -68.5l-5 12q46 61 89 88t89 27q55 0 85 -30.5t30 -90.5v-194q0 -30 4.5 -44.5t18 -19.5t42.5 -5q3 0 3 -6t-3 -6q-23 0 -36 1l-53 1l-52 -1q-14 -1 -37 -1q-2 0 -2 6z" />
    <glyph glyph-name="f_b.liga" unicode="fb" horiz-adv-x="819" 
d="M30 6q0 6 3 6q31 0 45.5 5.5t20 19.5t5.5 44v225q0 27 -4.5 37.5t-19 14t-51.5 3.5q-3 0 -3 6t3 6q43 0 58 9.5t16 35.5q5 148 48 223q26 43 64.5 64t93.5 21q43 0 79.5 -12t57.5 -33l-32 -56q-49 86 -131 86q-38 0 -64 -18t-41 -58q-26 -62 -26 -196v-358q0 -31 7 -45
t27.5 -19t66.5 -5q2 0 2 -6t-2 -6l-64 1q-20 1 -62 1l-55 -1q-14 -1 -39 -1q-3 0 -3 6zM211.5 350q-34.5 3 -79.5 3v21q61 0 153 10q3 0 5 -6.5t2 -16.5q0 -8 -3 -16t-7 -7q-36 9 -70.5 12zM351 -4q-4 0 -4.5 3.5t2.5 6.5q34 24 46.5 42t12.5 55l1 560q16 5 27 23.5t11 40.5
q0 3 5.5 3t5.5 -3l-1 -683l-104 -48h-2zM412 36l36 49q34 -42 69.5 -60.5t75.5 -18.5q62 0 97 45.5t35 130.5q0 90 -37 139.5t-96 49.5q-40 0 -75.5 -25t-73.5 -68l-8 7q45 52 87.5 83t99.5 31q43 0 79 -21t58 -62.5t22 -101.5q0 -72 -31.5 -123.5t-82.5 -77.5t-107 -26
q-83 0 -148 49z" />
    <glyph glyph-name="f_f.liga" unicode="ff" horiz-adv-x="599" 
d="M30 6q0 6 3 6q31 0 45.5 5.5t20 19.5t5.5 44v225q0 27 -4.5 37.5t-19 14t-51.5 3.5q-3 0 -3 6t3 6q43 0 58 9.5t16 35.5q6 132 67 202.5t165 70.5q43 0 79.5 -10t62.5 -26l-27 -62q-28 38 -66.5 60t-82.5 22q-68 0 -108.5 -61t-40.5 -175v-358q0 -31 7 -45t27.5 -19
t66.5 -5q2 0 2 -6t-2 -6l-64 1q-20 1 -62 1l-55 -1q-14 -1 -39 -1q-3 0 -3 6zM393 341q-4 8 -18 10t-65 3q-36 2 -166 2v18q134 0 178 1t59 9.5t17 33.5l23 -47l-22 -65q-2 27 -6 35zM324 6q0 6 3 6q31 0 45.5 5.5t20 19.5t5.5 44v225q0 27 -4.5 37.5t-19 14t-51.5 3.5
q-3 0 -3 6t3 6q43 0 58 9.5t16 35.5q5 162 58.5 235t157.5 73q50 0 83 -15.5t33 -35.5q0 -13 -9 -20.5t-22 -7.5q-10 0 -18 4.5t-18 17.5q-17 21 -36.5 31t-46.5 10q-61 0 -97 -67.5t-36 -203.5v-358q0 -31 7 -45t27.5 -19t66.5 -5q2 0 2 -6t-2 -6l-64 1q-20 1 -62 1l-55 -1
q-14 -1 -39 -1q-3 0 -3 6zM505.5 350q-34.5 3 -79.5 3v21q61 0 153 10q3 0 5 -6.5t2 -16.5q0 -8 -3 -16t-7 -7q-36 9 -70.5 12z" />
    <glyph glyph-name="f_f_b.liga" unicode="ffb" horiz-adv-x="1112" 
d="M30 6q0 6 3 6q31 0 45.5 5.5t20 19.5t5.5 44v225q0 27 -4.5 37.5t-19 14t-51.5 3.5q-3 0 -3 6t3 6q43 0 58 9.5t16 35.5q6 132 67 202.5t165 70.5q43 0 79.5 -10t62.5 -26l-27 -62q-28 38 -66.5 60t-82.5 22q-68 0 -108.5 -61t-40.5 -175v-358q0 -31 7 -45t27.5 -19
t66.5 -5q2 0 2 -6t-2 -6l-64 1q-20 1 -62 1l-55 -1q-14 -1 -39 -1q-3 0 -3 6zM393 341q-4 8 -18 10t-65 3q-36 2 -166 2v18q134 0 178 1t59 9.5t17 33.5l23 -47l-22 -65q-2 27 -6 35zM324 6q0 6 3 6q31 0 45.5 5.5t20 19.5t5.5 44v225q0 27 -4.5 37.5t-19 14t-51.5 3.5
q-3 0 -3 6t3 6q43 0 58 9.5t16 35.5q5 148 48 223q26 43 64.5 64t93.5 21q43 0 79.5 -12t57.5 -33l-32 -56q-49 86 -131 86q-38 0 -64 -18t-41 -58q-26 -62 -26 -196v-358q0 -31 7 -45t27.5 -19t66.5 -5q2 0 2 -6t-2 -6l-64 1q-20 1 -62 1l-55 -1q-14 -1 -39 -1q-3 0 -3 6z
M505.5 350q-34.5 3 -79.5 3v21q61 0 153 10q3 0 5 -6.5t2 -16.5q0 -8 -3 -16t-7 -7q-36 9 -70.5 12zM645 -4q-4 0 -4.5 3.5t2.5 6.5q34 24 46.5 42t12.5 55l1 560q16 5 27 23.5t11 40.5q0 3 5.5 3t5.5 -3l-1 -683l-104 -48h-2zM706 36l36 49q34 -42 69.5 -60.5t75.5 -18.5
q62 0 97 45.5t35 130.5q0 90 -37 139.5t-96 49.5q-40 0 -75.5 -25t-73.5 -68l-8 7q45 52 87.5 83t99.5 31q43 0 79 -21t58 -62.5t22 -101.5q0 -72 -31.5 -123.5t-82.5 -77.5t-107 -26q-83 0 -148 49z" />
    <glyph glyph-name="f_f_f.liga" unicode="fff" horiz-adv-x="893" 
d="M324 6q0 6 2 6q31 0 46 5t20.5 19.5t5.5 44.5v225q0 27 -4.5 37.5t-19 14t-51.5 3.5q-4 0 -4 6t4 6q42 0 57 9.5t16 35.5q7 144 67.5 220.5t164.5 76.5q43 0 79 -17t64 -43l-27 -62q-28 48 -66.5 75.5t-83.5 27.5q-68 0 -108 -66.5t-40 -190.5v-358q0 -31 6.5 -45t27 -19
t66.5 -5q3 0 3 -6t-3 -6l-63 1q-21 1 -62 1l-54 -1q-15 -1 -41 -1q-2 0 -2 6zM30 6q0 6 3 6q31 0 45.5 5.5t20 19.5t5.5 44v225q0 27 -4.5 37.5t-19 14t-51.5 3.5q-3 0 -3 6t3 6q43 0 58 9.5t16 35.5q6 132 67 202.5t165 70.5q44 0 82 -11t64 -28l-31 -59q-28 38 -66.5 60
t-82.5 22q-68 0 -108.5 -61t-40.5 -175v-358q0 -31 7 -45t27.5 -19t66.5 -5q2 0 2 -6t-2 -6l-64 1q-20 1 -62 1l-55 -1q-14 -1 -39 -1q-3 0 -3 6zM392.5 341q-3.5 8 -18 10t-64.5 3q-36 2 -166 2v18q134 0 178 1q44 2 58.5 10t15.5 33l25 -47l-23 -65q-2 27 -5.5 35z
M687 341q-4 8 -18.5 10t-64.5 3q-37 2 -167 2v18q135 0 178 1q45 1 59.5 9.5t16.5 33.5l24 -47l-23 -65q-1 27 -5 35zM799.5 350q-34.5 3 -79.5 3v21q61 0 153 10q3 0 5 -6.5t2 -16.5q0 -8 -3 -16t-7 -7q-36 9 -70.5 12zM618 6q0 6 3 6q31 0 45.5 5.5t20 19.5t5.5 44v225
q0 27 -4.5 37.5t-19 14t-51.5 3.5q-3 0 -3 6t3 6q43 0 58 9.5t16 35.5q5 162 58.5 235t157.5 73q50 0 83 -15.5t33 -35.5q0 -13 -9 -20.5t-22 -7.5q-10 0 -18 4.5t-18 17.5q-17 21 -36.5 31t-46.5 10q-61 0 -97 -67.5t-36 -203.5v-358q0 -31 7 -45t27.5 -19t66.5 -5
q2 0 2 -6t-2 -6l-64 1q-20 1 -62 1l-55 -1q-14 -1 -39 -1q-3 0 -3 6z" />
    <glyph glyph-name="f_f_h.liga" unicode="ffh" horiz-adv-x="1108" 
d="M30 6q0 6 3 6q31 0 45.5 5.5t20 19.5t5.5 44v225q0 27 -4.5 37.5t-19 14t-51.5 3.5q-3 0 -3 6t3 6q43 0 58 9.5t16 35.5q6 132 67 202.5t165 70.5q43 0 79.5 -10t62.5 -26l-27 -62q-28 38 -66.5 60t-82.5 22q-68 0 -108.5 -61t-40.5 -175v-358q0 -31 7 -45t27.5 -19
t66.5 -5q2 0 2 -6t-2 -6l-64 1q-20 1 -62 1l-55 -1q-14 -1 -39 -1q-3 0 -3 6zM393 341q-4 8 -18 10t-65 3q-36 2 -166 2v18q134 0 178 1t59 9.5t17 33.5l23 -47l-22 -65q-2 27 -6 35zM324 6q0 6 3 6q31 0 45.5 5.5t20 19.5t5.5 44v225q0 27 -4.5 37.5t-19 14t-51.5 3.5
q-3 0 -3 6t3 6q43 0 58 9.5t16 35.5q5 158 54 233t152 75q43 0 79.5 -12t57.5 -33l-32 -56q-49 86 -131 86q-68 0 -99.5 -63.5t-31.5 -208.5v-358q0 -31 7 -45t27.5 -19t66.5 -5q2 0 2 -6t-2 -6l-64 1q-20 1 -62 1l-55 -1q-14 -1 -39 -1q-3 0 -3 6zM505.5 350
q-34.5 3 -79.5 3v21q61 0 153 10q3 0 5 -6.5t2 -16.5q0 -8 -3 -16t-7 -7q-36 9 -70.5 12zM635 6q0 6 3 6q29 0 42 5t18 19.5t5 44.5v582q15 5 25 23.5t10 40.5q0 3 6 3t6 -3v-646q0 -30 4.5 -44.5t18 -19.5t43.5 -5q2 0 2 -6t-2 -6q-23 0 -37 1l-52 1l-53 -1q-13 -1 -36 -1
q-3 0 -3 6zM904 6q0 6 3 6q29 0 42 5t18 19.5t5 44.5v163q0 61 -23 90t-71 29q-39 0 -78 -25.5t-69 -68.5l-4 12q46 61 89 88t89 27q55 0 84.5 -30.5t29.5 -90.5v-194q0 -30 5 -44.5t18.5 -19.5t42.5 -5q2 0 2 -6t-2 -6q-23 0 -37 1l-52 1l-53 -1q-13 -1 -36 -1q-3 0 -3 6z
" />
    <glyph glyph-name="f_f_i.liga" unicode="ffi" horiz-adv-x="862" 
d="M30 6q0 6 3 6q31 0 45.5 5.5t20 19.5t5.5 44v225q0 27 -4.5 37.5t-19 14t-51.5 3.5q-3 0 -3 6t3 6q43 0 58 9.5t16 35.5q6 132 67 202.5t165 70.5q43 0 79.5 -10t62.5 -26l-27 -62q-28 38 -66.5 60t-82.5 22q-68 0 -108.5 -61t-40.5 -175v-358q0 -31 7 -45t27.5 -19
t66.5 -5q2 0 2 -6t-2 -6l-64 1q-20 1 -62 1l-55 -1q-14 -1 -39 -1q-3 0 -3 6zM393 341q-4 8 -18 10t-65 3q-36 2 -166 2v18q134 0 178 1t59 9.5t17 33.5l23 -47l-22 -65q-2 27 -6 35zM324 6q0 6 3 6q31 0 45.5 5.5t20 19.5t5.5 44v225q0 27 -4.5 37.5t-19 14t-51.5 3.5
q-3 0 -3 6t3 6q43 0 58 9.5t16 35.5q5 159 66.5 233.5t167.5 74.5q52 0 86.5 -22.5t34.5 -52.5q0 -13 -7 -20.5t-19 -7.5q-13 0 -20 7.5t-17 23.5q-15 26 -33.5 41t-58.5 15q-70 0 -110.5 -67t-40.5 -204v-358q0 -31 7 -45t27.5 -19t66.5 -5q2 0 2 -6t-2 -6l-64 1
q-20 1 -62 1l-55 -1q-14 -1 -39 -1q-3 0 -3 6zM438 358v16q56 0 141 10q3 0 5 -7.5t2 -16.5t-4 -18t-6 -7q-69 23 -138 23zM642 6q0 6 3 6q29 0 42 5t18 19.5t5 44.5v189q0 37 -7 53t-25 16q-16 0 -48 -15h-1q-5 0 -6.5 5t2.5 7l125 59q1 1 3 1t4 -2.5t2 -5.5q0 -6 -1 -39.5
t-1 -77.5v-190q0 -30 5 -44.5t18.5 -19.5t42.5 -5q2 0 2 -6t-2 -6q-23 0 -37 1l-52 1l-53 -1q-13 -1 -36 -1q-3 0 -3 6z" />
    <glyph glyph-name="f_f_j.liga" unicode="ffj" horiz-adv-x="861" 
d="M30 6q0 6 3 6q31 0 45.5 5.5t20 19.5t5.5 44v225q0 27 -4.5 37.5t-19 14t-51.5 3.5q-3 0 -3 6t3 6q43 0 58 9.5t16 35.5q6 132 67 202.5t165 70.5q43 0 79.5 -10t62.5 -26l-27 -62q-28 38 -66.5 60t-82.5 22q-68 0 -108.5 -61t-40.5 -175v-358q0 -31 7 -45t27.5 -19
t66.5 -5q2 0 2 -6t-2 -6l-64 1q-20 1 -62 1l-55 -1q-14 -1 -39 -1q-3 0 -3 6zM393 341q-4 8 -18 10t-65 3q-36 2 -166 2v18q134 0 178 1t59 9.5t17 33.5l23 -47l-22 -65q-2 27 -6 35zM324 6q0 6 3 6q31 0 45.5 5.5t20 19.5t5.5 44v225q0 27 -4.5 37.5t-19 14t-51.5 3.5
q-3 0 -3 6t3 6q43 0 58 9.5t16 35.5q5 159 68 233.5t172 74.5q37 0 66 -10.5t45 -28t16 -36.5q0 -13 -7.5 -20.5t-19.5 -7.5q-13 0 -20.5 7t-18.5 24q-15 26 -34.5 41t-60.5 15q-73 0 -115 -67t-42 -204v-358q0 -31 7 -45t27.5 -19t66.5 -5q2 0 2 -6t-2 -6l-64 1
q-20 1 -62 1l-55 -1q-14 -1 -39 -1q-3 0 -3 6zM628.5 -270.5q-2.5 5.5 0.5 6.5q49 21 68.5 64t19.5 129v341q0 37 -7 53t-25 16q-16 0 -48 -15h-1q-5 0 -6.5 5t2.5 7l125 59q1 1 3 1q3 0 5 -2.5t2 -5.5q0 -6 -1.5 -39.5t-1.5 -77.5v-319q0 -68 -12 -110t-40 -69t-79 -48
q-2 -1 -4.5 4.5zM505.5 350q-34.5 3 -79.5 3v21q61 0 153 10q3 0 5 -6.5t2 -16.5q0 -8 -3 -16t-7 -7q-36 9 -70.5 12z" />
    <glyph glyph-name="f_f_k.liga" unicode="ffk" horiz-adv-x="1102" 
d="M30 6q0 6 3 6q31 0 45.5 5.5t20 19.5t5.5 44v225q0 27 -4.5 37.5t-19 14t-51.5 3.5q-3 0 -3 6t3 6q43 0 58 9.5t16 35.5q6 132 67 202.5t165 70.5q43 0 79.5 -10t62.5 -26l-27 -62q-28 38 -66.5 60t-82.5 22q-68 0 -108.5 -61t-40.5 -175v-358q0 -31 7 -45t27.5 -19
t66.5 -5q2 0 2 -6t-2 -6l-64 1q-20 1 -62 1l-55 -1q-14 -1 -39 -1q-3 0 -3 6zM393 341q-4 8 -18 10t-65 3q-36 2 -166 2v18q134 0 178 1t59 9.5t17 33.5l23 -47l-22 -65q-2 27 -6 35zM324 6q0 6 3 6q31 0 45.5 5.5t20 19.5t5.5 44v225q0 27 -4.5 37.5t-19 14t-51.5 3.5
q-3 0 -3 6t3 6q43 0 58 9.5t16 35.5q5 158 54 233t149 75q46 0 82.5 -12t57.5 -33l-32 -56q-25 44 -57.5 65t-74.5 21q-67 0 -98.5 -63.5t-31.5 -208.5v-358q0 -31 7 -45t27.5 -19t66.5 -5q2 0 2 -6t-2 -6l-64 1q-20 1 -62 1l-55 -1q-14 -1 -39 -1q-3 0 -3 6zM505.5 350
q-34.5 3 -79.5 3v21q61 0 153 10q3 0 5 -6.5t2 -16.5q0 -8 -3 -16t-7 -7q-36 9 -70.5 12zM887 6q0 6 2 6q28 0 40.5 4.5t12.5 14.5q0 9 -9 22l-128 177l41 30l128 -179q48 -69 116 -69q3 0 3 -6t-3 -6q-22 0 -36 1l-52 1l-71 -1q-15 -1 -42 -1q-2 0 -2 6zM635 6q0 6 3 6
q29 0 42 5t18 19.5t5 44.5v582q15 5 25 23.5t10 40.5q0 3 6 3t6 -3v-646q0 -30 4.5 -44.5t18 -19.5t43.5 -5q2 0 2 -6t-2 -6q-23 0 -37 1l-52 1l-53 -1q-13 -1 -36 -1q-3 0 -3 6zM733 182l162 126q34 25 34 43q0 23 -63 23q-3 0 -3 6t3 6q27 0 41 -1l71 -1l66 1q12 1 35 1
q2 0 2 -6t-2 -6q-75 0 -166 -69l-176 -133z" />
    <glyph glyph-name="f_f_l.liga" unicode="ffl" horiz-adv-x="861" 
d="M30 6q0 6 3 6q31 0 45.5 5.5t20 19.5t5.5 44v225q0 27 -4.5 37.5t-19 14t-51.5 3.5q-3 0 -3 6t3 6q43 0 58 9.5t16 35.5q6 132 67 202.5t165 70.5q43 0 79.5 -10t62.5 -26l-27 -62q-28 38 -66.5 60t-82.5 22q-68 0 -108.5 -61t-40.5 -175v-358q0 -31 7 -45t27.5 -19
t66.5 -5q2 0 2 -6t-2 -6l-64 1q-20 1 -62 1l-55 -1q-14 -1 -39 -1q-3 0 -3 6zM393 341q-4 8 -18 10t-65 3q-36 2 -166 2v18q134 0 178 1t59 9.5t17 33.5l23 -47l-22 -65q-2 27 -6 35zM324 6q0 6 3 6q31 0 45.5 5.5t20 19.5t5.5 44v225q0 27 -4.5 37.5t-19 14t-51.5 3.5
q-3 0 -3 6t3 6q43 0 58 9.5t16 35.5q5 161 58 234.5t152 73.5q46 0 83.5 -12t60.5 -33l-31 -56q-29 46 -62.5 66t-75.5 20q-65 0 -100.5 -63.5t-35.5 -208.5v-358q0 -31 7 -45t27.5 -19t66.5 -5q2 0 2 -6t-2 -6l-64 1q-20 1 -62 1l-55 -1q-14 -1 -39 -1q-3 0 -3 6zM438 358
v16q56 0 141 10q3 0 5 -8t2 -17t-4 -17.5t-6 -6.5q-69 23 -138 23zM649 6q0 6 3 6q29 0 42 5t18 19.5t5 44.5v582q16 5 27 23.5t11 40.5q0 3 6 3t6 -3v-646q0 -30 4.5 -44.5t18 -19.5t42.5 -5q3 0 3 -6t-3 -6q-22 0 -36 1l-54 1l-54 -1q-13 -1 -36 -1q-3 0 -3 6z" />
    <glyph glyph-name="f_f_thorn.liga" unicode="ff&#xfe;" horiz-adv-x="1102" 
d="M30 6q0 6 3 6q31 0 45.5 5.5t20 19.5t5.5 44v225q0 27 -4.5 37.5t-19 14t-51.5 3.5q-3 0 -3 6t3 6q43 0 58 9.5t16 35.5q6 132 67 202.5t165 70.5q43 0 79.5 -10t62.5 -26l-27 -62q-28 38 -66.5 60t-82.5 22q-68 0 -108.5 -61t-40.5 -175v-358q0 -31 7 -45t27.5 -19
t66.5 -5q2 0 2 -6t-2 -6l-64 1q-20 1 -62 1l-55 -1q-14 -1 -39 -1q-3 0 -3 6zM393 341q-4 8 -18 10t-65 3q-36 2 -166 2v18q134 0 178 1t59 9.5t17 33.5l23 -47l-22 -65q-2 27 -6 35zM324 6q0 6 3 6q31 0 45.5 5.5t20 19.5t5.5 44v225q0 27 -4.5 37.5t-19 14t-51.5 3.5
q-3 0 -3 6t3 6q43 0 58 9.5t16 35.5q5 158 54 233t149 75q46 0 82.5 -12t57.5 -33l-32 -56q-25 44 -57.5 65t-74.5 21q-67 0 -98.5 -63.5t-31.5 -208.5v-358q0 -31 7 -45t27.5 -19t66.5 -5q2 0 2 -6t-2 -6l-64 1q-20 1 -62 1l-55 -1q-14 -1 -39 -1q-3 0 -3 6zM505.5 350
q-34.5 3 -79.5 3v21q61 0 153 10q3 0 5 -6.5t2 -16.5q0 -8 -3 -16t-7 -7q-36 9 -70.5 12zM624 -269q0 6 2 6q28 0 42 5.5t19 19.5t5 44v857q16 5 26.5 23.5t10.5 40.5q0 3 6 3t6 -3v-921q0 -30 7.5 -44t28 -19.5t64.5 -5.5q3 0 3 -6t-3 -6q-34 0 -53 1l-72 1l-53 -1
q-13 -1 -37 -1q-2 0 -2 6zM781.5 -2.5q-29.5 10.5 -62.5 37.5l9 53q31 -40 66.5 -60.5t88.5 -20.5q55 0 91 48t36 129q0 86 -38 134t-96 48q-41 0 -75.5 -23t-72.5 -65l-8 7q51 59 97.5 86.5t95.5 27.5q41 0 75.5 -22t55.5 -64t21 -98q0 -74 -34 -125.5t-84 -77t-96 -25.5
q-40 0 -69.5 10.5z" />
    <glyph glyph-name="f_f_t.liga" unicode="fft" horiz-adv-x="915" 
d="M30 6q0 6 3 6q31 0 45.5 5.5t20 19.5t5.5 44v225q0 27 -4.5 37.5t-19 14t-51.5 3.5q-3 0 -3 6t3 6q43 0 58 9.5t16 35.5q6 132 67 202.5t165 70.5q43 0 79.5 -10t62.5 -26l-27 -62q-28 38 -66.5 60t-82.5 22q-68 0 -108.5 -61t-40.5 -175v-358q0 -31 7 -45t27.5 -19
t66.5 -5q2 0 2 -6t-2 -6l-64 1q-20 1 -62 1l-55 -1q-14 -1 -39 -1q-3 0 -3 6zM393 341q-4 8 -18 10t-65 3q-36 2 -166 2v18q134 0 178 1t59 9.5t17 33.5l23 -47l-22 -65q-2 27 -6 35zM324 6q0 6 3 6q31 0 45.5 5.5t20 19.5t5.5 44v225q0 27 -4.5 37.5t-19 14t-51.5 3.5
q-3 0 -3 6t3 6q43 0 58 9.5t16 35.5q5 162 58.5 235t157.5 73q50 0 83 -15.5t33 -35.5q0 -13 -9 -20.5t-22 -7.5q-17 0 -36 22q-17 21 -36.5 31t-46.5 10q-61 0 -97 -67.5t-36 -203.5v-358q0 -31 7 -45t27.5 -19t66.5 -5q2 0 2 -6t-2 -6l-64 1q-20 1 -62 1l-55 -1
q-14 -1 -39 -1q-3 0 -3 6zM698 6.5q-26 18.5 -26 61.5v238q0 28 -7 36.5t-41 11t-138 2.5h-48v18q95 0 150 3q49 1 73.5 7t34 20.5t9.5 42.5q0 3 8 3q7 0 7 -3v-345q0 -83 80 -83q47 0 82 27l2 1q3 0 5 -4.5t-1 -6.5q-37 -26 -65 -37t-58 -11q-41 0 -67 18.5zM787.5 350
q-34.5 3 -79.5 3v21q61 0 153 10q3 0 5 -6.5t2 -16.5q0 -8 -3.5 -16t-6.5 -7q-36 9 -70.5 12z" />
    <glyph glyph-name="f_h.liga" unicode="fh" horiz-adv-x="814" 
d="M30 6q0 6 3 6q31 0 45.5 5.5t20 19.5t5.5 44v225q0 27 -4.5 37.5t-19 14t-51.5 3.5q-3 0 -3 6t3 6q43 0 58 9.5t16 35.5q5 158 54 233t152 75q43 0 79.5 -12t57.5 -33l-32 -56q-49 86 -131 86q-68 0 -99.5 -63.5t-31.5 -208.5v-358q0 -31 7 -45t27.5 -19t66.5 -5
q2 0 2 -6t-2 -6l-64 1q-20 1 -62 1l-55 -1q-14 -1 -39 -1q-3 0 -3 6zM211.5 350q-34.5 3 -79.5 3v21q61 0 153 10q3 0 5 -6.5t2 -16.5q0 -8 -3 -16t-7 -7q-36 9 -70.5 12zM341 6q0 6 3 6q29 0 42 5t18 19.5t5 44.5v582q15 5 25 23.5t10 40.5q0 3 6 3t6 -3v-646
q0 -30 4.5 -44.5t18 -19.5t43.5 -5q2 0 2 -6t-2 -6q-23 0 -37 1l-52 1l-53 -1q-13 -1 -36 -1q-3 0 -3 6zM610 6q0 6 3 6q29 0 42 5t18 19.5t5 44.5v163q0 61 -23 90t-71 29q-39 0 -78 -25.5t-69 -68.5l-4 12q46 61 89 88t89 27q55 0 84.5 -30.5t29.5 -90.5v-194
q0 -30 5 -44.5t18.5 -19.5t42.5 -5q2 0 2 -6t-2 -6q-23 0 -37 1l-52 1l-53 -1q-13 -1 -36 -1q-3 0 -3 6z" />
    <glyph glyph-name="f_j.liga" unicode="fj" horiz-adv-x="567" 
d="M30 6q0 6 3 6q31 0 45.5 5.5t20 19.5t5.5 44v225q0 27 -4.5 37.5t-19 14t-51.5 3.5q-3 0 -3 6t3 6q43 0 58 9.5t16 35.5q5 159 68 233.5t172 74.5q37 0 66 -10.5t45 -28t16 -36.5q0 -13 -7.5 -20.5t-19.5 -7.5q-13 0 -20.5 7t-18.5 24q-15 26 -34.5 41t-60.5 15
q-73 0 -115 -67t-42 -204v-358q0 -31 7 -45t27.5 -19t66.5 -5q2 0 2 -6t-2 -6l-64 1q-20 1 -62 1l-55 -1q-14 -1 -39 -1q-3 0 -3 6zM334.5 -270.5q-2.5 5.5 0.5 6.5q49 21 68.5 64t19.5 129v341q0 37 -7 53t-25 16q-16 0 -48 -15h-1q-5 0 -6.5 5t2.5 7l125 59q1 1 3 1
q3 0 5 -2.5t2 -5.5q0 -6 -1.5 -39.5t-1.5 -77.5v-319q0 -68 -12 -110t-40 -69t-79 -48q-2 -1 -4.5 4.5zM211.5 350q-34.5 3 -79.5 3v21q61 0 153 10q3 0 5 -6.5t2 -16.5q0 -8 -3 -16t-7 -7q-36 9 -70.5 12z" />
    <glyph glyph-name="f_k.liga" unicode="fk" horiz-adv-x="808" 
d="M30 6q0 6 3 6q31 0 45.5 5.5t20 19.5t5.5 44v225q0 27 -4.5 37.5t-19 14t-51.5 3.5q-3 0 -3 6t3 6q43 0 58 9.5t16 35.5q5 158 54 233t149 75q46 0 82.5 -12t57.5 -33l-32 -56q-25 44 -57.5 65t-74.5 21q-67 0 -98.5 -63.5t-31.5 -208.5v-358q0 -31 7 -45t27.5 -19
t66.5 -5q2 0 2 -6t-2 -6l-64 1q-20 1 -62 1l-55 -1q-14 -1 -39 -1q-3 0 -3 6zM211.5 350q-34.5 3 -79.5 3v21q61 0 153 10q3 0 5 -6.5t2 -16.5q0 -8 -3 -16t-7 -7q-36 9 -70.5 12zM593 6q0 6 2 6q28 0 40.5 4.5t12.5 14.5q0 9 -9 22l-128 177l41 30l128 -179q48 -69 116 -69
q3 0 3 -6t-3 -6q-22 0 -36 1l-52 1l-71 -1q-15 -1 -42 -1q-2 0 -2 6zM341 6q0 6 3 6q29 0 42 5t18 19.5t5 44.5v582q15 5 25 23.5t10 40.5q0 3 6 3t6 -3v-646q0 -30 4.5 -44.5t18 -19.5t43.5 -5q2 0 2 -6t-2 -6q-23 0 -37 1l-52 1l-53 -1q-13 -1 -36 -1q-3 0 -3 6zM439 182
l162 126q34 25 34 43q0 23 -63 23q-3 0 -3 6t3 6q27 0 41 -1l71 -1l66 1q12 1 35 1q2 0 2 -6t-2 -6q-75 0 -166 -69l-176 -133z" />
    <glyph glyph-name="f_thorn.liga" unicode="f&#xfe;" horiz-adv-x="808" 
d="M30 6q0 6 3 6q31 0 45.5 5.5t20 19.5t5.5 44v225q0 27 -4.5 37.5t-19 14t-51.5 3.5q-3 0 -3 6t3 6q43 0 58 9.5t16 35.5q5 158 54 233t149 75q46 0 82.5 -12t57.5 -33l-32 -56q-25 44 -57.5 65t-74.5 21q-67 0 -98.5 -63.5t-31.5 -208.5v-358q0 -31 7 -45t27.5 -19
t66.5 -5q2 0 2 -6t-2 -6l-64 1q-20 1 -62 1l-55 -1q-14 -1 -39 -1q-3 0 -3 6zM211.5 350q-34.5 3 -79.5 3v21q61 0 153 10q3 0 5 -6.5t2 -16.5q0 -8 -3 -16t-7 -7q-36 9 -70.5 12zM330 -269q0 6 2 6q28 0 42 5.5t19 19.5t5 44v857q16 5 26.5 23.5t10.5 40.5q0 3 6 3t6 -3
v-921q0 -30 7.5 -44t28 -19.5t64.5 -5.5q3 0 3 -6t-3 -6q-34 0 -53 1l-72 1l-53 -1q-13 -1 -37 -1q-2 0 -2 6zM487.5 -2.5q-29.5 10.5 -62.5 37.5l9 53q31 -40 66.5 -60.5t88.5 -20.5q55 0 91 48t36 129q0 86 -38 134t-96 48q-41 0 -75.5 -23t-72.5 -65l-8 7
q51 59 97.5 86.5t95.5 27.5q41 0 75.5 -22t55.5 -64t21 -98q0 -74 -34 -125.5t-84 -77t-96 -25.5q-40 0 -69.5 10.5z" />
    <glyph glyph-name="f_t.liga" unicode="ft" horiz-adv-x="621" 
d="M30 6q0 6 3 6q31 0 45.5 5.5t20 19.5t5.5 44v225q0 27 -4.5 37.5t-19 14t-51.5 3.5q-3 0 -3 6t3 6q43 0 58 9.5t16 35.5q5 162 58.5 235t157.5 73q50 0 83 -15.5t33 -35.5q0 -13 -9 -20.5t-22 -7.5q-17 0 -36 22q-17 21 -36.5 31t-46.5 10q-61 0 -97 -67.5t-36 -203.5
v-358q0 -31 7 -45t27.5 -19t66.5 -5q2 0 2 -6t-2 -6l-64 1q-20 1 -62 1l-55 -1q-14 -1 -39 -1q-3 0 -3 6zM404 6.5q-26 18.5 -26 61.5v238q0 28 -7 36.5t-41 11t-138 2.5h-48v18q95 0 150 3q49 1 73.5 7t34 20.5t9.5 42.5q0 3 8 3q7 0 7 -3v-345q0 -83 80 -83q47 0 82 27
l2 1q3 0 5 -4.5t-1 -6.5q-37 -26 -65 -37t-58 -11q-41 0 -67 18.5zM493.5 350q-34.5 3 -79.5 3v21q61 0 153 10q3 0 5 -6.5t2 -16.5q0 -8 -3.5 -16t-6.5 -7q-36 9 -70.5 12z" />
    <glyph glyph-name="g_g.liga" unicode="gg" horiz-adv-x="877" 
d="M510 -249.5q-37 30.5 -37 78.5q0 50 40 95.5t115 89.5l11 -13q-58 -31 -87.5 -61t-29.5 -82q0 -50 32 -79t95 -29q74 0 120.5 37.5t46.5 100.5q0 39 -19 57.5t-51.5 23.5t-89.5 5t-90.5 4t-54 19t-20.5 47q0 31 17 53.5t60 58.5l12 -10q-25 -21 -35 -37.5t-10 -34.5
q0 -22 15 -33.5t51 -16.5t104 -5q66 0 109.5 -18.5t43.5 -81.5q0 -53 -35 -99t-92 -73t-119 -27q-65 0 -102 30.5zM72.5 -249.5q-38.5 30.5 -38.5 78.5q0 50 41.5 95.5t119.5 89.5l11 -13q-61 -31 -92 -61t-31 -82q0 -50 33.5 -79t99.5 -29q69 0 112.5 37.5t43.5 100.5
q0 39 -18 57.5t-48 23.5t-83 5q-57 0 -90.5 4t-54 19t-20.5 47q0 31 17.5 53t60.5 59l11 -10q-25 -21 -35 -37.5t-10 -34.5q0 -21 15 -33t51 -17t103 -5q62 0 102.5 -18.5t40.5 -81.5q0 -53 -33.5 -99t-88 -73t-113.5 -27q-68 0 -106.5 30.5zM100.5 170q-40.5 37 -40.5 92
t42 93t114 38q75 0 111.5 -39t36.5 -90q0 -34 -18 -64t-53 -48.5t-82 -18.5q-70 0 -110.5 37zM288 171q22 24 22 73q0 61 -33 98t-83 37q-38 0 -59.5 -23t-21.5 -72q0 -45 17 -76t43.5 -46t55.5 -15q37 0 59 24zM369.5 383.5q31.5 10.5 66.5 10.5q3 0 4.5 -7t1.5 -14
q0 -11 -3 -22t-6 -9q-2 1 -22.5 7.5t-54.5 6.5q-20 0 -46 -7l-9 -30v34q37 20 68.5 30.5zM532.5 170q-40.5 37 -40.5 92t42.5 93t114.5 38q75 0 111 -39t36 -90q0 -34 -18 -64t-52.5 -48.5t-82.5 -18.5q-70 0 -110.5 37zM721 171q22 24 22 73q0 61 -33 98t-83 37
q-38 0 -59.5 -23t-21.5 -72q0 -45 17 -76t43.5 -46t55.5 -15q37 0 59 24zM796.5 383.5q28.5 10.5 60.5 10.5q3 0 4.5 -7t1.5 -14q0 -11 -3 -22t-6 -9q-2 1 -19.5 7.5t-46.5 6.5q-19 0 -45 -7l-10 -30v34q35 20 63.5 30.5z" />
    <glyph glyph-name="longs_b.liga" unicode="&#x17f;b" horiz-adv-x="807" 
d="M30 6q0 6 3 6q31 0 45.5 5.5t20 19.5t5.5 44v225q0 27 -4.5 37.5t-19 14t-51.5 3.5q-3 0 -3 6t3 6q43 0 58.5 9.5t15.5 35.5q0 308 203 308q85 0 127 -45l-32 -56q-22 44 -51.5 65t-67.5 21q-67 0 -98.5 -63.5t-31.5 -208.5v-358q0 -31 7 -45t27.5 -19t66.5 -5q2 0 2 -6
t-2 -6l-64 1q-20 1 -62 1l-55 -1q-14 -1 -39 -1q-3 0 -3 6zM340 -4q-4 0 -5 3.5t2 6.5q34 24 46.5 42t12.5 55v560q16 5 27 23.5t11 40.5q0 3 6 3t6 -3v-683l-104 -48h-2zM400 36l36 49q34 -42 69.5 -60.5t75.5 -18.5q62 0 97 45.5t35 130.5q0 90 -37 139.5t-96 49.5
q-40 0 -75 -25t-73 -68l-9 7q45 52 88 83t100 31q43 0 79 -21t58 -62.5t22 -101.5q0 -72 -32 -123.5t-82.5 -77.5t-106.5 -26q-84 0 -149 49z" />
    <glyph glyph-name="longs_h.liga" unicode="&#x17f;h" horiz-adv-x="801" 
d="M29 6q0 6 3 6q31 0 45.5 5.5t20 19.5t5.5 44l1 225q0 27 -4.5 37.5t-19 14t-51.5 3.5q-3 0 -3 6t3 6q43 0 58.5 9.5t15.5 35.5q0 156 50.5 232t151.5 76q43 0 75.5 -12t52.5 -33l-32 -56q-43 86 -120 86q-67 0 -98.5 -63.5t-31.5 -208.5v-358q0 -31 7 -45t27.5 -19
t65.5 -5q3 0 3 -6t-3 -6l-63 1q-21 1 -62 1l-55 -1q-14 -1 -39 -1q-3 0 -3 6zM327 6q0 6 4 6q29 0 42 5t18 19.5t5 44.5v582q15 5 25.5 23.5t10.5 40.5q0 3 5.5 3t5.5 -3v-646q0 -30 5 -44.5t18.5 -19.5t42.5 -5q2 0 2 -6t-2 -6q-23 0 -37 1l-52 1l-53 -1q-13 -1 -36 -1
q-4 0 -4 6zM597 6q0 6 3 6q29 0 42 5t18 19.5t5 44.5v163q0 61 -23 90t-71 29q-39 0 -78 -25.5t-68 -68.5l-5 12q46 61 89 88t89 27q55 0 84.5 -30.5t29.5 -90.5v-194q0 -30 5 -44.5t18.5 -19.5t42.5 -5q2 0 2 -6t-2 -6q-23 0 -37 1l-52 1l-53 -1q-13 -1 -36 -1q-3 0 -3 6z
" />
    <glyph glyph-name="longs_i.liga" unicode="&#x17f;i" horiz-adv-x="544" 
d="M30 6q0 6 3 6q31 0 45.5 5.5t20 19.5t5.5 44v225q0 27 -4.5 37.5t-19 14t-51.5 3.5q-3 0 -3 6t3 6q43 0 58.5 9.5t15.5 35.5q0 160 55.5 234t154.5 74q51 0 80.5 -15t29.5 -36q0 -13 -8.5 -20t-21.5 -7t-21.5 6.5t-19.5 20.5q-15 18 -29 27.5t-39 9.5q-61 0 -95.5 -66.5
t-34.5 -206.5v-358q0 -31 5.5 -45t23.5 -19t58 -5q2 0 2 -6t-2 -6l-58 1q-18 1 -56 1l-55 -1q-14 -1 -39 -1q-3 0 -3 6zM318 6q0 6 2 6q29 0 42.5 5t18.5 19.5t5 44.5v189q0 37 -7 53t-25 16q-17 0 -49 -15h-1q-5 0 -6 5t3 7l125 59l2 1q3 0 5 -2.5t2 -5.5q0 -6 -1 -39.5
t-1 -77.5v-190q0 -30 4.5 -44.5t18 -19.5t42.5 -5q3 0 3 -6t-3 -6q-23 0 -36 1l-53 1l-52 -1q-14 -1 -37 -1q-2 0 -2 6z" />
    <glyph glyph-name="longs_j.liga" unicode="&#x17f;j" horiz-adv-x="525" 
d="M30 6q0 6 3 6q31 0 45.5 5.5t20 19.5t5.5 44v225q0 27 -4.5 37.5t-19 14t-51.5 3.5q-3 0 -3 6t3 6q43 0 58.5 9.5t15.5 35.5q0 160 55.5 234t154.5 74q51 0 80.5 -15t29.5 -36q0 -13 -8.5 -20t-21.5 -7t-21.5 6.5t-19.5 20.5q-15 18 -29 27.5t-39 9.5q-61 0 -95.5 -66.5
t-34.5 -206.5v-358q0 -31 5.5 -45t23.5 -19t58 -5q2 0 2 -6t-2 -6l-58 1q-18 1 -56 1l-55 -1q-14 -1 -39 -1q-3 0 -3 6zM292.5 -270.5q-2.5 5.5 -0.5 6.5q49 21 69 64t20 129v341q0 37 -7 53t-25 16q-16 0 -48 -15h-1q-5 0 -6.5 5t2.5 7l125 59q1 1 3 1t4 -2.5t2 -5.5
q0 -6 -1 -39.5t-1 -77.5v-319q0 -67 -12 -109.5t-40 -69.5t-79 -48q-2 -1 -4.5 4.5z" />
    <glyph glyph-name="longs_k.liga" unicode="&#x17f;k" horiz-adv-x="796" 
d="M30 6q0 6 3 6q31 0 45.5 5.5t20 19.5t5.5 44v225q0 27 -4.5 37.5t-19 14t-51.5 3.5q-3 0 -3 6t3 6q43 0 59 9.5t16 35.5q0 156 50.5 232t151.5 76q43 0 75.5 -12t52.5 -33l-32 -56q-43 86 -120 86q-67 0 -98.5 -63.5t-31.5 -208.5v-358q0 -31 7 -45t27.5 -19t66.5 -5
q2 0 2 -6t-2 -6l-64 1q-20 1 -62 1l-55 -1q-14 -1 -39 -1q-3 0 -3 6zM581 6q0 6 3 6q27 0 39.5 4.5t12.5 14.5q0 9 -9 22l-128 177l41 30l128 -179q48 -69 117 -69q2 0 2 -6t-2 -6q-23 0 -37 1l-52 1l-71 -1q-15 -1 -41 -1q-3 0 -3 6zM330 6q0 6 2 6q29 0 42.5 5t18.5 19.5
t5 44.5v582q15 5 25 23.5t10 40.5q0 3 5.5 3t5.5 -3v-646q0 -30 5 -44.5t18.5 -19.5t42.5 -5q2 0 2 -6t-2 -6q-23 0 -36 1l-53 1l-52 -1q-14 -1 -37 -1q-2 0 -2 6zM427 182l162 126q34 25 34 43q0 23 -63 23q-2 0 -2 6t2 6q27 0 42 -1l71 -1l65 1q13 1 35 1q3 0 3 -6t-3 -6
q-75 0 -166 -69l-175 -133z" />
    <glyph glyph-name="longs_l.liga" unicode="&#x17f;l" horiz-adv-x="544" 
d="M30 6q0 6 3 6q31 0 45.5 5.5t20 19.5t5.5 44v225q0 27 -4.5 37.5t-19 14t-51.5 3.5q-3 0 -3 6t3 6q43 0 58 9.5t16 35.5q5 161 55 234.5t144 73.5q42 0 76.5 -12t55.5 -33l-32 -56q-26 46 -57 66t-69 20q-60 0 -92 -63.5t-32 -208.5v-358q0 -31 7 -45t27.5 -19t66.5 -5
q2 0 2 -6t-2 -6l-64 1q-20 1 -62 1l-55 -1q-14 -1 -39 -1q-3 0 -3 6zM332 6q0 6 3 6q28 0 41.5 5.5t18.5 19.5t5 44v582q16 5 26.5 23.5t10.5 40.5q0 3 6 3t6 -3v-646q0 -30 4.5 -44.5t18 -19.5t43.5 -5q2 0 2 -6t-2 -6q-23 0 -37 1l-53 1l-54 -1q-13 -1 -36 -1q-3 0 -3 6z
" />
    <glyph glyph-name="longs_thorn.liga" unicode="&#x17f;&#xfe;" horiz-adv-x="795" 
d="M30 6q0 6 3 6q31 0 45.5 5.5t20 19.5t5.5 44v225q0 27 -4.5 37.5t-19 14t-51.5 3.5q-3 0 -3 6t3 6q43 0 58 9.5t16 35.5q5 158 54 233t149 75q43 0 75.5 -12t52.5 -33l-32 -56q-43 86 -120 86q-67 0 -98.5 -63.5t-31.5 -208.5v-358q0 -31 7 -45t27.5 -19t66.5 -5
q2 0 2 -6t-2 -6l-64 1q-20 1 -62 1l-55 -1q-14 -1 -39 -1q-3 0 -3 6zM318 -269q0 6 2 6q28 0 42 5.5t19 19.5t5 44v857q16 5 26.5 23.5t10.5 40.5q0 3 6 3t6 -3v-921q0 -30 7.5 -44t28 -19.5t65.5 -5.5q2 0 2 -6t-2 -6q-35 0 -54 1l-71 1l-53 -1q-14 -1 -38 -1q-2 0 -2 6z
M474.5 -2.5q-29.5 10.5 -62.5 37.5l9 53q31 -39 67 -60t89 -21q35 0 64 21.5t45.5 61.5t16.5 94q0 86 -37.5 134t-95.5 48q-42 0 -76.5 -23t-72.5 -65l-8 7q51 59 98 86.5t95 27.5q41 0 76 -22t55.5 -63.5t20.5 -98.5q0 -74 -34 -125.5t-84 -77t-96 -25.5q-40 0 -69.5 10.5z
" />
    <glyph glyph-name="longs_longs.liga" unicode="&#x17f;&#x17f;" horiz-adv-x="540" 
d="M30 6q0 6 3 6q31 0 45.5 5.5t20 19.5t5.5 44v225q0 27 -4.5 37.5t-19 14t-51.5 3.5q-3 0 -3 6t3 6q43 0 58 9.5t16 35.5q6 132 67 202.5t165 70.5q75 0 130 -36l-26 -62q-27 38 -62 60t-76 22q-68 0 -108.5 -61t-40.5 -175v-358q0 -31 7 -45t27.5 -19t66.5 -5q2 0 2 -6
t-2 -6l-64 1q-20 1 -62 1l-55 -1q-14 -1 -39 -1q-3 0 -3 6zM307 6q0 6 3 6q31 0 45.5 5.5t20 19.5t5.5 44v225q0 27 -4.5 37.5t-19 14t-51.5 3.5q-3 0 -3 6t3 6q43 0 58 9.5t16 35.5q6 166 56 237t149 71q45 0 74.5 -15.5t29.5 -35.5q0 -14 -8.5 -20.5t-22.5 -6.5
q-13 0 -21.5 6.5t-19.5 20.5q-14 17 -28 26.5t-38 9.5q-57 0 -88.5 -65.5t-31.5 -206.5v-358q0 -31 5.5 -45t23.5 -19t58 -5q2 0 2 -6t-2 -6l-58 1q-18 1 -56 1l-55 -1q-14 -1 -39 -1q-3 0 -3 6z" />
    <glyph glyph-name="longs_longs_b.liga" unicode="&#x17f;&#x17f;b" horiz-adv-x="1094" 
d="M30 6q0 6 3 6q31 0 45.5 5.5t20 19.5t5.5 44v225q0 27 -4.5 37.5t-19 14t-51.5 3.5q-3 0 -3 6t3 6q43 0 58 9.5t16 35.5q6 132 67 202.5t165 70.5q75 0 130 -36l-26 -62q-27 38 -62 60t-76 22q-68 0 -108.5 -61t-40.5 -175v-358q0 -31 7 -45t27.5 -19t66.5 -5q2 0 2 -6
t-2 -6l-64 1q-20 1 -62 1l-55 -1q-14 -1 -39 -1q-3 0 -3 6zM317 6q0 6 3 6q31 0 45.5 5.5t20 19.5t5.5 44v225q0 27 -4.5 37.5t-19 14t-51.5 3.5q-3 0 -3 6t3 6q43 0 58.5 9.5t15.5 35.5q0 308 203 308q85 0 127 -45l-32 -56q-22 44 -51.5 65t-67.5 21q-67 0 -98.5 -63.5
t-31.5 -208.5v-358q0 -31 7 -45t27.5 -19t66.5 -5q2 0 2 -6t-2 -6l-64 1q-20 1 -62 1l-55 -1q-14 -1 -39 -1q-3 0 -3 6zM627 -4q-4 0 -5 3.5t2 6.5q34 24 46.5 42t12.5 55v560q16 5 27 23.5t11 40.5q0 3 6 3t6 -3v-683l-104 -48h-2zM687 36l36 49q34 -42 69.5 -60.5
t75.5 -18.5q62 0 97 45.5t35 130.5q0 90 -37 139.5t-96 49.5q-40 0 -75 -25t-73 -68l-9 7q45 52 88 83t100 31q43 0 79 -21t58 -62.5t22 -101.5q0 -72 -32 -123.5t-82.5 -77.5t-106.5 -26q-84 0 -149 49z" />
    <glyph glyph-name="longs_longs_h.liga" unicode="&#x17f;&#x17f;h" horiz-adv-x="1089" 
d="M30 6q0 6 3 6q31 0 45.5 5.5t20 19.5t5.5 44v225q0 27 -4.5 37.5t-19 14t-51.5 3.5q-3 0 -3 6t3 6q43 0 58 9.5t16 35.5q6 132 67 202.5t165 70.5q75 0 130 -36l-26 -62q-27 38 -62 60t-76 22q-68 0 -108.5 -61t-40.5 -175v-358q0 -31 7 -45t27.5 -19t66.5 -5q2 0 2 -6
t-2 -6l-64 1q-20 1 -62 1l-55 -1q-14 -1 -39 -1q-3 0 -3 6zM316 6q0 6 3 6q31 0 45.5 5.5t20 19.5t5.5 44l1 225q0 27 -4.5 37.5t-19 14t-51.5 3.5q-3 0 -3 6t3 6q43 0 58.5 9.5t15.5 35.5q0 156 50.5 232t151.5 76q43 0 75.5 -12t52.5 -33l-32 -56q-43 86 -120 86
q-67 0 -98.5 -63.5t-31.5 -208.5v-358q0 -31 7 -45t27.5 -19t65.5 -5q3 0 3 -6t-3 -6l-63 1q-21 1 -62 1l-55 -1q-14 -1 -39 -1q-3 0 -3 6zM614 6q0 6 4 6q29 0 42 5t18 19.5t5 44.5v582q15 5 25.5 23.5t10.5 40.5q0 3 5.5 3t5.5 -3v-646q0 -30 5 -44.5t18.5 -19.5t42.5 -5
q2 0 2 -6t-2 -6q-23 0 -37 1l-52 1l-53 -1q-13 -1 -36 -1q-4 0 -4 6zM884 6q0 6 3 6q29 0 42 5t18 19.5t5 44.5v163q0 61 -23 90t-71 29q-39 0 -78 -25.5t-68 -68.5l-5 12q46 61 89 88t89 27q55 0 84.5 -30.5t29.5 -90.5v-194q0 -30 5 -44.5t18.5 -19.5t42.5 -5q2 0 2 -6
t-2 -6q-23 0 -37 1l-52 1l-53 -1q-13 -1 -36 -1q-3 0 -3 6z" />
    <glyph glyph-name="longs_longs_i.liga" unicode="&#x17f;&#x17f;i" horiz-adv-x="825" 
d="M30 6q0 6 3 6q31 0 45.5 5.5t20 19.5t5.5 44v225q0 27 -4.5 37.5t-19 14t-51.5 3.5q-3 0 -3 6t3 6q43 0 58 9.5t16 35.5q6 132 67 202.5t165 70.5q75 0 130 -36l-26 -62q-27 38 -62 60t-76 22q-68 0 -108.5 -61t-40.5 -175v-358q0 -31 7 -45t27.5 -19t66.5 -5q2 0 2 -6
t-2 -6l-64 1q-20 1 -62 1l-55 -1q-14 -1 -39 -1q-3 0 -3 6zM311 6q0 6 3 6q31 0 45.5 5.5t20 19.5t5.5 44v225q0 27 -4.5 37.5t-19 14t-51.5 3.5q-3 0 -3 6t3 6q43 0 58.5 9.5t15.5 35.5q0 160 55.5 234t154.5 74q51 0 80.5 -15t29.5 -36q0 -13 -8.5 -20t-21.5 -7t-21.5 6.5
t-19.5 20.5q-15 18 -29 27.5t-39 9.5q-61 0 -95.5 -66.5t-34.5 -206.5v-358q0 -31 5.5 -45t23.5 -19t58 -5q2 0 2 -6t-2 -6l-58 1q-18 1 -56 1l-55 -1q-14 -1 -39 -1q-3 0 -3 6zM599 6q0 6 2 6q29 0 42.5 5t18.5 19.5t5 44.5v189q0 37 -7 53t-25 16q-17 0 -49 -15h-1
q-5 0 -6 5t3 7l125 59l2 1q3 0 5 -2.5t2 -5.5q0 -6 -1 -39.5t-1 -77.5v-190q0 -30 4.5 -44.5t18 -19.5t42.5 -5q3 0 3 -6t-3 -6q-23 0 -36 1l-53 1l-52 -1q-14 -1 -37 -1q-2 0 -2 6z" />
    <glyph glyph-name="longs_longs_j.liga" unicode="&#x17f;&#x17f;j" horiz-adv-x="806" 
d="M30 6q0 6 3 6q31 0 45.5 5.5t20 19.5t5.5 44v225q0 27 -4.5 37.5t-19 14t-51.5 3.5q-3 0 -3 6t3 6q43 0 58 9.5t16 35.5q6 132 67 202.5t165 70.5q75 0 130 -36l-26 -62q-27 38 -62 60t-76 22q-68 0 -108.5 -61t-40.5 -175v-358q0 -31 7 -45t27.5 -19t66.5 -5q2 0 2 -6
t-2 -6l-64 1q-20 1 -62 1l-55 -1q-14 -1 -39 -1q-3 0 -3 6zM311 6q0 6 3 6q31 0 45.5 5.5t20 19.5t5.5 44v225q0 27 -4.5 37.5t-19 14t-51.5 3.5q-3 0 -3 6t3 6q43 0 58.5 9.5t15.5 35.5q0 160 55.5 234t154.5 74q51 0 80.5 -15t29.5 -36q0 -13 -8.5 -20t-21.5 -7t-21.5 6.5
t-19.5 20.5q-15 18 -29 27.5t-39 9.5q-61 0 -95.5 -66.5t-34.5 -206.5v-358q0 -31 5.5 -45t23.5 -19t58 -5q2 0 2 -6t-2 -6l-58 1q-18 1 -56 1l-55 -1q-14 -1 -39 -1q-3 0 -3 6zM573.5 -270.5q-2.5 5.5 -0.5 6.5q49 21 69 64t20 129v341q0 37 -7 53t-25 16q-16 0 -48 -15h-1
q-5 0 -6.5 5t2.5 7l125 59q1 1 3 1t4 -2.5t2 -5.5q0 -6 -1 -39.5t-1 -77.5v-319q0 -67 -12 -109.5t-40 -69.5t-79 -48q-2 -1 -4.5 4.5z" />
    <glyph glyph-name="longs_longs_k.liga" unicode="&#x17f;&#x17f;k" horiz-adv-x="1077" 
d="M30 6q0 6 3 6q31 0 45.5 5.5t20 19.5t5.5 44v225q0 27 -4.5 37.5t-19 14t-51.5 3.5q-3 0 -3 6t3 6q43 0 58 9.5t16 35.5q6 132 67 202.5t165 70.5q75 0 130 -36l-26 -62q-27 38 -62 60t-76 22q-68 0 -108.5 -61t-40.5 -175v-358q0 -31 7 -45t27.5 -19t66.5 -5q2 0 2 -6
t-2 -6l-64 1q-20 1 -62 1l-55 -1q-14 -1 -39 -1q-3 0 -3 6zM311 6q0 6 3 6q31 0 45.5 5.5t20 19.5t5.5 44v225q0 27 -4.5 37.5t-19 14t-51.5 3.5q-3 0 -3 6t3 6q43 0 59 9.5t16 35.5q0 156 50.5 232t151.5 76q43 0 75.5 -12t52.5 -33l-32 -56q-43 86 -120 86
q-67 0 -98.5 -63.5t-31.5 -208.5v-358q0 -31 7 -45t27.5 -19t66.5 -5q2 0 2 -6t-2 -6l-64 1q-20 1 -62 1l-55 -1q-14 -1 -39 -1q-3 0 -3 6zM862 6q0 6 3 6q27 0 39.5 4.5t12.5 14.5q0 9 -9 22l-128 177l41 30l128 -179q48 -69 117 -69q2 0 2 -6t-2 -6q-23 0 -37 1l-52 1
l-71 -1q-15 -1 -41 -1q-3 0 -3 6zM611 6q0 6 2 6q29 0 42.5 5t18.5 19.5t5 44.5v582q15 5 25 23.5t10 40.5q0 3 5.5 3t5.5 -3v-646q0 -30 5 -44.5t18.5 -19.5t42.5 -5q2 0 2 -6t-2 -6q-23 0 -36 1l-53 1l-52 -1q-14 -1 -37 -1q-2 0 -2 6zM708 182l162 126q34 25 34 43
q0 23 -63 23q-2 0 -2 6t2 6q27 0 42 -1l71 -1l65 1q13 1 35 1q3 0 3 -6t-3 -6q-75 0 -166 -69l-175 -133z" />
    <glyph glyph-name="longs_longs_l.liga" unicode="&#x17f;&#x17f;l" horiz-adv-x="825" 
d="M30 6q0 6 3 6q31 0 45.5 5.5t20 19.5t5.5 44v225q0 27 -4.5 37.5t-19 14t-51.5 3.5q-3 0 -3 6t3 6q43 0 58 9.5t16 35.5q6 132 67 202.5t165 70.5q75 0 130 -36l-26 -62q-27 38 -62 60t-76 22q-68 0 -108.5 -61t-40.5 -175v-358q0 -31 7 -45t27.5 -19t66.5 -5q2 0 2 -6
t-2 -6l-64 1q-20 1 -62 1l-55 -1q-14 -1 -39 -1q-3 0 -3 6zM311 6q0 6 3 6q31 0 45.5 5.5t20 19.5t5.5 44v225q0 27 -4.5 37.5t-19 14t-51.5 3.5q-3 0 -3 6t3 6q43 0 58 9.5t16 35.5q5 161 55 234.5t144 73.5q42 0 76.5 -12t55.5 -33l-32 -56q-26 46 -57 66t-69 20
q-60 0 -92 -63.5t-32 -208.5v-358q0 -31 7 -45t27.5 -19t66.5 -5q2 0 2 -6t-2 -6l-64 1q-20 1 -62 1l-55 -1q-14 -1 -39 -1q-3 0 -3 6zM613 6q0 6 3 6q28 0 41.5 5.5t18.5 19.5t5 44v582q16 5 26.5 23.5t10.5 40.5q0 3 6 3t6 -3v-646q0 -30 4.5 -44.5t18 -19.5t43.5 -5
q2 0 2 -6t-2 -6q-23 0 -37 1l-53 1l-54 -1q-13 -1 -36 -1q-3 0 -3 6z" />
    <glyph glyph-name="longs_longs_thorn.liga" unicode="&#x17f;&#x17f;&#xfe;" horiz-adv-x="1076" 
d="M30 6q0 6 3 6q31 0 45.5 5.5t20 19.5t5.5 44v225q0 27 -4.5 37.5t-19 14t-51.5 3.5q-3 0 -3 6t3 6q43 0 58 9.5t16 35.5q6 132 67 202.5t165 70.5q75 0 130 -36l-26 -62q-27 38 -62 60t-76 22q-68 0 -108.5 -61t-40.5 -175v-358q0 -31 7 -45t27.5 -19t66.5 -5q2 0 2 -6
t-2 -6l-64 1q-20 1 -62 1l-55 -1q-14 -1 -39 -1q-3 0 -3 6zM311 6q0 6 3 6q31 0 45.5 5.5t20 19.5t5.5 44v225q0 27 -4.5 37.5t-19 14t-51.5 3.5q-3 0 -3 6t3 6q43 0 58 9.5t16 35.5q5 158 54 233t149 75q43 0 75.5 -12t52.5 -33l-32 -56q-43 86 -120 86q-67 0 -98.5 -63.5
t-31.5 -208.5v-358q0 -31 7 -45t27.5 -19t66.5 -5q2 0 2 -6t-2 -6l-64 1q-20 1 -62 1l-55 -1q-14 -1 -39 -1q-3 0 -3 6zM599 -269q0 6 2 6q28 0 42 5.5t19 19.5t5 44v857q16 5 26.5 23.5t10.5 40.5q0 3 6 3t6 -3v-921q0 -30 7.5 -44t28 -19.5t65.5 -5.5q2 0 2 -6t-2 -6
q-35 0 -54 1l-71 1l-53 -1q-14 -1 -38 -1q-2 0 -2 6zM755.5 -2.5q-29.5 10.5 -62.5 37.5l9 53q31 -39 67 -60t89 -21q35 0 64 21.5t45.5 61.5t16.5 94q0 86 -37.5 134t-95.5 48q-42 0 -76.5 -23t-72.5 -65l-8 7q51 59 98 86.5t95 27.5q41 0 76 -22t55.5 -63.5t20.5 -98.5
q0 -74 -34 -125.5t-84 -77t-96 -25.5q-40 0 -69.5 10.5z" />
    <glyph glyph-name="fi.liga" unicode="fi" horiz-adv-x="568" 
d="M30 6q0 6 3 6q31 0 45.5 5.5t20 19.5t5.5 44v225q0 27 -4.5 37.5t-19 14t-51.5 3.5q-3 0 -3 6t3 6q43 0 58 9.5t16 35.5q5 159 66.5 233.5t167.5 74.5q52 0 86.5 -22.5t34.5 -52.5q0 -13 -7 -20.5t-19 -7.5q-13 0 -20 7.5t-17 23.5q-15 26 -33.5 41t-58.5 15
q-70 0 -110.5 -67t-40.5 -204v-358q0 -31 7 -45t27.5 -19t66.5 -5q2 0 2 -6t-2 -6l-64 1q-20 1 -62 1l-55 -1q-14 -1 -39 -1q-3 0 -3 6zM144 358v16q56 0 141 10q3 0 5 -7.5t2 -16.5t-4 -18t-6 -7q-69 23 -138 23zM348 6q0 6 3 6q29 0 42 5t18 19.5t5 44.5v189q0 37 -7 53
t-25 16q-16 0 -48 -15h-1q-5 0 -6.5 5t2.5 7l125 59q1 1 3 1t4 -2.5t2 -5.5q0 -6 -1 -39.5t-1 -77.5v-190q0 -30 5 -44.5t18.5 -19.5t42.5 -5q2 0 2 -6t-2 -6q-23 0 -37 1l-52 1l-53 -1q-13 -1 -36 -1q-3 0 -3 6z" />
    <glyph glyph-name="fl.liga" unicode="fl" horiz-adv-x="567" 
d="M30 6q0 6 3 6q31 0 45.5 5.5t20 19.5t5.5 44v225q0 27 -4.5 37.5t-19 14t-51.5 3.5q-3 0 -3 6t3 6q43 0 58 9.5t16 35.5q5 161 58 234.5t152 73.5q46 0 83.5 -12t60.5 -33l-31 -56q-29 46 -62.5 66t-75.5 20q-65 0 -100.5 -63.5t-35.5 -208.5v-358q0 -31 7 -45t27.5 -19
t66.5 -5q2 0 2 -6t-2 -6l-64 1q-20 1 -62 1l-55 -1q-14 -1 -39 -1q-3 0 -3 6zM144 358v16q56 0 141 10q3 0 5 -8t2 -17t-4 -17.5t-6 -6.5q-69 23 -138 23zM355 6q0 6 3 6q29 0 42 5t18 19.5t5 44.5v582q16 5 27 23.5t11 40.5q0 3 6 3t6 -3v-646q0 -30 4.5 -44.5t18 -19.5
t42.5 -5q3 0 3 -6t-3 -6q-22 0 -36 1l-54 1l-54 -1q-13 -1 -36 -1q-3 0 -3 6z" />
    <glyph glyph-name=".notdef" horiz-adv-x="501" 
d="M94 725h317v-1000h-317v1000zM233 626v-38h-66v-32h166v32h-66v38h66v32h-165v-32h65zM333 426v34h-66v69h-100v-103h166zM200 495h33v-35h-33v35zM233 365v-36h-66v-34h100v70h66v33h-166v-33h66zM167 273v-34h166v99h-32v-65h-134zM267 160v24h34v-48h-101v80h-33v-113
h166v113h-100v-56h34zM333 -70v113h-166v-113h166zM200 11h101v-48h-101v48zM237 -126l-70 -47v-33h166v33h-101l69 47h32v34h-166v-34h70z" />
    <glyph glyph-name=".null" horiz-adv-x="0" 
 />
    <glyph glyph-name="nonmarkingreturn" horiz-adv-x="333" 
 />
    <glyph glyph-name="space" unicode=" " horiz-adv-x="234" 
 />
    <glyph glyph-name="exclam" unicode="!" horiz-adv-x="243" 
d="M94.5 626.5q12.5 2.5 27.5 2.5t27.5 -2.5t11.5 -5.5q-15 -87 -22 -186t-14 -246q0 -2 -5 -2t-5 2q-5 144 -11.5 244.5t-21.5 187.5q0 3 12.5 5.5zM89 -0.5q-11 10.5 -11 28.5q0 17 11 27t29 10q19 0 29 -10t10 -27q0 -18 -10 -28.5t-29 -10.5q-18 0 -29 10.5z" />
    <glyph glyph-name="quotedbl" unicode="&#x22;" horiz-adv-x="278" 
d="M63.5 627q16.5 9 34.5 12t17 -2l-50 -271q-1 -2 -5.5 -3t-4.5 2l-8 244q0 9 16.5 18zM203.5 627q16.5 9 34.5 12t17 -2l-50 -271q-1 -2 -5.5 -3t-4.5 2l-8 244q0 9 16.5 18z" />
    <glyph glyph-name="numbersign" unicode="#" horiz-adv-x="526" 
d="M128 -81q-8 0 -16 2t-7 4l99 557q0 2 7 2q8 0 17 -2.5t8 -5.5l-98 -554q0 -3 -10 -3zM315 -81q-8 0 -16 2t-7 4l99 557q0 2 7 2q8 0 17 -2.5t8 -5.5l-98 -554q0 -3 -10 -3zM59.5 83.5q-1.5 6.5 -1.5 13.5t1.5 12.5t2.5 5.5h366q2 0 3.5 -6t1.5 -13t-1.5 -13t-3.5 -6h-365
q-2 0 -3.5 6.5zM94.5 282.5q-1.5 6.5 -1.5 13.5q0 6 1 11.5t3 5.5h366q2 0 3.5 -5.5t1.5 -12.5t-1.5 -13t-3.5 -6h-365q-2 0 -3.5 6.5z" />
    <glyph glyph-name="dollar" unicode="$" horiz-adv-x="408" 
d="M205 567q3 2 7 2t7 -2t3 -6v-663q0 -7 -10 -7t-10 7v663q0 4 3 6zM135 330.5q16 -22.5 39 -37.5t63 -36t64.5 -37t41.5 -41t17 -59q0 -56 -44 -94t-121 -38q-64 0 -112 34q-5 3 -6.5 7t-2.5 12l-12 95q-1 4 5 5t7 -3q11 -58 52 -97t92 -39q37 0 65 21t28 67q0 33 -16 57
t-39.5 40.5t-62.5 37.5t-63 37t-40 40.5t-16 57.5q0 57 42 88.5t103 31.5q46 0 93 -23q10 -5 12 -7.5t3 -8.5l9 -85q0 -4 -5.5 -5t-6.5 3q-7 43 -42 78t-81 35q-38 0 -60 -23t-22 -60q0 -31 16 -53.5z" />
    <glyph glyph-name="percent" unicode="%" horiz-adv-x="574" 
d="M63.5 340.5q-34.5 37.5 -34.5 92.5q0 53 34.5 90t86.5 37t85 -37.5t33 -92.5q0 -54 -33.5 -90.5t-84.5 -36.5q-52 0 -86.5 37.5zM203.5 340.5q11.5 27.5 11.5 82.5q0 62 -18 94.5t-53 32.5q-36 0 -49 -30t-13 -84q0 -123 75 -123q35 0 46.5 27.5zM340.5 32.5
q-34.5 37.5 -34.5 92.5q0 53 34.5 90.5t86.5 37.5t85 -38t33 -92q0 -55 -33.5 -91.5t-84.5 -36.5q-52 0 -86.5 37.5zM480.5 33.5q11.5 27.5 11.5 82.5q0 126 -71 126q-35 0 -48.5 -30t-13.5 -83q0 -123 75 -123q35 0 46.5 27.5zM103 -6q-4 0 -12.5 5t-7.5 7l371 544q0 1 2 1
q5 0 13 -5.5t7 -7.5l-371 -543z" />
    <glyph glyph-name="ampersand" unicode="&#x26;" horiz-adv-x="692" 
d="M346 602q-24 25 -66 25q-41 0 -63.5 -25t-22.5 -77q0 -98 76.5 -202.5t198.5 -196.5q62 -46 120.5 -76t100.5 -38q4 -1 3.5 -6.5t-3.5 -5.5h-94q-56 0 -170 96q-80 63 -148 140t-104 149q-28 64 -28 109q0 40 20.5 75t56.5 56t82 21q45 0 79 -22t34 -77
q0 -39 -19.5 -70.5t-49 -55.5t-77.5 -56q-51 -34 -81.5 -59t-51.5 -59.5t-21 -78.5q0 -43 21.5 -78.5t58.5 -56t83 -20.5q63 0 115.5 38t83 98.5t30.5 125.5q0 31 -13.5 46.5t-55.5 15.5q-3 0 -3.5 6t3.5 6l202 1q4 0 4 -6t-4 -6q-35 0 -52.5 -6t-24.5 -17t-13 -32
q-34 -119 -106 -207t-203 -88q-60 0 -100.5 21t-60 55.5t-19.5 74.5q0 45 22 81.5t53.5 63.5t84.5 65q49 34 78 58.5t48.5 56t19.5 68.5q0 45 -24 70z" />
    <glyph glyph-name="quotesingle" unicode="'" horiz-adv-x="138" 
d="M63.5 627q16.5 9 34.5 12t17 -2l-50 -271q-1 -2 -5.5 -3t-4.5 2l-8 244q0 9 16.5 18z" />
    <glyph glyph-name="parenleft" unicode="(" horiz-adv-x="309" 
d="M124 559q54 113 150 166q2 1 4 -1.5t0 -4.5q-77 -71 -113 -174t-36 -241t36 -241t113 -174q2 -1 0 -4t-4 -2q-97 54 -150.5 166.5t-53.5 254.5t54 255z" />
    <glyph glyph-name="parenright" unicode=")" horiz-adv-x="309" 
d="M185 49q-54 -113 -150 -166q-2 -1 -4 1.5t0 4.5q77 71 113 174t36 241t-36 241t-113 174q-2 1 0 4t4 2q97 -54 150.5 -166.5t53.5 -254.5t-54 -255z" />
    <glyph glyph-name="asterisk" unicode="*" horiz-adv-x="448" 
d="M116 382q-11 0 -26 4.5t-24.5 10t-5.5 7.5l146 87l2 1q2 0 4.5 -3t1.5 -4l-83 -98q-4 -5 -15 -5zM236 486.5q4 3.5 5 1.5l69 -110q5 -8 -4 -25t-21.5 -30t-13.5 -8l-38 166q-1 2 3 5.5zM71 603q0 14 2 23.5t5 6.5l129 -113q3 -1 1 -5.5t-4 -3.5l-120 48q-13 5 -13 44z
M247.5 507.5q-1.5 4.5 0.5 5.5l126 31q9 2 22.5 -11.5t22 -29t2.5 -15.5l-170 15q-2 0 -3.5 4.5zM252.5 675q17.5 9 35 12t15.5 -2l-67 -156q-1 -3 -5.5 -3t-4.5 3l9 128q0 9 17.5 18z" />
    <glyph glyph-name="plus" unicode="+" horiz-adv-x="398" 
d="M30.5 177.5q-1.5 6.5 -1.5 13.5q0 6 1 11.5t3 5.5h331q2 0 3.5 -5.5t1.5 -12.5t-1.5 -13t-3.5 -6h-330q-2 0 -3.5 6.5zM211 21.5q-7 -1.5 -15 -1.5q-16 0 -16 3v331q0 2 6 3.5t13 1.5t13 -1.5t6 -3.5v-329q0 -2 -7 -3.5z" />
    <glyph glyph-name="comma" unicode="," horiz-adv-x="222" 
d="M147.5 40.5q16.5 -21.5 16.5 -63.5t-17.5 -80t-51.5 -76q-1 -1 -3 -1q-3 0 -5 3t0 5q21 31 28 57.5t7 60.5q0 27 -8 44t-21 30l38 7q1 -17 -8.5 -26t-25.5 -9q-17 0 -26.5 9.5t-9.5 25.5q0 35 41 35q29 0 45.5 -21.5z" />
    <glyph glyph-name="hyphen" unicode="-" horiz-adv-x="323" 
d="M28.5 174.5q-1.5 7.5 -1.5 15.5q0 17 3 17l261 47q2 1 3.5 -5.5t1.5 -13.5t-1.5 -13t-3.5 -7l-259 -47q-2 -1 -3.5 6.5z" />
    <glyph glyph-name="period" unicode="." horiz-adv-x="195" 
d="M69 -0.5q-11 10.5 -11 28.5q0 17 11 27t29 10q19 0 29 -10t10 -27q0 -18 -10 -28.5t-29 -10.5q-18 0 -29 10.5z" />
    <glyph glyph-name="slash" unicode="/" horiz-adv-x="339" 
d="M43 -161.5q-18 5.5 -17 9.5l252 882q2 5 19.5 -1t15.5 -11l-251 -881q-1 -4 -19 1.5z" />
    <glyph glyph-name="zero" unicode="0" 
d="M135.5 14q-46.5 27 -72.5 74.5t-26 107.5q0 59 26 105t72.5 72t105.5 26q58 0 103 -26.5t70.5 -73.5t25.5 -106t-25.5 -106t-71 -73.5t-103.5 -26.5t-104.5 27zM347.5 48q32.5 49 32.5 133q0 100 -43 153t-107 53q-63 0 -98.5 -51t-35.5 -132q0 -58 19 -105t54 -73.5
t82 -26.5q64 0 96.5 49z" />
    <glyph glyph-name="one" unicode="1" horiz-adv-x="332" 
d="M136.5 350q-6.5 14 -24.5 19t-58 5q-3 0 -3 6t3 6q29 0 46 -1l66 -1l65 1q17 1 47 1q3 0 3 -6t-3 -6q-38 0 -56.5 -5.5t-25.5 -19.5t-7 -44v-224q0 -31 6.5 -45t24.5 -19t58 -5q3 0 3 -6t-3 -6q-29 0 -46 1l-66 1l-65 -1q-17 -1 -47 -1q-3 0 -3 6t3 6q38 0 56.5 5.5
t25.5 19.5t7 44v224q0 31 -6.5 45z" />
    <glyph glyph-name="two" unicode="2" horiz-adv-x="402" 
d="M175.5 128q49.5 47 72 85t22.5 75q0 42 -26 66.5t-66 24.5t-70 -30.5t-46 -90.5q0 -1 -4 -1q-9 0 -8 4l38 147q0 2 4 2q3 0 5.5 -1.5t1.5 -2.5q-1 -4 -1 -10q0 -16 15 -16q9 0 30 7q15 4 34 8t37 4q50 0 79.5 -27.5t29.5 -72.5q0 -34 -20.5 -68t-66.5 -77t-128 -106
q-4 -3 -2.5 -5t6.5 -2q117 0 160.5 3.5t61.5 17t26 48.5q1 2 6.5 1.5t5.5 -2.5l-14 -98q0 -4 -2.5 -7.5t-6.5 -3.5h-305q-4 0 -7 4t0 8q89 69 138.5 116z" />
    <glyph glyph-name="three" unicode="3" horiz-adv-x="388" 
d="M53.5 -270.5q-2.5 5.5 1.5 6.5q122 35 175 104t53 141q0 53 -27 90.5t-86 37.5q-28 0 -51 -6q-3 -1 -5 5t2 7q80 20 112.5 56t32.5 97q0 51 -23 81t-71 30q-44 0 -74 -29t-47 -92q-1 -1 -4 -1q-9 0 -8 4l37 146q2 2 4 2q3 0 6 -1.5t2 -2.5q-2 -8 -2 -11q0 -17 17 -17
q11 0 30 8q21 7 37 10.5t35 3.5q54 0 85 -33.5t31 -80.5q0 -58 -38.5 -105.5t-102.5 -60.5l18 12q73 0 112.5 -41t39.5 -98q0 -50 -31.5 -101.5t-95.5 -96t-158 -69.5q-4 -1 -6.5 4.5z" />
    <glyph glyph-name="four" unicode="4" horiz-adv-x="450" 
d="M20 12q-3 4 1 8l287 376q2 2 6 2q3 0 6 -1.5t3 -4.5v-550q0 -11 -8 -14l-32 -16l-6 -2q-3 0 -3 8v507l20 13l-225 -294q-3 -3 -1.5 -5t6.5 -2q111 0 275 4l63 2q2 0 3.5 -6.5t1.5 -14.5t-1.5 -14.5t-3.5 -6.5q-78 4 -155.5 5.5t-228.5 1.5q-5 0 -8 4z" />
    <glyph glyph-name="five" unicode="5" horiz-adv-x="409" 
d="M283.5 146q65.5 -50 65.5 -137q0 -57 -28.5 -103.5t-90 -90t-162.5 -90.5h-1q-4 0 -6.5 4.5t1.5 6.5q127 61 178.5 123t51.5 133q0 83 -58 129t-166 46q-5 0 -8 3.5t-2 8.5l32 178q1 7 3 8.5t10 2.5q126 15 169 21t55.5 12.5t17.5 21.5q1 3 6.5 2.5t4.5 -4.5l-20 -64
q-4 -12 -9.5 -15t-18.5 -3l-189 -4q-13 0 -15 -15l-26 -148v24q140 0 205.5 -50z" />
    <glyph glyph-name="six" unicode="6" horiz-adv-x="465" 
d="M396 246.5q32 -35.5 32 -87.5q0 -47 -26.5 -86.5t-72 -62.5t-99.5 -23q-84 0 -132.5 58t-48.5 163q0 93 42 183t121.5 161.5t187.5 108.5q4 1 6 -4t-1 -7q-97 -43 -165 -112.5t-102 -151t-34 -160.5q0 -95 41.5 -158t112.5 -63q52 0 83.5 34.5t31.5 93.5q0 55 -27 89.5
t-79 34.5q-28 0 -52 -11.5t-55 -39.5q-1 -1 -3 -1q-3 0 -5.5 3t-1.5 5q55 69 146 69q68 0 100 -35.5z" />
    <glyph glyph-name="seven" unicode="7" horiz-adv-x="429" 
d="M147.5 -237q-7.5 -6 -9.5 -7l-42 -31q-2 -1 -5 2t-2 5l268 606q3 7 -5 7q-150 0 -208 -4t-77.5 -17t-29.5 -47q0 -2 -4 -2q-3 0 -5.5 1.5t-1.5 3.5l32 133q1 2 7 1.5t5 -2.5q-1 -4 -1 -10q0 -10 9.5 -13t38.5 -3h265q4 0 7.5 -4.5t1.5 -8.5l-232 -593q-4 -11 -11.5 -17z
" />
    <glyph glyph-name="eight" unicode="8" horiz-adv-x="489" 
d="M323 392.5q16 26.5 16 60.5q0 48 -29 77t-74 29q-37 0 -61 -20t-24 -56q0 -30 18 -53.5t44 -40.5t72 -42q54 -28 87 -50.5t56 -56t23 -79.5q0 -49 -28.5 -89t-76 -62.5t-104.5 -22.5t-101 22.5t-68 60t-24 79.5q0 47 25.5 90t66 74.5t82.5 46.5l6 -8q-59 -26 -91.5 -72
t-32.5 -105q0 -44 21 -83.5t59 -63.5t85 -24q57 0 94.5 34t37.5 94q0 48 -23 82.5t-56 57t-86 48.5q-48 26 -73 42t-42.5 39.5t-17.5 54.5q0 38 24 64.5t60 40t72 13.5q38 0 67.5 -15.5t45.5 -39.5t16 -50q0 -35 -28.5 -70t-82.5 -66l-5 6q34 27 50 53.5z" />
    <glyph glyph-name="nine" unicode="9" horiz-adv-x="465" 
d="M99 130q-32 20 -47 50.5t-15 63.5q0 45 24 80t65.5 55t91.5 20q60 0 104.5 -29.5t69 -82.5t24.5 -123q0 -91 -42 -179.5t-121.5 -157.5t-187.5 -102q-3 -1 -5.5 4t1.5 7q96 38 164 105.5t102 147t34 155.5q0 54 -16.5 108.5t-52.5 91.5t-91 37q-50 0 -79.5 -31.5
t-29.5 -87.5q0 -54 30 -90.5t86 -36.5q28 0 49 8.5t48 30.5q1 1 3 1q3 0 6 -3t2 -5q-51 -57 -136 -57q-49 0 -81 20z" />
    <glyph glyph-name="colon" unicode=":" horiz-adv-x="195" 
d="M69 -0.5q-11 10.5 -11 28.5q0 17 11 27t29 10q19 0 29 -10t10 -27q0 -18 -10 -28.5t-29 -10.5q-18 0 -29 10.5zM69 280.5q-11 10.5 -11 28.5q0 17 11 27t29 10q19 0 29 -10t10 -27q0 -18 -10 -28.5t-29 -10.5q-18 0 -29 10.5z" />
    <glyph glyph-name="semicolon" unicode=";" horiz-adv-x="222" 
d="M147.5 40.5q16.5 -21.5 16.5 -63.5t-17.5 -80t-51.5 -76q-1 -1 -3 -1q-3 0 -5 3t0 5q21 31 28 57.5t7 60.5q0 27 -8 44t-21 30l38 7q1 -17 -8.5 -26t-25.5 -9q-17 0 -26.5 9.5t-9.5 25.5q0 35 41 35q29 0 45.5 -21.5zM71 280.5q-11 10.5 -11 28.5q0 17 11 27t29 10
q19 0 29 -10t10 -27q0 -18 -10 -28.5t-29 -10.5q-18 0 -29 10.5z" />
    <glyph glyph-name="less" unicode="&#x3c;" horiz-adv-x="407" 
d="M31 190q0 15 5 17l334 147q3 2 5 -2.5t2 -12.5q0 -19 -7 -23l-312 -133v15l312 -134q7 -3 7 -23q0 -19 -7 -16l-334 148q-5 3 -5 17z" />
    <glyph glyph-name="equal" unicode="=" horiz-adv-x="468" 
d="M30.5 107.5q-1.5 6.5 -1.5 13.5q0 6 1 11.5t3 5.5h401q2 0 3.5 -5.5t1.5 -12.5t-1.5 -13t-3.5 -6h-400q-2 0 -3.5 6.5zM30.5 247.5q-1.5 6.5 -1.5 13.5q0 6 1 11.5t3 5.5h401q2 0 3.5 -5.5t1.5 -12.5t-1.5 -13t-3.5 -6h-400q-2 0 -3.5 6.5z" />
    <glyph glyph-name="greater" unicode="&#x3e;" horiz-adv-x="407" 
d="M376 189q0 -14 -5 -17l-334 -147q-3 -1 -5 3.5t-2 11.5q0 8 2 15t5 8l312 133v-15l-312 134q-3 1 -5 8t-2 15t2 13t5 3l334 -148q5 -2 5 -17z" />
    <glyph glyph-name="question" unicode="?" horiz-adv-x="327" 
d="M122 600q-9 -13 -12 -35q-4 -18 -11 -28t-23 -10q-14 0 -22 9.5t-8 21.5q0 27 34 47t81 20q57 0 94 -31t37 -89q0 -42 -17.5 -69.5t-53.5 -63.5t-50 -63t-14 -61q0 -23 6 -55q1 -3 -4.5 -4t-6.5 2q-11 26 -18.5 61.5t-7.5 57.5q0 31 13 51.5t39 45.5q28 27 42.5 50
t14.5 60q0 43 -22 69.5t-56 26.5q-26 0 -35 -13zM117 -0.5q-11 10.5 -11 28.5q0 17 11 27t29 10q19 0 29 -10t10 -27q0 -18 -10 -28.5t-29 -10.5q-18 0 -29 10.5z" />
    <glyph glyph-name="at" unicode="@" horiz-adv-x="717" 
d="M434 228l14 13q-36 -84 -86.5 -138.5t-94.5 -54.5q-22 0 -36 14.5t-14 44.5q0 12 1 18q8 54 41 107.5t76.5 87.5t82.5 34q22 0 39 -12.5t19 -36.5l-29 19q9 2 19 13t12 24q2 2 8 2q12 0 10 -3l-41 -224q-4 -24 -4 -32q0 -18 8 -27t29 -9q29 0 57 20.5t46 58.5t18 89
q0 63 -32.5 116.5t-88.5 84.5t-124 31q-75 0 -132 -37t-87 -99t-30 -134q0 -78 35 -137.5t97.5 -92.5t143.5 -33q48 0 83.5 9.5t82.5 35.5h1q2 0 4.5 -3.5t0.5 -4.5q-86 -67 -203 -67q-80 0 -144.5 32.5t-102 93t-37.5 142.5q0 90 45 163t119 114t156 41q72 0 128 -30.5
t86.5 -82.5t30.5 -114q0 -55 -24 -104.5t-64.5 -79.5t-85.5 -30q-27 0 -40 16t-13 45q0 7 2 25zM348 109q32 28 57.5 72t35.5 88q2 10 2 16q0 20 -12 33t-35 13q-25 0 -54 -24.5t-51.5 -65.5t-29.5 -88q-3 -18 -3 -31q0 -41 30 -41q28 0 60 28z" />
    <glyph glyph-name="A" unicode="A" horiz-adv-x="698" 
d="M209 305h259l7 -18h-275zM698 6q0 -6 -4 -6q-18 0 -58 2q-38 2 -56 2q-21 0 -55 -2q-32 -2 -48 -2q-4 0 -4 6t4 6q41 0 59 7.5t18 25.5q0 14 -11 39l-226 486l19 17l-193 -464q-14 -34 -14 -56q0 -29 24 -42t75 -13q5 0 5 -6t-5 -6q-18 0 -52 2q-38 2 -66 2q-25 0 -59 -2
q-30 -2 -49 -2q-5 0 -5 6t5 6q28 0 47.5 10t37 36t37.5 74l209 503q2 3 6.5 3t5.5 -3l232 -498q23 -51 41 -77.5t35.5 -37t40.5 -10.5q4 0 4 -6z" />
    <glyph glyph-name="B" unicode="B" horiz-adv-x="549" 
d="M408 331q43 -22 67 -60t24 -86q0 -54 -25 -97t-69 -67.5t-97 -24.5q-34 0 -72 3q-14 1 -33 2t-43 1l-66 -1q-18 -1 -50 -1q-2 0 -2 6t2 6q40 0 58.5 5t25.5 19.5t7 44.5v463q0 30 -6.5 44t-25 19.5t-57.5 5.5q-3 0 -3 6t3 6l48 -1q40 -2 66 -2q18 0 34 1t28 2q32 3 55 3
q83 0 122.5 -37.5t39.5 -95.5q0 -55 -39 -95t-102 -56l11 9q56 0 99 -22zM213 611q-13 -4 -19.5 -19t-6.5 -50v-196l-30 8q43 -3 77 -3q79 0 115 37.5t36 99.5q0 56 -31.5 91.5t-99.5 35.5q-28 0 -41 -4zM404.5 50.5q36.5 38.5 36.5 109.5q0 76 -46.5 123.5t-125.5 48.5
q-61 2 -109 -5l27 11v-257q0 -27 8.5 -41.5t31.5 -21t67 -6.5q74 0 110.5 38.5z" />
    <glyph glyph-name="C" unicode="C" horiz-adv-x="687" 
d="M515 626.5q42 -9.5 89 -33.5q6 -4 7.5 -6.5t2.5 -15.5l12 -114q0 -3 -5.5 -3.5t-6.5 2.5q-22 83 -73 124.5t-134 41.5q-88 0 -154.5 -37t-103 -105.5t-36.5 -159.5q0 -85 40.5 -158.5t109 -117t146.5 -43.5q166 0 212 163q0 2 5 2q7 0 7 -3l-8 -106q-1 -12 -3 -15t-8 -7
q-52 -27 -97.5 -37.5t-108.5 -10.5q-104 0 -185.5 41.5t-127.5 117t-46 173.5q0 94 46 166t127.5 111.5t184.5 39.5q66 0 108 -9.5z" />
    <glyph glyph-name="D" unicode="D" horiz-adv-x="688" 
d="M232 -1q-14 1 -34.5 2t-45.5 1l-66 -1q-18 -1 -50 -1q-2 0 -2 6t2 6q39 0 57.5 5t25.5 19.5t7 44.5v463q0 30 -6.5 44t-25 19.5t-57.5 5.5q-2 0 -2 6t2 6l49 -1q42 -2 66 -2q35 0 71 3q44 2 60 2q105 0 186 -40t125.5 -109t44.5 -155q0 -97 -46.5 -171.5t-124.5 -115
t-171 -40.5q-29 0 -65 3zM436 43q65 34 101.5 100t36.5 158q0 88 -34.5 159t-99 112.5t-148.5 41.5q-44 0 -67.5 -5t-34.5 -20.5t-11 -46.5v-450q0 -30 9 -48t32 -26.5t67 -8.5q84 0 149 34z" />
    <glyph glyph-name="E" unicode="E" horiz-adv-x="533" 
d="M42 6q0 6 2 6q39 0 57.5 5t25 19.5t6.5 44.5v463q0 30 -6.5 44t-25 19.5t-57.5 5.5q-2 0 -2 6t2 6h396q9 0 9 -9l2 -121q0 -3 -5.5 -3t-5.5 3q0 51 -27 81t-71 30h-69q-38 0 -56 -5t-24.5 -19t-6.5 -44v-453q0 -29 6.5 -42.5t24 -18.5t56.5 -5h92q40 0 68.5 35t36.5 92
q0 3 6 2.5t6 -3.5q-9 -63 -9 -130q0 -8 -3.5 -11.5t-12.5 -3.5h-413q-2 0 -2 6zM382 298q-19 18 -67 18h-154v19h157q46 0 64 15.5t18 53.5q0 2 6 2t6 -2l-1 -79q0 -29 1 -43l1 -47q0 -2 -6 -2t-6 2q0 45 -19 63z" />
    <glyph glyph-name="F" unicode="F" horiz-adv-x="506" 
d="M42 6q0 6 2 6q39 0 57.5 5t25 19.5t6.5 44.5v463q0 30 -6.5 44t-25 19.5t-57.5 5.5q-2 0 -2 6t2 6h396q9 0 9 -9l2 -121q0 -3 -5.5 -3t-5.5 3q0 51 -27 81t-71 30h-69q-37 0 -55 -5t-25 -18t-7 -40v-458q0 -32 9 -46.5t34.5 -20.5t81.5 -6q3 0 3 -6t-3 -6q-41 0 -64 1
l-87 1l-66 -1q-18 -1 -50 -1q-2 0 -2 6zM367.5 286q-21.5 18 -76.5 18h-130v19h134q51 0 72 15.5t21 53.5q0 2 6 2t6 -2l-1 -79q0 -29 1 -43l1 -47q0 -2 -6 -2t-6 2q0 45 -21.5 63z" />
    <glyph glyph-name="G" unicode="G" horiz-adv-x="709" 
d="M215.5 32.5q-80.5 44.5 -123.5 120t-43 165.5q0 97 48.5 169t133 110.5t189.5 38.5q55 0 101 -11t78 -31q7 -4 8 -7t2 -15l12 -112q0 -3 -5.5 -4t-6.5 2q-22 83 -69.5 123t-133.5 40q-83 0 -149 -35.5t-104 -101t-38 -153.5q0 -83 34.5 -158t106 -123t176.5 -48
q74 0 104.5 28.5t30.5 94.5q0 52 -7 72.5t-30 27.5t-80 7q-6 0 -6 8q0 3 1.5 5.5t3.5 2.5q77 -5 124 -5q45 0 96 3q2 0 3.5 -2.5t1.5 -4.5q0 -7 -5 -7q-26 1 -37 -6.5t-14 -30.5t-3 -80q0 -45 3.5 -64t3.5 -24q0 -6 -2 -8t-9 -4q-121 -27 -206 -27q-109 0 -189.5 44.5z" />
    <glyph glyph-name="H" unicode="H" horiz-adv-x="758" 
d="M571.5 586.5q-6.5 14.5 -25 20.5t-57.5 6q-3 0 -3 6t3 6l47 -1q42 -2 69 -2q25 0 67 2l48 1q3 0 3 -6t-3 -6q-39 0 -57.5 -5.5t-25.5 -19.5t-7 -44v-463q0 -30 7 -44.5t25.5 -19.5t57.5 -5q3 0 3 -6t-3 -6q-31 0 -48 1l-67 1l-69 -1q-17 -1 -47 -1q-3 0 -3 6t3 6
q40 0 58 5t24.5 19t6.5 45v461q0 30 -6.5 44.5zM150 335h450v-19h-450v19zM119.5 588q-6.5 14 -25 19.5t-57.5 5.5q-2 0 -2 6t2 6l49 -1q42 -2 66 -2q27 0 69 2l47 1q2 0 2 -6t-2 -6q-39 0 -57.5 -6t-25 -20.5t-6.5 -44.5v-461q0 -31 6.5 -45t24.5 -19t58 -5q2 0 2 -6t-2 -6
q-30 0 -48 1l-68 1l-66 -1q-18 -1 -50 -1q-2 0 -2 6t2 6q39 0 57.5 5t25.5 19.5t7 44.5v463q0 30 -6.5 44z" />
    <glyph glyph-name="I" unicode="I" horiz-adv-x="330" 
d="M198.5 36q6.5 -14 24.5 -19t58 -5q2 0 2 -6t-2 -6q-30 0 -47 1l-70 1l-67 -1q-18 -1 -49 -1q-3 0 -3 6t3 6q39 0 57.5 5t25.5 19.5t7 44.5v463q0 30 -7 44t-25.5 19.5t-57.5 5.5q-3 0 -3 6t3 6l49 -1q42 -2 67 -2q28 0 70 2l47 1q2 0 2 -6t-2 -6q-39 0 -57.5 -6
t-25 -20.5t-6.5 -44.5v-461q0 -31 6.5 -45z" />
    <glyph glyph-name="J" unicode="J" horiz-adv-x="318" 
d="M277 619q0 -6 -2 -6q-34 0 -50 -6t-21.5 -20.5t-5.5 -44.5v-576q0 -96 -43.5 -153t-127.5 -57q-33 0 -51.5 10.5t-18.5 27.5q0 13 7.5 21t21.5 8q15 0 23 -6t18 -18q8 -12 16 -18t22 -6q39 0 59 43.5t20 138.5v587q0 30 -7.5 44t-28.5 19.5t-66 5.5q-2 0 -2 6t2 6l57 -1
q46 -2 71 -2t63 2l42 1q2 0 2 -6z" />
    <glyph glyph-name="K" unicode="K" horiz-adv-x="649" 
d="M119.5 588q-6.5 14 -25 19.5t-57.5 5.5q-2 0 -2 6t2 6l49 -1q42 -2 66 -2q27 0 69 2l47 1q2 0 2 -6t-2 -6q-39 0 -57.5 -6t-25 -20.5t-6.5 -44.5v-461q0 -31 6.5 -45t24.5 -19t58 -5q2 0 2 -6t-2 -6q-30 0 -48 1l-68 1l-66 -1q-18 -1 -50 -1q-2 0 -2 6t2 6q39 0 57.5 5
t25.5 19.5t7 44.5v463q0 30 -6.5 44zM209 349l42 30l144 -181q76 -95 116 -134t61 -45.5t63 -6.5q3 0 3 -6t-3 -6h-112q-35 0 -42 4t-36.5 46t-71.5 95zM433 597q0 9 -13.5 12.5t-44.5 3.5q-2 0 -2 6t2 6l42 -1q38 -2 71 -2q31 0 65 2l35 1q3 0 3 -6t-3 -6
q-41 0 -84.5 -15.5t-81.5 -53.5l-256 -249l-24 -1l257 256q34 34 34 47z" />
    <glyph glyph-name="L" unicode="L" horiz-adv-x="530" 
d="M184.5 42.5q6.5 -13.5 24 -18.5t55.5 -5h128q99 0 117 127q0 3 5.5 2.5t5.5 -3.5q-9 -79 -9 -130q0 -8 -3 -11.5t-12 -3.5h-460q-2 0 -2 6t2 6q39 0 57.5 5t25 19.5t6.5 44.5v463q0 30 -6.5 44t-25 19.5t-57.5 5.5q-2 0 -2 6t2 6l49 -1q42 -2 66 -2q27 0 69 2l47 1
q2 0 2 -6t-2 -6q-39 0 -57.5 -5.5t-25 -20t-6.5 -44.5v-458q0 -29 6.5 -42.5z" />
    <glyph glyph-name="M" unicode="M" horiz-adv-x="830" 
d="M130 602l22 -2l-9 -496q-1 -52 17 -72t67 -20q2 0 2 -6t-2 -6q-28 0 -43 1l-54 1l-49 -1q-13 -1 -39 -1q-2 0 -2 6t2 6q42 0 59.5 20.5t18.5 71.5zM810 6q0 -6 -3 -6q-31 0 -49 1l-67 1l-62 -1q-15 -1 -42 -1q-2 0 -2 6t2 6q35 0 51.5 5.5t22 19.5t3.5 44l-18 493l29 37
l-262 -604q-2 -4 -8 -4q-5 0 -9 4l-244 535q-16 37 -41.5 54t-61.5 17q-2 0 -2 6t2 6l34 -1q10 -1 26 -1t27 1t17 1q14 0 22 -9.5t24 -42.5l229 -495l-26 -42l246 564q5 11 13.5 18t16.5 7q4 0 13 -1t25 -1l45 1q10 1 31 1q2 0 2 -6t-2 -6q-52 0 -73.5 -13.5t-20.5 -53.5
l19 -465q1 -31 7.5 -45t25 -19t57.5 -5q3 0 3 -6z" />
    <glyph glyph-name="N" unicode="N" horiz-adv-x="725" 
d="M118 602l22 -2v-496q0 -51 17 -71.5t59 -20.5q3 0 3 -6t-3 -6q-24 0 -37 1l-48 1l-49 -1q-13 -1 -39 -1q-2 0 -2 6t2 6q43 0 59 20t16 72v498zM616 -14q-5 -1 -7 1l-452 556q-32 39 -58.5 54.5t-52.5 15.5q-3 0 -3 6t3 6l36 -1q11 -1 31 -1q17 0 28 1t17 1q7 0 11.5 -3.5
t10.5 -14.5q11 -18 24 -34l409 -508l8 -76q0 -2 -5 -3zM621 -11l-22 31v500q0 51 -16 72t-58 21q-2 0 -2 6t2 6l38 -1q30 -2 48 -2q17 0 49 2l39 1q3 0 3 -6t-3 -6q-43 0 -60.5 -21t-17.5 -72v-531z" />
    <glyph glyph-name="O" unicode="O" horiz-adv-x="766" 
d="M200.5 31.5q-72.5 43.5 -112 118t-39.5 162.5q0 103 52 176.5t133.5 110.5t166.5 37q95 0 167 -44.5t110.5 -117.5t38.5 -155q0 -91 -48 -167t-128.5 -120t-174.5 -44q-93 0 -165.5 43.5zM530 41q57 33 90 97t33 153q0 94 -36.5 167.5t-103 114.5t-154.5 41
q-116 0 -181 -72t-65 -196q0 -93 36.5 -170.5t102.5 -122.5t150 -45q71 0 128 33z" />
    <glyph glyph-name="P" unicode="P" horiz-adv-x="540" 
d="M195 38.5q9 -14.5 34.5 -20.5t81.5 -6q3 0 3 -6t-3 -6q-41 0 -64 1l-87 1l-66 -1q-18 -1 -50 -1q-2 0 -2 6t2 6q39 0 57.5 5t25 19.5t6.5 44.5v463q0 30 -6.5 44t-25 19.5t-57.5 5.5q-2 0 -2 6t2 6l49 -1q42 -2 66 -2t55 3q78 3 85 3q88 0 143 -40.5t55 -123.5
q0 -67 -33 -112.5t-83.5 -67.5t-104.5 -22q-30 0 -49 5q-3 0 -3 5q0 3 1.5 6t3.5 2q16 -4 36 -4q71 0 120.5 43t49.5 125q0 53 -21 91.5t-57.5 59t-80.5 20.5q-41 0 -58 -4t-24.5 -18.5t-7.5 -50.5v-457q0 -32 9 -46.5z" />
    <glyph glyph-name="Q" unicode="Q" horiz-adv-x="766" 
d="M570.5 -112.5q72.5 -46.5 138.5 -46.5q23 0 36 3h1q2 0 3.5 -4.5t-0.5 -5.5q-53 -12 -86 -12q-71 0 -149 48t-132 132l74 4q42 -72 114.5 -118.5zM200.5 31.5q-72.5 43.5 -112 118t-39.5 162.5q0 103 52 176.5t133.5 110.5t166.5 37q95 0 167 -44.5t110.5 -117.5
t38.5 -155q0 -91 -48 -167t-128.5 -120t-174.5 -44q-93 0 -165.5 43.5zM530 41q57 33 90 97t33 153q0 94 -36.5 167.5t-103 114.5t-154.5 41q-116 0 -181 -72t-65 -196q0 -93 36.5 -170.5t102.5 -122.5t150 -45q71 0 128 33z" />
    <glyph glyph-name="R" unicode="R" horiz-adv-x="667" 
d="M461.5 85.5q-72.5 85.5 -174.5 236.5l48 15q88 -125 147 -194.5t104.5 -100t89.5 -30.5q3 0 3 -6t-3 -6h-116q-26 0 -98.5 85.5zM415.5 591.5q41.5 -36.5 41.5 -96.5q0 -52 -30.5 -95.5t-83 -68.5t-113.5 -25q-4 0 -43 3v-228q0 -31 6.5 -45t24.5 -19t58 -5q3 0 3 -6
t-3 -6q-30 0 -48 1l-68 1l-66 -1q-18 -1 -50 -1q-2 0 -2 6t2 6q40 0 58.5 5t25.5 19.5t7 44.5v463q0 30 -6.5 44t-25 19.5t-57.5 5.5q-3 0 -3 6t3 6l48 -1q40 -2 66 -2q22 0 41.5 1t33.5 2q36 3 64 3q75 0 116.5 -36.5zM363.5 580q-37.5 35 -108.5 35q-38 0 -53 -14t-15 -59
v-210q29 -3 60 -3q83 0 118.5 34.5t35.5 104.5q0 77 -37.5 112z" />
    <glyph glyph-name="S" unicode="S" horiz-adv-x="485" 
d="M157 435q19 -29 46.5 -48.5t76.5 -48.5q52 -31 80.5 -51.5t49 -52.5t20.5 -77q0 -47 -23 -85.5t-68.5 -61t-111.5 -22.5q-35 0 -66.5 7.5t-69.5 26.5q-5 3 -6.5 7t-2.5 12l-15 130v1q0 4 5 4.5t6 -3.5q10 -69 53 -120t118 -51q53 0 89.5 29t36.5 91q0 45 -20 77.5
t-48.5 54t-77.5 50.5q-48 28 -75.5 49t-47 52.5t-19.5 75.5q0 50 25.5 85t66.5 52.5t88 17.5q55 0 114 -24q15 -6 15 -17l9 -106q0 -4 -5.5 -4t-6.5 4q-4 52 -39 93t-100 41q-60 0 -88 -35t-28 -84q0 -40 19 -69z" />
    <glyph glyph-name="T" unicode="T" horiz-adv-x="632" 
d="M88 578q-29 -30 -39 -107q0 -2 -6 -2t-6 2q4 27 9 86.5t5 89.5q0 5 6 5t6 -5q0 -22 53 -22q86 -3 201 -3q59 0 125 2l68 1q36 0 53 5t22 20q1 4 6 4t5 -4q-3 -28 -6 -85.5t-3 -93.5q0 -2 -6 -2t-6 2q0 53 -11 82t-37 42t-73 13q-52 0 -73 -3.5t-28.5 -16.5t-7.5 -46v-461
q0 -31 7 -45t28 -19t66 -5q2 0 2 -6t-2 -6q-33 0 -52 1l-77 1l-73 -1q-20 -1 -55 -1q-2 0 -2 6t2 6q45 0 66 5t28.5 19.5t7.5 44.5v463q0 33 -8 45.5t-28.5 15.5t-74.5 3q-63 0 -92 -30z" />
    <glyph glyph-name="U" unicode="U" horiz-adv-x="697" 
d="M551.5 590.5q-20.5 22.5 -64.5 22.5q-3 0 -3 6t3 6l42 -1q34 -2 55 -2q18 0 48 2l41 1q2 0 2 -6t-2 -6q-41 0 -60 -22.5t-19 -70.5v-286q0 -117 -63 -182t-170 -65q-74 0 -129 29.5t-85 83.5t-30 125v319q0 30 -6.5 44t-25 19.5t-57.5 5.5q-2 0 -2 6t2 6l48 -1
q42 -2 67 -2q27 0 69 2l46 1q3 0 3 -6t-3 -6q-39 0 -57 -6t-24.5 -20.5t-6.5 -44.5v-282q0 -117 55 -180.5t154 -63.5q91 0 142 57.5t51 159.5v287q0 48 -20.5 70.5z" />
    <glyph glyph-name="V" unicode="V" horiz-adv-x="667" 
d="M673 619q0 -6 -3 -6q-34 0 -56.5 -14.5t-39.5 -54.5l-220 -543q-1 -4 -11 -4q-8 0 -11 4l-247 541q-17 39 -36.5 55t-50.5 16q-3 0 -3 6t3 6l43 -1q28 -2 42 -2q29 0 69 2l43 1q3 0 3 -6t-3 -6q-31 0 -46.5 -7t-15.5 -24q0 -12 9 -30l224 -495l-27 -37l214 530q7 17 7 29
q0 18 -18.5 26t-60.5 8q-3 0 -3 6t3 6l40 -1q34 -2 60 -2q21 0 47 2l42 1q3 0 3 -6z" />
    <glyph glyph-name="W" unicode="W" horiz-adv-x="936" 
d="M343 -3q-8 0 -11 4l-247 541q-17 39 -36.5 55t-50.5 16q-3 0 -3 6t3 6l43 -1q28 -2 42 -2q29 0 69 2l43 1q3 0 3 -6t-3 -6q-31 0 -47 -7t-16 -25q0 -10 8 -29l230 -496l-34 -43l135 332l14 -20l-131 -324q-1 -4 -11 -4zM942 619q0 -6 -3 -6q-34 0 -56.5 -14.5
t-39.5 -54.5l-220 -543q-1 -4 -11 -4q-8 0 -11 4l-247 541q-17 39 -36.5 55t-50.5 16q-3 0 -3 6t3 6l43 -1q28 -2 42 -2q21 0 49 2l28 1q3 0 3 -6t-3 -6q-20 0 -28 -3t-8 -12t16 -46l230 -496l-34 -43l218 537q7 15 7 29q0 18 -18.5 26t-61.5 8q-3 0 -3 6t3 6l40 -1
q34 -2 60 -2q21 0 47 2l42 1q3 0 3 -6zM567 585q0 15 -11.5 21.5t-36.5 6.5q-2 0 -2 6t2 6l28 -1q20 -2 38 -2q20 0 46 2l43 1q2 0 2 -6t-2 -6q-34 0 -57 -14.5t-39 -54.5l-89 -219l-14 20l83 205q9 21 9 35z" />
    <glyph glyph-name="X" unicode="X" horiz-adv-x="653" 
d="M413 6q0 6 2 6q30 0 43 4t13 14q0 8 -9 21l-325 491q-26 39 -52 55t-62 16q-2 0 -2 6t2 6q12 0 38 -2l36 -1q32 0 80 2l52 1q3 0 3 -6t-3 -6q-30 0 -43 -4.5t-13 -14.5q0 -7 9 -21l326 -490q26 -40 53.5 -55.5t71.5 -15.5q2 0 2 -6t-2 -6q-26 0 -41 1l-53 1l-75 -1
q-18 -1 -49 -1q-2 0 -2 6zM17 6q0 6 3 6q34 0 66 20.5t61 59.5l158 217l11 -10l-148 -207q-20 -29 -20 -47q0 -33 61 -33q3 0 3 -6t-3 -6q-30 0 -45 1l-67 1l-41 -1q-11 -1 -36 -1q-3 0 -3 6zM320 325l141 199q24 35 24 55q0 34 -58 34q-3 0 -3 6t3 6l45 -1q38 -2 67 -2
q17 0 41 2l36 1q3 0 3 -6t-3 -6q-68 0 -134 -90l-151 -207z" />
    <glyph glyph-name="Y" unicode="Y" horiz-adv-x="607" 
d="M475 581q0 32 -54 32q-2 0 -2 6t2 6l45 -1q38 -2 67 -2q17 0 41 2l37 1q2 0 2 -6t-2 -6q-37 0 -72 -23.5t-63 -66.5l-163 -247l-16 14l156 236q22 36 22 55zM60 597q-25 16 -62 16q-3 0 -3 6t3 6l37 -1q24 -2 36 -2q33 0 81 2l52 1q2 0 2 -6t-2 -6q-30 0 -43.5 -4.5
t-13.5 -14.5q0 -6 10 -21l178 -256l-37 -46l-187 271q-26 39 -51 55zM335 319v-238q0 -31 6 -45t24 -19t58 -5q3 0 3 -6t-3 -6q-30 0 -47 1l-68 1l-68 -1q-18 -1 -48 -1q-3 0 -3 6t3 6q39 0 57.5 5t25.5 19.5t7 44.5v229z" />
    <glyph glyph-name="Z" unicode="Z" horiz-adv-x="593" 
d="M463 606q0 2 -8 2q-196 0 -262 -5t-88.5 -24t-41.5 -77q0 -2 -4 -2q-3 0 -6 1.5t-2 2.5l40 151q0 1 4 1q10 0 8 -3q-1 -3 -1 -8q0 -12 11.5 -16t46.5 -4h365q4 0 6.5 -4.5t0.5 -8.5l-401 -585l-3 -6q0 -2 8 -2h268q70 0 103 25t43 86q1 2 6 2t5 -2l-14 -122
q0 -3 -2.5 -6.5t-6.5 -3.5q-149 2 -478 2q-5 0 -7 4.5t1 8.5l406 587z" />
    <glyph glyph-name="bracketleft" unicode="[" horiz-adv-x="274" 
d="M95.5 723.5q1.5 1.5 7.5 1.5h133q3 0 3 -6t-3 -6q-41 0 -60.5 -6t-26.5 -20.5t-7 -44.5v-676q0 -30 7 -44.5t26.5 -20.5t60.5 -6q3 0 3 -6t-3 -6h-133q-6 0 -7.5 2t-1.5 9v821q0 7 1.5 8.5z" />
    <glyph glyph-name="backslash" unicode="\" horiz-adv-x="339" 
d="M41.5 729q17.5 6 19.5 1l252 -882q2 -4 -16 -9.5t-20 -1.5l-251 881q-2 5 15.5 11z" />
    <glyph glyph-name="bracketright" unicode="]" horiz-adv-x="274" 
d="M178.5 -115q-1.5 -2 -7.5 -2h-133q-3 0 -3 6t3 6q41 0 60.5 6t26.5 20.5t7 44.5v676q0 30 -7 44.5t-26.5 20.5t-60.5 6q-3 0 -3 6t3 6h133q6 0 7.5 -1.5t1.5 -8.5v-821q0 -7 -1.5 -9z" />
    <glyph glyph-name="asciicircum" unicode="^" horiz-adv-x="392" 
d="M333 379q0 -2 -4 -4t-5 0l-128 182l-128 -182q-1 -1 -3 -1t-5 2.5t-2 3.5l127 249q1 5 11 5t11 -5l126 -249v-1z" />
    <glyph glyph-name="underscore" unicode="_" horiz-adv-x="398" 
d="M30.5 -68.5q-1.5 6.5 -1.5 13.5t1.5 12.5t2.5 5.5h331q2 0 3.5 -6t1.5 -13t-1.5 -13t-3.5 -6h-330q-2 0 -3.5 6.5z" />
    <glyph glyph-name="grave" unicode="`" horiz-adv-x="213" 
d="M57.5 730.5q12.5 -1.5 26.5 -6t14 -8.5l56 -240q2 -2 -3.5 -3.5t-6.5 1.5l-97 253q-2 5 10.5 3.5z" />
    <glyph glyph-name="a" unicode="a" horiz-adv-x="419" 
d="M305 -8q-13 0 -22.5 22t-9.5 60v193q0 110 -68 110q-34 0 -53 -21.5t-26 -50.5q-4 -18 -9.5 -27.5t-22.5 -9.5q-14 0 -22 8.5t-8 19.5q0 22 29.5 45.5t71.5 39t75 15.5q40 0 59.5 -26t19.5 -73v-189q0 -37 8.5 -53t29.5 -16q19 0 55 15h2q4 0 5 -4.5t-3 -6.5l-103 -49
q-4 -2 -8 -2zM80.5 13q-20.5 20 -20.5 48t22 50.5t76 42.5l125 47l2 -13l-118 -45q-29 -12 -40 -26t-11 -33q0 -24 15 -41t42 -17q22 0 52 17l67 39l2 -12l-75 -47q-25 -16 -44 -23t-39 -7q-35 0 -55.5 20z" />
    <glyph glyph-name="b" unicode="b" horiz-adv-x="508" 
d="M101 41l43 82q0 -40 22.5 -66.5t54 -38.5t61.5 -12q62 0 97 45.5t35 130.5q0 90 -37 139.5t-96 49.5q-40 0 -75.5 -25t-73.5 -68l-8 7q45 52 87.5 83t99.5 31q43 0 79 -21t58 -62.5t22 -101.5q0 -72 -31.5 -123.5t-82.5 -77.5t-107 -26q-83 0 -148 54zM40 -4q-4 0 -5 3.5
t2 6.5q34 24 47 42t13 55v496q0 37 -7.5 53t-25.5 16q-17 0 -48 -14h-2q-3 0 -4.5 5t2.5 6l120 59l5 1q2 0 4.5 -2t2.5 -5v-674l-102 -48h-2z" />
    <glyph glyph-name="c" unicode="c" horiz-adv-x="407" 
d="M122.5 16.5q-43.5 28.5 -64.5 73.5t-21 95q0 64 31.5 111.5t81 73t101.5 25.5q43 0 78.5 -17t35.5 -40q0 -12 -8 -20.5t-21 -8.5q-23 0 -40 28q-13 19 -30.5 28.5t-46.5 9.5q-60 0 -92.5 -43.5t-32.5 -117.5q0 -84 43 -139.5t128 -55.5q64 0 103 35h2q3 0 5.5 -3t-0.5 -5
q-34 -30 -69 -44t-76 -14q-64 0 -107.5 28.5z" />
    <glyph glyph-name="d" unicode="d" horiz-adv-x="513" 
d="M115.5 11q-35.5 24 -57 67.5t-21.5 98.5q0 70 35 120.5t88 76t105 25.5q68 0 122 -48l-9 -64q-29 44 -61.5 68.5t-81.5 24.5q-65 0 -104 -46t-39 -128q0 -55 18 -97t49 -65.5t69 -23.5q42 0 77 23t73 65l8 -7q-46 -52 -90 -83t-103 -31q-42 0 -77.5 24zM420.5 55
q8.5 -16 29.5 -16q31 0 55 15l2 1q4 0 5.5 -5t-2.5 -7l-103 -49q-4 -2 -8 -2q-14 0 -24 23.5t-10 65.5v518q0 37 -7.5 53t-26.5 16q-8 0 -20.5 -4.5t-27.5 -10.5h-2q-4 0 -5 4.5t2 6.5l122 60q2 1 5 1q2 0 4.5 -2t2.5 -5v-610q0 -37 8.5 -53z" />
    <glyph glyph-name="e" unicode="e" horiz-adv-x="405" 
d="M118 15q-40 27 -60.5 70.5t-20.5 94.5q0 59 28 108.5t75.5 78t103.5 28.5t84.5 -30.5t28.5 -83.5q0 -14 -2.5 -19.5t-9.5 -5.5h-47q1 7 1 19q0 50 -23.5 75t-63.5 25q-56 0 -87 -42t-31 -117q0 -87 41 -141.5t115 -54.5q31 0 53 8.5t48 25.5h1q3 0 5.5 -3.5t0.5 -6.5
q-66 -56 -143 -56q-57 0 -97 27zM80 267l228 4v-15l-227 -1z" />
    <glyph glyph-name="f" unicode="f" horiz-adv-x="305" 
d="M30 6q0 6 3 6q31 0 45.5 5.5t20 19.5t5.5 44v225q0 27 -4.5 37.5t-19 14t-51.5 3.5q-3 0 -3 6t3 6q43 0 58 9.5t16 35.5q5 162 58.5 235t157.5 73q50 0 83 -15.5t33 -35.5q0 -13 -9 -20.5t-22 -7.5q-10 0 -18 4.5t-18 17.5q-17 21 -36.5 31t-46.5 10q-61 0 -97 -67.5
t-36 -203.5v-358q0 -31 7 -45t27.5 -19t66.5 -5q2 0 2 -6t-2 -6l-64 1q-20 1 -62 1l-55 -1q-14 -1 -39 -1q-3 0 -3 6zM211.5 350q-34.5 3 -79.5 3v21q61 0 153 10q3 0 5 -6.5t2 -16.5q0 -8 -3 -16t-7 -7q-36 9 -70.5 12z" />
    <glyph glyph-name="g" unicode="g" horiz-adv-x="444" 
d="M72.5 -249.5q-38.5 30.5 -38.5 78.5q0 50 41.5 95.5t119.5 89.5l11 -13q-61 -31 -92 -61t-31 -82q0 -50 33.5 -79t99.5 -29q74 0 121 37.5t47 100.5q0 39 -19.5 57.5t-52 23.5t-89.5 5t-90.5 4t-54 19t-20.5 47q0 31 17.5 53t60.5 59l11 -10q-25 -21 -35 -37.5t-10 -34.5
q0 -22 15 -33.5t51.5 -16.5t103.5 -5q66 0 110 -18.5t44 -81.5q0 -53 -35 -99t-92.5 -73t-119.5 -27q-68 0 -106.5 30.5zM100.5 170q-40.5 37 -40.5 92t42 93t114 38q75 0 111.5 -39t36.5 -90q0 -34 -18 -64t-53 -48.5t-82 -18.5q-70 0 -110.5 37zM288 171q22 24 22 73
q0 61 -33 98t-83 37q-38 0 -59.5 -23t-21.5 -72q0 -45 17 -76t43.5 -46t55.5 -15q37 0 59 24zM364 384q28 10 61 10q2 0 3.5 -7t1.5 -14q0 -12 -2.5 -22.5t-6.5 -8.5q-35 14 -65 14q-20 0 -46 -7l-9 -30v34q35 21 63 31z" />
    <glyph glyph-name="h" unicode="h" horiz-adv-x="496" 
d="M24 6q0 6 3 6q29 0 42 5t18 19.5t5 44.5v519q0 37 -7 53t-25 16q-16 0 -48 -15l-2 -1q-4 0 -5.5 5t2.5 7l123 60h2q7 0 7 -7v-637q0 -30 5 -44.5t18.5 -19.5t42.5 -5q2 0 2 -6t-2 -6q-23 0 -37 1l-52 1l-53 -1q-13 -1 -36 -1q-3 0 -3 6zM293 6q0 6 3 6q29 0 42 5t18 19.5
t5 44.5v163q0 61 -23 90t-71 29q-39 0 -78 -25.5t-69 -68.5l-4 12q46 61 89 88t89 27q55 0 84.5 -30.5t29.5 -90.5v-194q0 -30 5 -44.5t18.5 -19.5t42.5 -5q2 0 2 -6t-2 -6q-23 0 -37 1l-52 1l-53 -1q-13 -1 -36 -1q-3 0 -3 6z" />
    <glyph glyph-name="i" unicode="i" horiz-adv-x="275" 
d="M55 6q0 6 2 6q29 0 42.5 5t18.5 19.5t5 44.5v189q0 37 -7.5 53t-25.5 16q-19 0 -48 -15h-1q-4 0 -6 5t2 7l124 58l4 1q2 0 4.5 -2t2.5 -5q0 -6 -1 -39.5t-1 -77.5v-190q0 -30 4.5 -44.5t18 -19.5t42.5 -5q3 0 3 -6t-3 -6q-23 0 -36 1l-53 1l-52 -1q-14 -1 -37 -1
q-2 0 -2 6zM108.5 526q-10.5 10 -10.5 28t10.5 28t29.5 10q18 0 28 -10t10 -28t-10 -28t-28 -10q-19 0 -29.5 10z" />
    <glyph glyph-name="j" unicode="j" horiz-adv-x="255" 
d="M160 348.5q-1 -33.5 -1 -77.5v-319q0 -68 -12 -111.5t-40.5 -72.5t-78.5 -50q-2 -1 -4.5 4.5t-0.5 6.5q49 21 69 67t20 133v341q0 37 -7 53t-25 16q-19 0 -48 -15h-1q-5 0 -6.5 5t2.5 7l124 58l3 1q7 0 7 -7q0 -6 -1 -39.5zM97.5 526q-10.5 10 -10.5 28t10.5 28t29.5 10
q18 0 28 -10t10 -28t-10 -28t-28 -10q-19 0 -29.5 10z" />
    <glyph glyph-name="k" unicode="k" horiz-adv-x="491" 
d="M24 6q0 6 3 6q29 0 42 5t18 19.5t5 44.5v519q0 37 -7 53t-25 16q-16 0 -48 -15h-2q-4 0 -5.5 5t2.5 6l120 59l5 1q2 0 4.5 -2t2.5 -5v-637q0 -30 5 -44.5t18.5 -19.5t42.5 -5q2 0 2 -6t-2 -6q-23 0 -37 1l-52 1l-53 -1q-13 -1 -36 -1q-3 0 -3 6zM276 6q0 6 2 6
q28 0 40.5 4.5t12.5 14.5q0 9 -9 22l-128 177l41 30l128 -179q48 -69 117 -69q2 0 2 -6t-2 -6q-23 0 -37 1l-52 1l-70 -1q-16 -1 -43 -1q-2 0 -2 6zM122 182l162 126q34 25 34 43q0 23 -63 23q-3 0 -3 6t3 6q27 0 41 -1l71 -1l66 1q12 1 35 1q2 0 2 -6t-2 -6q-75 0 -166 -69
l-176 -133z" />
    <glyph glyph-name="l" unicode="l" horiz-adv-x="256" 
d="M38 6q0 6 3 6q29 0 42 5t18 19.5t5 44.5v519q0 37 -7 53t-25 16q-16 0 -48 -15h-2q-4 0 -5.5 5t2.5 6l123 59q2 1 5 1q2 0 4.5 -2t2.5 -5v-637q0 -30 4.5 -44t18 -19.5t42.5 -5.5q3 0 3 -6t-3 -6q-22 0 -36 1l-54 1l-54 -1q-13 -1 -36 -1q-3 0 -3 6z" />
    <glyph glyph-name="m" unicode="m" horiz-adv-x="760" 
d="M558 6q0 6 2 6q29 0 42.5 5t18.5 19.5t5 44.5v163q0 61 -21.5 90t-67.5 29q-36 0 -74 -25.5t-67 -68.5l-4 12q45 61 86 88t86 27q53 0 81 -30t28 -91v-194q0 -30 4.5 -44.5t18 -19.5t42.5 -5q3 0 3 -6t-3 -6q-23 0 -36 1l-53 1l-52 -1q-14 -1 -37 -1q-2 0 -2 6zM300 6
q0 6 3 6q29 0 42 5t18 19.5t5 44.5v163q0 61 -21.5 90t-66.5 29q-37 0 -74.5 -25.5t-66.5 -68.5l-4 12q44 61 85.5 88t85.5 27q53 0 81 -30t28 -91v-194q0 -30 5 -44.5t18.5 -19.5t42.5 -5q2 0 2 -6t-2 -6q-23 0 -37 1l-52 1l-53 -1q-13 -1 -36 -1q-3 0 -3 6zM43 6q0 6 3 6
q29 0 42 5t18 19.5t5 44.5v200q0 35 -8 50t-28 15q-16 0 -56 -15h-2q-4 0 -5.5 4.5t2.5 6.5l111 52q2 1 5 1q8 0 18 -22.5t10 -57.5v-234q0 -30 4.5 -44.5t18 -19.5t42.5 -5q3 0 3 -6t-3 -6q-23 0 -36 1l-52 1l-53 -1q-13 -1 -36 -1q-3 0 -3 6z" />
    <glyph glyph-name="n" unicode="n" horiz-adv-x="515" 
d="M312 6q0 6 3 6q29 0 42 5t18 19.5t5 44.5v167q0 61 -23 89t-72 28q-38 0 -77.5 -25.5t-68.5 -68.5l-4 12q46 61 89 88.5t88 27.5q56 0 85.5 -30t29.5 -91v-197q0 -30 4.5 -44.5t18 -19.5t42.5 -5q3 0 3 -6t-3 -6q-23 0 -36 1l-52 1l-53 -1q-13 -1 -36 -1q-3 0 -3 6zM43 6
q0 6 3 6q29 0 42 5t18 19.5t5 44.5v200q0 35 -8 50t-28 15q-16 0 -56 -15h-2q-4 0 -5.5 4.5t2.5 6.5l111 52q2 1 5 1q8 0 18 -22.5t10 -57.5v-234q0 -30 4.5 -44.5t18 -19.5t42.5 -5q3 0 3 -6t-3 -6q-23 0 -36 1l-52 1l-53 -1q-13 -1 -36 -1q-3 0 -3 6z" />
    <glyph glyph-name="o" unicode="o" 
d="M129 15.5q-44 28.5 -68 77t-24 105.5q0 65 31.5 110.5t80 68t99.5 22.5q58 0 101.5 -29t67 -76.5t23.5 -100.5q0 -62 -28.5 -109t-76.5 -72t-105 -25t-101 28.5zM349 44q33 39 33 123q0 60 -21 108.5t-59 76.5t-87 28q-57 0 -89 -39.5t-32 -113.5q0 -60 21 -110.5t58 -81
t85 -30.5q58 0 91 39z" />
    <glyph glyph-name="p" unicode="p" horiz-adv-x="510" 
d="M30 -269q0 6 3 6q28 0 41.5 5.5t18.5 19.5t5 44v472q0 37 -8 53t-29 16q-24 0 -55 -15h-2q-4 0 -5.5 4.5t2.5 6.5l103 49l8 2q15 0 24 -23t9 -66v-499q0 -30 8 -44t29 -19.5t66 -5.5q2 0 2 -6t-2 -6q-34 0 -53 1l-72 1l-54 -1q-13 -1 -36 -1q-3 0 -3 6zM187.5 -2.5
q-29.5 10.5 -63.5 37.5l9 53q32 -40 67.5 -60.5t88.5 -20.5q35 0 64 21.5t45.5 61.5t16.5 94q0 86 -37.5 134t-95.5 48q-42 0 -76 -22.5t-73 -65.5l-8 7q51 59 98 86.5t95 27.5q41 0 76 -22t55.5 -63.5t20.5 -98.5q0 -74 -34 -125.5t-84 -77t-96 -25.5q-39 0 -68.5 10.5z
" />
    <glyph glyph-name="q" unicode="q" horiz-adv-x="484" 
d="M114 9q-35 22 -56 63.5t-21 98.5q0 80 32.5 131.5t81.5 74t102 22.5q72 0 146 -43l-43 -86q0 50 -37 80t-99 30q-126 0 -126 -178q0 -87 35 -137t92 -50q40 0 75 24.5t74 68.5l8 -7q-45 -52 -87.5 -83t-99.5 -31q-42 0 -77 22zM274 -269q0 6 2 6q35 0 51.5 5.5t22.5 19.5
t6 44v550l90 32l2 1q3 0 4 -4.5t-2 -5.5q-24 -15 -36 -34t-12 -50v-489q0 -30 5 -44t19 -19.5t42 -5.5q2 0 2 -6t-2 -6q-24 0 -37 1l-53 1l-57 -1q-16 -1 -45 -1q-2 0 -2 6z" />
    <glyph glyph-name="r" unicode="r" horiz-adv-x="360" 
d="M216.5 372q27.5 23 52.5 23q22 0 41.5 -11.5t19.5 -26.5q0 -10 -7.5 -18t-21.5 -8q-10 0 -18 5.5t-10 6.5q-19 15 -38 15q-15 0 -33.5 -16t-62.5 -71l-4 10q54 68 81.5 91zM43 6q0 6 3 6q29 0 42 5t18 19.5t5 44.5v200q0 35 -8 50t-28 15q-16 0 -56 -15h-2q-4 0 -5.5 4.5
t2.5 6.5l111 52q2 1 5 1q8 0 18 -22.5t10 -57.5v-234q0 -30 7 -44.5t27.5 -19.5t65.5 -5q3 0 3 -6t-3 -6q-32 0 -51 1l-72 1l-53 -1q-13 -1 -36 -1q-3 0 -3 6z" />
    <glyph glyph-name="s" unicode="s" horiz-adv-x="338" 
d="M119 264.5q23 -20.5 70 -43.5q34 -17 54 -30t34 -33.5t14 -49.5q0 -50 -37.5 -84.5t-102.5 -34.5q-53 0 -94 31q-6 4 -6 12l-2 72q0 3 5.5 3.5t6.5 -2.5q19 -50 48.5 -73.5t70.5 -23.5q34 0 52 15t18 44t-12.5 48.5t-31 31.5t-50.5 27q-33 16 -52.5 28.5t-33 33.5
t-13.5 52q0 53 40 82t94 29q37 0 71 -15q6 -3 7.5 -5t1.5 -6q0 -19 -1 -30l-1 -39q0 -2 -6 -2t-6 2q0 32 -33 53.5t-70 21.5q-27 0 -42.5 -14.5t-15.5 -42.5q0 -37 23 -57.5z" />
    <glyph glyph-name="t" unicode="t" horiz-adv-x="339" 
d="M122 6.5q-26 18.5 -26 61.5v238q0 27 -3.5 37.5t-13.5 14t-35 3.5q-3 0 -3 6t3 6q38 0 61.5 21t23.5 53q0 3 8 3q7 0 7 -3v-345q0 -83 81 -83q46 0 81 27l2 1q3 0 5 -4.5t-1 -6.5q-37 -26 -65 -37t-58 -11q-41 0 -67 18.5zM211.5 350q-34.5 3 -79.5 3v21q61 0 153 10
q3 0 5 -6.5t2 -16.5q0 -8 -3 -16t-7 -7q-36 9 -70.5 12z" />
    <glyph glyph-name="u" unicode="u" horiz-adv-x="490" 
d="M103.5 24q-27.5 31 -27.5 91v155q0 41 -6.5 58.5t-22.5 17.5q-15 0 -36 -10h-2q-4 0 -5.5 5t2.5 6l105 47l4 1q2 0 5 -2t3 -5v-243q0 -60 21 -89t63 -29q41 0 82 24.5t72 67.5l5 -11q-47 -61 -92.5 -88t-93.5 -27q-49 0 -76.5 31zM397.5 55.5q8.5 -15.5 28.5 -15.5
q10 0 24.5 4.5t31.5 10.5h2q4 0 5.5 -4.5t-2.5 -6.5l-112 -52l-4 -1q-9 0 -18.5 22.5t-9.5 57.5v199q0 41 -6.5 58.5t-23.5 17.5q-15 0 -36 -10h-2q-4 0 -5 5t3 6l105 47l3 1q3 0 5.5 -2t2.5 -5v-283q0 -34 8.5 -49.5z" />
    <glyph glyph-name="v" unicode="v" horiz-adv-x="433" 
d="M427 380q0 -6 -2 -6q-25 0 -41 -14.5t-32 -54.5l-125 -304q-1 -4 -11 -4t-11 4l-137 302q-20 44 -32.5 57.5t-31.5 13.5q-3 0 -3 6t3 6q20 0 31 -1l30 -1l63 1q14 1 38 1q3 0 3 -6t-3 -6q-61 0 -61 -24q0 -7 4 -15l130 -284l-23 -29l119 289q6 17 6 27q0 19 -19.5 27.5
t-63.5 8.5q-2 0 -2 6t2 6q27 0 41 -1l60 -1l35 1q10 1 31 1q2 0 2 -6z" />
    <glyph glyph-name="w" unicode="w" horiz-adv-x="667" 
d="M269 360.5q-13 13.5 -32 13.5q-2 0 -2 6t2 6l32 -1q10 -1 30 -1l63 1q14 1 38 1q3 0 3 -6t-3 -6q-61 0 -61 -24q0 -7 4 -15l130 -285l-23 -28l118 289q7 19 7 28q0 19 -19.5 27t-63.5 8q-2 0 -2 6t2 6q27 0 41 -1l60 -1l35 1q9 1 30 1q3 0 3 -6t-3 -6q-24 0 -40 -15
t-32 -54l-125 -304q-1 -4 -11 -4t-11 4l-137 302q-20 44 -33 57.5zM35.5 360.5q-12.5 13.5 -31.5 13.5q-3 0 -3 6t3 6q20 0 31 -1l30 -1l58 1q15 1 43 1q3 0 3 -6t-3 -6q-29 0 -44.5 -5.5t-15.5 -18.5q0 -7 4 -15l130 -285l-24 -28l109 263l14 -14l-112 -270q-1 -4 -11 -4
t-11 4l-137 302q-20 44 -32.5 57.5z" />
    <glyph glyph-name="x" unicode="x" horiz-adv-x="439" 
d="M259 6q0 6 3 6q19 0 27.5 2.5t8.5 9.5q0 6 -13 27l-167 252q-25 38 -52 54.5t-50 16.5q-2 0 -2 6t2 6q21 0 31 -1l31 -1l63 1q14 1 38 1q2 0 2 -6t-2 -6q-19 0 -27.5 -2.5t-8.5 -9.5q0 -6 13 -27l167 -252q25 -38 52 -54.5t50 -16.5q2 0 2 -6t-2 -6l-32 1q-10 1 -30 1
l-63 -1q-14 -1 -38 -1q-3 0 -3 6zM13 6q0 6 2 6q25 0 54.5 17.5t53.5 51.5l84 117l12 -9l-79 -114q-8 -12 -13.5 -22.5t-5.5 -18.5q0 -22 60 -22q3 0 3 -6t-3 -6q-27 0 -40 1l-60 1l-35 -1q-10 -1 -31 -1q-2 0 -2 6zM212 202l73 109q21 29 21 42q0 11 -14 16t-48 5
q-2 0 -2 6t2 6q27 0 41 -1l60 -1l35 1q10 1 31 1q2 0 2 -6t-2 -6q-26 0 -54 -16.5t-54 -52.5l-82 -112z" />
    <glyph glyph-name="y" unicode="y" horiz-adv-x="437" 
d="M432 380q0 -6 -3 -6q-24 0 -41 -15t-31 -54l-125 -333q-37 -97 -69.5 -151.5t-67.5 -78t-81 -23.5q-20 0 -34 9.5t-14 27.5q0 11 8 18t19 7q21 0 41 -12q9 -6 16.5 -8.5t18.5 -2.5q25 0 48 23t49 77t63 151v-22l-155 316q-23 44 -35 57.5t-31 13.5q-2 0 -2 6t2 6
q21 0 31 -1l31 -1l62 1q14 1 39 1q2 0 2 -6t-2 -6q-60 0 -60 -24q0 -7 4 -15l140 -287l-20 -37l101 290q8 22 8 36q0 21 -18.5 29t-62.5 8q-2 0 -2 6t2 6q27 0 41 -1l60 -1l35 1q9 1 30 1q3 0 3 -6z" />
    <glyph glyph-name="z" unicode="z" horiz-adv-x="405" 
d="M283 374q-85 0 -127.5 -5.5t-65.5 -23.5t-34 -56q0 -2 -4 -2q-3 0 -6 1.5t-2 2.5l32 122q1 2 7 1.5t5 -2.5q-4 -15 6.5 -20.5t40.5 -5.5h207q4 0 7 -4t1 -8l-238 -353q-4 -7 5 -7q109 0 148.5 4.5t56.5 22.5t34 68q1 2 6 2t5 -2l-2 -98q0 -4 -2.5 -7.5t-6.5 -3.5h-305
q-4 0 -6.5 4t-0.5 8l244 355q4 7 -5 7z" />
    <glyph glyph-name="braceleft" unicode="{" horiz-adv-x="289" 
d="M29 304.5q0 6.5 3 6.5q51 6 68 65t17 153q0 86 11 126.5t38 55t84 14.5q4 0 4 -6t-4 -6q-38 0 -59 -27.5t-23 -78.5q-2 -123 -8 -172.5t-26.5 -78t-72.5 -51.5q51 -24 72 -53.5t27 -79t8 -171.5q2 -51 23 -78.5t59 -27.5q4 0 4 -6t-4 -6q-58 0 -85.5 14.5t-37.5 55.5
t-10 127q0 95 -17 153.5t-68 64.5q-3 0 -3 6.5z" />
    <glyph glyph-name="bar" unicode="|" horiz-adv-x="168" 
d="M86 738q18 0 18 -7v-885q0 -4 -5.5 -6t-12.5 -2q-8 0 -13.5 2t-5.5 6v885q0 7 19 7z" />
    <glyph glyph-name="braceright" unicode="}" horiz-adv-x="283" 
d="M183 233.5q-17 -58.5 -17 -153.5q0 -86 -10 -127t-37.5 -55.5t-85.5 -14.5q-4 0 -4 6t4 6q38 0 59 27.5t23 78.5q2 122 8 171.5t27 79t72 53.5q-52 23 -72.5 51.5t-26.5 78t-8 172.5q-2 51 -23 78.5t-59 27.5q-4 0 -4 6t4 6q57 0 84 -14.5t38 -55t11 -126.5
q0 -94 17 -153t68 -65q3 0 3 -6.5t-3 -6.5q-51 -6 -68 -64.5z" />
    <glyph glyph-name="asciitilde" unicode="~" horiz-adv-x="443" 
d="M357.5 204q15.5 10 31.5 29h1q3 0 5.5 -2.5t0.5 -4.5q-34 -41 -56 -55t-48 -14q-19 0 -36.5 4.5t-42.5 13.5q-26 9 -44 13.5t-39 4.5q-24 0 -36.5 -7t-23.5 -17.5t-15 -14.5h-1q-2 0 -4.5 2.5t-1.5 4.5q56 69 111 69q14 0 32 -5t36 -11q26 -10 46 -15t40 -5q29 0 44.5 10
z" />
    <glyph glyph-name="uni00A0" unicode="&#xa0;" horiz-adv-x="234" 
 />
    <glyph glyph-name="exclamdown" unicode="&#xa1;" horiz-adv-x="243" 
d="M148.5 -272.5q-12.5 -2.5 -27.5 -2.5t-27.5 2.5t-11.5 5.5q15 87 22 186t14 246q0 2 5 2t5 -2q5 -144 11.5 -244.5t21.5 -187.5q0 -3 -12.5 -5.5zM154 354.5q11 -10.5 11 -28.5q0 -17 -11 -27t-29 -10q-19 0 -29 10t-10 27q0 18 10 28.5t29 10.5q18 0 29 -10.5z" />
    <glyph glyph-name="cent" unicode="&#xa2;" horiz-adv-x="540" 
d="M280 567q3 2 7 2t7 -2t3 -6v-663q0 -7 -10 -7t-10 7v663q0 4 3 6zM393.5 472.5q43.5 -7.5 70.5 -21.5q7 -3 9 -6t3 -11l11 -103q0 -3 -5.5 -4t-6.5 3q-14 70 -62.5 103.5t-123.5 33.5q-54 0 -98 -28t-69 -77.5t-25 -110.5q0 -63 25 -120.5t75 -94t120 -36.5
q63 0 107 34.5t60 105.5q0 3 5 3q2 0 4.5 -1.5t2.5 -2.5l-14 -106q-1 -8 -3 -11t-11 -7q-77 -27 -160 -27q-94 0 -155 38t-88.5 95t-27.5 115q0 68 36 124t99 88t140 32q38 0 81.5 -7.5z" />
    <glyph glyph-name="sterling" unicode="&#xa3;" horiz-adv-x="432" 
d="M316.5 46q21.5 6 32.5 23t19 54q0 2 6 1.5t6 -2.5q-9 -50 -9 -107q0 -8 -3.5 -11.5t-11.5 -3.5h-320q-2 0 -2 5.5t2 6.5q51 13 69.5 33.5t18.5 60.5q0 36 -6 63t-17 63q-10 31 -15 53t-5 48q0 73 47.5 110t117.5 37q47 0 90 -17q15 -4 16 -19l7 -100q0 -4 -5 -4
q-6 0 -7 4q-3 47 -32 85t-80 38q-53 0 -78 -30t-25 -73q0 -27 5 -50.5t15 -57.5q10 -36 15 -59t5 -50q0 -44 -17.5 -69t-49.5 -48l-6 10h152q44 0 65.5 6zM281 230q0 -10 -7 -10h-219q-3 0 -5 3t-2 7t2 7t5 3h219q7 0 7 -10z" />
    <glyph glyph-name="currency" unicode="&#xa4;" horiz-adv-x="414" 
d="M77 37l-21 21l53 55l18 -19zM51 344l26 23l52 -56l-24 -21zM361 62l-26 -25l-52 59l23 21zM340 364l20 -20l-51 -52l-19 18zM124 84.5q-31 19.5 -47 51.5t-16 66q0 42 23 72.5t57.5 45.5t69.5 15q58 0 98 -38.5t40 -95.5q0 -41 -22 -72t-57.5 -47.5t-73.5 -16.5
q-41 0 -72 19.5zM274.5 107q22.5 26 22.5 73q0 56 -29.5 97.5t-79.5 41.5q-36 0 -57 -24.5t-21 -71.5q0 -55 27 -98.5t78 -43.5q37 0 59.5 26z" />
    <glyph glyph-name="yen" unicode="&#xa5;" 
d="M373 146q0 -10 -7 -10h-265q-7 0 -7 10t7 10h265q7 0 7 -10zM373 203q0 -10 -7 -10h-265q-7 0 -7 10t7 10h265q7 0 7 -10zM342 419q0 17 -11 27t-29 10q-3 0 -3 6t3 6l39 -1q32 -2 59 -2q15 0 35 2l30 1q3 0 3 -6t-3 -6q-33 0 -64 -23.5t-58 -66.5l-104 -170h-14l99 171
q18 30 18 52zM49 440.5q-21 15.5 -54 15.5q-2 0 -2 6t2 6l31 -1q22 -2 31 -2q29 0 73 2l45 1q3 0 3 -6t-3 -6q-42 0 -42 -20q0 -9 7 -20l120 -181l-39 -39l-124 189q-27 40 -48 55.5zM266 36q6 -14 24.5 -19t58.5 -5q2 0 2 -6t-2 -6q-30 0 -47 1l-68 1l-65 -1q-18 -1 -50 -1
q-2 0 -2 6t2 6q39 0 57.5 5t25.5 19.5t7 44.5v64h51v-64q0 -31 6 -45zM209 228l51 9v-37h-51v28z" />
    <glyph glyph-name="brokenbar" unicode="&#xa6;" horiz-adv-x="168" 
d="M72.5 222q5.5 2 13.5 2q7 0 12.5 -2t5.5 -6v-370q0 -4 -5.5 -6t-12.5 -2q-8 0 -13.5 2t-5.5 6v370q0 4 5.5 6zM86 738q18 0 18 -7v-371q0 -3 -5.5 -5t-12.5 -2q-8 0 -13.5 2t-5.5 5v371q0 7 19 7z" />
    <glyph glyph-name="section" unicode="&#xa7;" horiz-adv-x="429" 
d="M322 67.5q11 26.5 11 59.5q0 44 -17.5 75.5t-42.5 52.5t-67 49q-53 34 -80 63t-27 73q0 64 43 98t102 34q53 0 88 -19q11 -5 11 -16l8 -94q0 -2 -6 -2t-6 2q-3 24 -22 48.5t-48 41t-62 16.5q-30 0 -49.5 -18t-19.5 -57q0 -30 14 -53.5t34.5 -39.5t58.5 -42
q42 -28 67.5 -49.5t43.5 -54t18 -76.5q0 -43 -17 -74t-66 -74l-8 9q28 21 39 47.5zM116 -170q-11 7 -12 17l-7 93q0 3 6 3t6 -3q3 -23 22 -47.5t48 -41t62 -16.5q31 0 51 18t20 57q0 30 -14.5 53.5t-35 39.5t-59.5 42q-43 28 -69.5 49.5t-45 54t-18.5 76.5q0 43 16.5 73.5
t66.5 74.5l8 -9q-29 -22 -39.5 -48t-10.5 -60q0 -43 18 -75t44 -53t68 -48q37 -23 59 -40.5t36.5 -41t14.5 -54.5q0 -65 -43.5 -98.5t-103.5 -33.5q-52 0 -88 18z" />
    <glyph glyph-name="dieresis" unicode="&#xa8;" horiz-adv-x="322" 
d="M44.5 491q-10.5 10 -10.5 28t10.5 28t29.5 10q18 0 28 -10t10 -28t-10 -28t-28 -10q-19 0 -29.5 10zM220 491q-11 10 -11 28t11 28t29 10q19 0 29 -10t10 -28t-10 -28t-29 -10q-18 0 -29 10z" />
    <glyph glyph-name="copyright" unicode="&#xa9;" horiz-adv-x="717" 
d="M232 -68q-67 33 -111.5 99t-44.5 160q0 88 44 158t117.5 109t156.5 39q74 0 130 -30.5t86.5 -82.5t30.5 -114t-32 -115t-87 -84.5t-122 -31.5q-60 0 -100 22.5t-59 58t-19 75.5q0 51 25 89.5t64.5 59t81.5 20.5q34 0 62.5 -13.5t29.5 -33.5q0 -10 -7.5 -18t-17.5 -8
q-17 0 -34 24q-12 17 -24.5 25.5t-34.5 8.5q-89 0 -89 -130q0 -68 35.5 -111t114.5 -43q48 0 89 19t66.5 58.5t25.5 99.5q0 63 -32.5 116.5t-88.5 84.5t-124 31q-79 0 -135 -34.5t-85 -94t-29 -132.5q0 -92 44 -156.5t108 -96t124 -31.5q61 0 104 8.5t97 36.5q2 1 4 -2t0 -5
q-53 -40 -107.5 -54t-122.5 -14q-67 0 -134 33z" />
    <glyph glyph-name="ordfeminine" unicode="&#xaa;" horiz-adv-x="276" 
d="M30.5 292q-1.5 4 -1.5 9q0 4 1.5 8t2.5 4h225q2 0 3.5 -4t1.5 -8q0 -13 -5 -13h-224q-2 0 -3.5 4zM188.5 375.5q-8.5 14.5 -8.5 43.5v119q0 46 -13 60t-37 14q-21 0 -34 -14t-18 -37q-2 -10 -5.5 -15.5t-14.5 -5.5q-9 0 -15 6t-6 12q0 14 21 31t49.5 29t49.5 12
q24 0 39 -18t15 -54v-117q0 -23 5 -33t18 -10q8 0 35 9h1q4 0 5.5 -3.5t-0.5 -5.5l-68 -32q-10 -5 -18.5 9.5zM49 376q-12 11 -12 28q0 16 12.5 25t47.5 22l90 33l1 -10l-85 -33q-16 -6 -21.5 -11t-5.5 -14q0 -11 8 -19t21 -8q12 0 26 6l62 32l1 -11l-58 -31
q-22 -12 -32.5 -16t-22.5 -4q-20 0 -32 11z" />
    <glyph glyph-name="guillemotleft" unicode="&#xab;" horiz-adv-x="451" 
d="M57 201q0 7 4 11l174 149q0 1 2 1t4 -2.5t1 -3.5l-130 -155l130 -155q1 -2 -2.5 -5.5t-4.5 -0.5l-174 149q-4 4 -4 12zM204 201q0 7 4 11l174 149q2 3 5.5 0t1.5 -5l-129 -155l129 -155v-1q0 -3 -2.5 -5t-4.5 0l-174 149q-4 4 -4 12z" />
    <glyph glyph-name="logicalnot" unicode="&#xac;" horiz-adv-x="395" 
d="M357.5 73.5q-6.5 -1.5 -13.5 -1.5t-12.5 1.5t-5.5 2.5v191h38v-190q0 -2 -6.5 -3.5zM30.5 235.5q-1.5 6.5 -1.5 13.5t1.5 12.5t2.5 5.5h331v-38h-330q-2 0 -3.5 6.5z" />
    <glyph glyph-name="uni00AD" unicode="&#xad;" horiz-adv-x="0" 
 />
    <glyph glyph-name="registered" unicode="&#xae;" horiz-adv-x="752" 
d="M228.5 172.5q-67.5 34.5 -110 100.5t-42.5 157q0 83 44.5 150.5t117.5 106t156 38.5q84 0 148 -37.5t99 -100t35 -136.5q0 -86 -42 -158t-112.5 -113.5t-153.5 -41.5q-72 0 -139.5 34.5zM237 277q0 6 2 6q25 0 36 3t15 12t4 29v216q0 19 -4 28t-15 12.5t-36 3.5
q-2 0 -2 6t2 6l71 -1q12 0 44 2l38 1q89 0 89 -65q0 -52 -42 -81t-119 -25v20q30 -5 49 -5q37 0 55.5 15.5t18.5 51.5q0 76 -68 76q-20 0 -29 -2.5t-13 -12.5t-4 -33v-213q0 -20 3.5 -29t14.5 -12t35 -3q2 0 2 -6t-2 -6q-18 0 -29 1l-43 1l-42 -1q-11 -1 -29 -1q-2 0 -2 6z
M524.5 198q56.5 31 88 89t31.5 136q0 77 -36.5 141t-100.5 101t-143 37q-78 0 -134.5 -34t-85.5 -91t-29 -124q0 -90 42 -155t106.5 -98t129.5 -33q75 0 131.5 31zM456 312q-25 41 -68 123l37 14q40 -77 58 -107t37 -46t45 -16q2 0 2 -4.5t-2 -4.5h-74q-10 0 -35 41z" />
    <glyph glyph-name="macron" unicode="&#xaf;" horiz-adv-x="345" 
d="M43.5 489q-1.5 4 -1.5 9q0 13 5 13h251q5 0 5 -13t-5 -13h-251q-2 0 -3.5 4z" />
    <glyph glyph-name="degree" unicode="&#xb0;" horiz-adv-x="332" 
d="M67.5 410q-38.5 37 -38.5 93q0 53 38.5 90t99.5 37t98.5 -37t37.5 -92t-37.5 -91.5t-98.5 -36.5t-99.5 37zM235.5 411q14.5 27 14.5 83q0 126 -89 126q-46 0 -62 -29.5t-16 -84.5q0 -57 20.5 -89.5t70.5 -32.5q47 0 61.5 27z" />
    <glyph glyph-name="plusminus" unicode="&#xb1;" horiz-adv-x="398" 
d="M30.5 6.5q-1.5 5.5 -1.5 12.5q0 6 1.5 11t2.5 5h331q2 0 3.5 -5.5t1.5 -11.5t-1.5 -11.5t-3.5 -5.5h-330q-2 0 -3.5 5.5zM30.5 240.5q-1.5 6.5 -1.5 13.5q0 6 1 11.5t3 5.5h331q2 0 3.5 -5.5t1.5 -12.5t-1.5 -13t-3.5 -6h-330q-2 0 -3.5 6.5zM211.5 84.5
q-6.5 -1.5 -13.5 -1.5t-12.5 1.5t-5.5 2.5v331q0 4 19 4t19 -4v-330q0 -2 -6.5 -3.5z" />
    <glyph glyph-name="uni00B2" unicode="&#xb2;" horiz-adv-x="250" 
d="M53 445q14 22 30 45q37 54 57 91t20 69q0 27 -14 43t-38 16q-25 0 -43 -16.5t-24 -42.5q0 -2 -4 -2q-3 0 -6 1.5t-2 3.5q22 76 94 76q37 0 57.5 -20t20.5 -51q0 -29 -21.5 -62.5t-60.5 -80.5q-23 -28 -36.5 -46t-18.5 -32q0 -3 3 -3q69 0 93 2.5t32.5 13t18.5 41.5
q0 2 2.5 2t2.5 -2l-1 -84q0 -2 -1 -3.5t-3 -1.5h-174q-2 0 -3 2t0 4q5 15 19 37z" />
    <glyph glyph-name="uni00B3" unicode="&#xb3;" horiz-adv-x="251" 
d="M188.5 550q25.5 -18 25.5 -56q0 -41 -26.5 -69.5t-72.5 -28.5q-38 0 -61 19t-31 50q-1 4 5 5.5t7 -2.5q6 -21 24.5 -38t50.5 -17q63 0 63 68q0 38 -21.5 61t-53.5 23q-2 0 -2 6t2 6q29 0 45.5 23.5t16.5 49.5q0 25 -15 42t-39 17q-23 0 -41 -17t-24 -42q0 -2 -4 -2
q-3 0 -6 1.5t-2 3.5q9 34 32 55t61 21q36 0 57.5 -20.5t21.5 -51.5q0 -32 -22.5 -57t-59.5 -33l-1 8q45 -7 70.5 -25z" />
    <glyph glyph-name="acute" unicode="&#xb4;" horiz-adv-x="212" 
d="M65 472q-3 0 -5.5 1.5t-1.5 2.5l57 240q1 4 14.5 8.5t26 6t10.5 -3.5l-97 -253q0 -2 -4 -2z" />
    <glyph glyph-name="paragraph" unicode="&#xb6;" horiz-adv-x="634" 
d="M290.5 -181.5q-14.5 11.5 -14.5 27.5q0 14 7.5 22.5t19.5 8.5q13 0 19.5 -5.5t13.5 -16.5q7 -12 15.5 -18.5t26.5 -6.5q30 0 42.5 41t12.5 137v117q-40 -3 -88 -3q-74 0 -140 26t-108.5 85t-42.5 153q0 118 70 180t194 62q31 0 64 -3q12 0 37.5 -1.5t47.5 -1.5q20 0 58 2
l52 1q2 0 2 -6t-2 -6q-43 0 -66 -21t-23 -60l1 -477q0 -130 -38 -189t-124 -59q-22 0 -36.5 11.5z" />
    <glyph glyph-name="periodcentered" unicode="&#xb7;" horiz-adv-x="195" 
d="M69 171.5q-11 10.5 -11 28.5q0 17 11 27t29 10q19 0 29 -10t10 -27q0 -18 -10 -28.5t-29 -10.5q-18 0 -29 10.5z" />
    <glyph glyph-name="cedilla" unicode="&#xb8;" horiz-adv-x="232" 
d="M101.5 -39q-4.5 -16 -4.5 -24q0 -11 6.5 -17t19 -13t19.5 -11q25 -14 39.5 -32t14.5 -45q0 -36 -25.5 -65t-73.5 -29q-26 0 -44 9.5t-18 26.5q0 12 8 19.5t20 7.5q10 0 15.5 -5t10.5 -15q8 -12 15 -18t22 -6q37 0 37 41q0 26 -18.5 46.5t-67.5 46.5q-8 4 -12 7t-4 7
q0 5 6 17q11 28 24 62l10 28l12 -1q-7 -21 -11.5 -37z" />
    <glyph glyph-name="uni00B9" unicode="&#xb9;" horiz-adv-x="262" 
d="M47 408q0 6 2 6q34 0 47.5 4t17.5 17.5t4 47.5v118v41q0 23 -3 32.5t-13 9.5q-8 0 -23.5 -6t-36.5 -16h-1q-4 0 -6.5 4.5t1.5 6.5l110 54q1 1 3 1q3 0 5 -2.5t2 -5.5v-237q0 -34 3.5 -47.5t16.5 -17.5t45 -4q3 0 3 -6t-3 -6l-35 1q-30 2 -48 2q-19 0 -51 -2l-38 -1
q-2 0 -2 6z" />
    <glyph glyph-name="ordmasculine" unicode="&#xba;" horiz-adv-x="313" 
d="M32.5 292q-1.5 4 -1.5 9q0 4 1.5 8t2.5 4h243q2 0 3.5 -4t1.5 -8q0 -13 -5 -13h-242q-2 0 -3.5 4zM60 399.5q-35 40.5 -35 98.5q0 43 21 72.5t53 44.5t65 15q38 0 66.5 -19t44 -50t15.5 -66q0 -37 -19 -68.5t-50.5 -49.5t-68.5 -18q-57 0 -92 40.5zM229.5 401.5
q23.5 27.5 23.5 75.5q0 58 -30.5 97.5t-77.5 39.5q-40 0 -61.5 -25.5t-21.5 -71.5q0 -58 30 -100.5t75 -42.5q39 0 62.5 27.5z" />
    <glyph glyph-name="guillemotright" unicode="&#xbb;" horiz-adv-x="451" 
d="M395 201q0 -8 -4 -12l-175 -149q0 -1 -2 -1t-4 2.5t-1 4.5l130 154l-130 156q-1 2 2.5 5t4.5 0l175 -149q4 -4 4 -11zM248 201q0 -7 -5 -12l-174 -149q0 -1 -2 -1t-4 2.5t-1 4.5l130 154l-130 156q-1 2 2.5 5t4.5 0l174 -149q5 -5 5 -11z" />
    <glyph glyph-name="onequarter" unicode="&#xbc;" horiz-adv-x="598" 
d="M47 314.5q0 5.5 2 5.5q34 0 47.5 4t17.5 17.5t4 47.5v119v41q0 23 -3 32t-12 9q-12 0 -61 -22h-1q-4 0 -6.5 5t1.5 6l110 55h2q3 0 5.5 -2.5t2.5 -4.5v-238q0 -34 3.5 -47.5t16.5 -17.5t45 -4q3 0 3 -5.5t-3 -5.5q-22 0 -35 1l-48 1l-51 -1q-14 -1 -38 -1q-2 0 -2 5.5z
M180 -1q-5 0 -13 4t-7 6l280 617q0 1 3 1q4 0 12 -3.5t7 -5.5l-280 -618q0 -1 -2 -1zM525.5 21.5q2.5 -5.5 11.5 -8t32 -2.5q1 -2 1 -6t-1 -6l-59 1l-76 -1q-1 0 -1 6t1 6q26 0 36.5 2t14.5 8t4 20v235l15 14l-105 -178q-1 -3 2 -3q56 0 134 4l34 2q2 0 2 -13q0 -14 -2 -14
q-108 6 -205 6q-2 0 -3.5 2t0.5 3l154 225q2 2 5 1t3 -3v-281q0 -14 2.5 -19.5z" />
    <glyph glyph-name="onehalf" unicode="&#xbd;" horiz-adv-x="609" 
d="M47 314.5q0 5.5 2 5.5q34 0 47.5 4t17.5 17.5t4 47.5v119v41q0 23 -3 32t-12 9q-12 0 -61 -22h-1q-4 0 -6.5 5t1.5 6l110 55h2q3 0 5.5 -2.5t2.5 -4.5v-238q0 -34 3.5 -47.5t16.5 -17.5t45 -4q3 0 3 -5.5t-3 -5.5q-22 0 -35 1l-48 1l-51 -1q-14 -1 -38 -1q-2 0 -2 5.5z
M180 -1q-5 0 -13 4t-7 6l280 617q0 1 3 1q4 0 12 -3.5t7 -5.5l-280 -618q0 -1 -2 -1zM409 38.5q11 17.5 33 48.5q37 54 57 91t20 70q0 27 -14.5 42.5t-37.5 15.5q-25 0 -43 -16t-24 -42q0 -3 -4 -3q-3 0 -6 1.5t-2 3.5q22 76 94 76q38 0 58 -19.5t20 -50.5
q0 -29 -21.5 -62.5t-60.5 -80.5q-23 -28 -36.5 -46t-18.5 -32q0 -3 3 -3q69 0 93 2.5t32.5 13t18.5 41.5q0 2 2.5 2t2.5 -2l-1 -84q0 -5 -4 -5h-174q-4 0 -3 6q5 15 16 32.5z" />
    <glyph glyph-name="threequarters" unicode="&#xbe;" horiz-adv-x="587" 
d="M188.5 456.5q25.5 -18.5 25.5 -56.5q0 -40 -26.5 -68.5t-72.5 -28.5q-38 0 -61 19t-31 50q-1 4 5 5t7 -3q6 -21 24.5 -38t50.5 -17q28 0 45.5 16t17.5 52q0 38 -21.5 61t-53.5 23q-2 0 -2 6t2 6q29 0 45.5 24t16.5 50q0 24 -15 41t-39 17q-23 0 -41 -16.5t-24 -41.5
q0 -3 -5 -3q-3 0 -5.5 1.5t-1.5 3.5q9 34 32 55t61 21q36 0 57.5 -20t21.5 -51q0 -32 -23 -57.5t-59 -32.5l-1 8q45 -7 70.5 -25.5zM169 -1q-5 0 -13 4t-7 6l280 617q0 1 3 1q4 0 12 -3.5t7 -5.5l-280 -618q0 -1 -2 -1zM514.5 21.5q2.5 -5.5 11.5 -8t32 -2.5q1 -2 1 -6
t-1 -6l-59 1l-76 -1q-1 0 -1 6t1 6q26 0 36.5 2t14.5 8t4 20v235l15 14l-105 -178q-1 -3 2 -3q56 0 134 4l34 2q2 0 2 -13q0 -14 -2 -14q-108 6 -205 6q-2 0 -3.5 2t0.5 3l154 225q2 2 5 1t3 -3v-281q0 -14 2.5 -19.5z" />
    <glyph glyph-name="questiondown" unicode="&#xbf;" horiz-adv-x="327" 
d="M205 -250q9 13 12 35q4 18 11 28t23 10q14 0 22 -9.5t8 -21.5q0 -27 -34 -47t-81 -20q-57 0 -94 31t-37 89q0 42 17.5 69.5t53.5 63.5t50 63t14 61q0 24 -6 55q-1 3 4.5 4t6.5 -2q11 -26 18.5 -61.5t7.5 -57.5q0 -31 -13 -51.5t-39 -45.5q-28 -27 -42.5 -50t-14.5 -60
q0 -43 22 -69.5t56 -26.5q26 0 35 13zM210 350.5q11 -10.5 11 -28.5q0 -17 -11 -27t-29 -10q-19 0 -29 10t-10 27q0 18 10 28.5t29 10.5q18 0 29 -10.5z" />
    <glyph glyph-name="Agrave" unicode="&#xc0;" horiz-adv-x="698" 
d="M209 305h259l7 -18h-275zM698 6q0 -6 -4 -6q-18 0 -58 2q-38 2 -56 2q-21 0 -55 -2q-32 -2 -48 -2q-4 0 -4 6t4 6q41 0 59 7.5t18 25.5q0 14 -11 39l-226 486l19 17l-193 -464q-14 -34 -14 -56q0 -29 24 -42t75 -13q5 0 5 -6t-5 -6q-18 0 -52 2q-38 2 -66 2q-25 0 -59 -2
q-30 -2 -49 -2q-5 0 -5 6t5 6q28 0 47.5 10t37 36t37.5 74l209 503q2 3 6.5 3t5.5 -3l232 -498q23 -51 41 -77.5t35.5 -37t40.5 -10.5q4 0 4 -6zM214 756q-7 1 5.5 8.5t29 13.5t20.5 4q40 -23 84.5 -48t87.5 -45q2 -1 2 -4t-2 -5t-4 -1q-113 50 -223 77z" />
    <glyph glyph-name="Aacute" unicode="&#xc1;" horiz-adv-x="698" 
d="M209 305h259l7 -18h-275zM698 6q0 -6 -4 -6q-18 0 -58 2q-38 2 -56 2q-21 0 -55 -2q-32 -2 -48 -2q-4 0 -4 6t4 6q41 0 59 7.5t18 25.5q0 14 -11 39l-226 486l19 17l-193 -464q-14 -34 -14 -56q0 -29 24 -42t75 -13q5 0 5 -6t-5 -6q-18 0 -52 2q-38 2 -66 2q-25 0 -59 -2
q-30 -2 -49 -2q-5 0 -5 6t5 6q28 0 47.5 10t37 36t37.5 74l209 503q2 3 6.5 3t5.5 -3l232 -498q23 -51 41 -77.5t35.5 -37t40.5 -10.5q4 0 4 -6zM240 678q-4 0 -5.5 4.5t1.5 6.5q40 18 114 60l58 32q4 2 20.5 -3.5t29 -13t5.5 -8.5q-118 -30 -222 -78h-1z" />
    <glyph glyph-name="Acircumflex" unicode="&#xc2;" horiz-adv-x="698" 
d="M209 305h259l7 -18h-275zM698 6q0 -6 -4 -6q-18 0 -58 2q-38 2 -56 2q-21 0 -55 -2q-32 -2 -48 -2q-4 0 -4 6t4 6q41 0 59 7.5t18 25.5q0 14 -11 39l-226 486l19 17l-193 -464q-14 -34 -14 -56q0 -29 24 -42t75 -13q5 0 5 -6t-5 -6q-18 0 -52 2q-38 2 -66 2q-25 0 -59 -2
q-30 -2 -49 -2q-5 0 -5 6t5 6q28 0 47.5 10t37 36t37.5 74l209 503q2 3 6.5 3t5.5 -3l232 -498q23 -51 41 -77.5t35.5 -37t40.5 -10.5q4 0 4 -6zM338 785q6 0 11 -5l102 -92q1 0 1 -2t-2.5 -4t-3.5 -1l-108 62l-109 -62q-2 -1 -5 2.5t-1 4.5l103 92q5 5 12 5z" />
    <glyph glyph-name="Atilde" unicode="&#xc3;" horiz-adv-x="698" 
d="M209 305h259l7 -18h-275zM698 6q0 -6 -4 -6q-18 0 -58 2q-38 2 -56 2q-21 0 -55 -2q-32 -2 -48 -2q-4 0 -4 6t4 6q41 0 59 7.5t18 25.5q0 14 -11 39l-226 486l19 17l-193 -464q-14 -34 -14 -56q0 -29 24 -42t75 -13q5 0 5 -6t-5 -6q-18 0 -52 2q-38 2 -66 2q-25 0 -59 -2
q-30 -2 -49 -2q-5 0 -5 6t5 6q28 0 47.5 10t37 36t37.5 74l209 503q2 3 6.5 3t5.5 -3l232 -498q23 -51 41 -77.5t35.5 -37t40.5 -10.5q4 0 4 -6zM442.5 759q10.5 7 21.5 20h1q3 0 5.5 -2.5t0.5 -4.5q-26 -34 -43 -46t-35 -12q-15 0 -31 3.5t-32 8.5t-34 9t-35 4
q-16 0 -24.5 -5.5t-15 -12l-9.5 -9.5h-2q-3 0 -5 2.5t0 4.5q16 22 38.5 39.5t45.5 17.5q14 0 31.5 -4.5t20.5 -5.5q44 -14 74 -14q17 0 27.5 7z" />
    <glyph glyph-name="Adieresis" unicode="&#xc4;" horiz-adv-x="698" 
d="M209 305h259l7 -18h-275zM698 6q0 -6 -4 -6q-18 0 -58 2q-38 2 -56 2q-21 0 -55 -2q-32 -2 -48 -2q-4 0 -4 6t4 6q41 0 59 7.5t18 25.5q0 14 -11 39l-226 486l19 17l-193 -464q-14 -34 -14 -56q0 -29 24 -42t75 -13q5 0 5 -6t-5 -6q-18 0 -52 2q-38 2 -66 2q-25 0 -59 -2
q-30 -2 -49 -2q-5 0 -5 6t5 6q28 0 47.5 10t37 36t37.5 74l209 503q2 3 6.5 3t5.5 -3l232 -498q23 -51 41 -77.5t35.5 -37t40.5 -10.5q4 0 4 -6zM221.5 730q-10.5 10 -10.5 28t10.5 28t29.5 10q18 0 28 -10t10 -28t-10 -28t-28 -10q-19 0 -29.5 10zM397 730q-11 10 -11 28
t11 28t29 10q19 0 29 -10t10 -28t-10 -28t-29 -10q-18 0 -29 10z" />
    <glyph glyph-name="Aring" unicode="&#xc5;" horiz-adv-x="698" 
d="M209 305h259l7 -18h-275zM698 6q0 -6 -4 -6q-18 0 -58 2q-38 2 -56 2q-21 0 -55 -2q-32 -2 -48 -2q-4 0 -4 6t4 6q41 0 59 7.5t18 25.5q0 14 -11 39l-226 486l19 17l-193 -464q-14 -34 -14 -56q0 -29 24 -42t75 -13q5 0 5 -6t-5 -6q-18 0 -52 2q-38 2 -66 2q-25 0 -59 -2
q-30 -2 -49 -2q-5 0 -5 6t5 6q28 0 47.5 10t37 36t37.5 74l209 503q2 3 6.5 3t5.5 -3l232 -498q23 -51 41 -77.5t35.5 -37t40.5 -10.5q4 0 4 -6zM274 689q-23 24 -23 56q0 36 28.5 56.5t64.5 20.5q34 0 58.5 -23t24.5 -56q0 -35 -28.5 -56.5t-64.5 -21.5q-37 0 -60 24z
M378.5 687q9.5 12 9.5 38q0 36 -18.5 62t-45.5 26q-19 0 -27 -11.5t-8 -36.5q0 -34 16.5 -62t43.5 -28q20 0 29.5 12z" />
    <glyph glyph-name="AE" unicode="&#xc6;" horiz-adv-x="871" 
d="M1 6q0 6 4 6q29 0 68 32.5t78 87.5l307 442q13 18 13 25q0 9 -16.5 11.5t-60.5 2.5q-2 0 -2 6t2 6h384q9 0 9 -9l2 -121q0 -3 -5.5 -3t-5.5 3q0 49 -27 80t-71 31h-58q-38 0 -55.5 -5t-24 -17.5t-6.5 -40.5v-458q0 -29 6.5 -42.5t24 -18.5t55.5 -5h81q40 0 68.5 35
t36.5 92q0 3 6 2.5t6 -3.5q-9 -63 -9 -130q0 -8 -3.5 -11.5t-12.5 -3.5h-401q-2 0 -2 6t2 6q39 0 57.5 5t25 19.5t6.5 44.5v507l22 16l-334 -481q-31 -45 -31 -70q0 -41 79 -41q5 0 5 -6t-5 -6q-18 0 -52 2q-38 2 -66 2q-23 0 -53 -2q-28 -2 -43 -2q-4 0 -4 6zM305 335h206
l7 -19h-228zM720 298q-19 18 -67 18h-142v19h145q46 0 64 15.5t18 53.5q0 2 6 2t6 -2l-1 -79q0 -29 1 -43l1 -47q0 -2 -6 -2t-6 2q0 45 -19 63z" />
    <glyph glyph-name="Ccedilla" unicode="&#xc7;" horiz-adv-x="687" 
d="M515 626.5q42 -9.5 89 -33.5q6 -4 7.5 -6.5t2.5 -15.5l12 -114q0 -3 -5.5 -3.5t-6.5 2.5q-22 83 -73 124.5t-134 41.5q-88 0 -154.5 -37t-103 -105.5t-36.5 -159.5q0 -85 40.5 -158.5t109 -117t146.5 -43.5q166 0 212 163q0 2 5 2q7 0 7 -3l-8 -106q-1 -12 -3 -15t-8 -7
q-52 -27 -97.5 -37.5t-108.5 -10.5q-104 0 -185.5 41.5t-127.5 117t-46 173.5q0 94 46 166t127.5 111.5t184.5 39.5q66 0 108 -9.5zM399.5 -39q-4.5 -16 -4.5 -24q0 -11 6.5 -17t19 -13t19.5 -11q25 -14 39.5 -32t14.5 -45q0 -36 -25.5 -65t-73.5 -29q-26 0 -44 9.5
t-18 26.5q0 12 8 19.5t20 7.5q10 0 15.5 -5t10.5 -15q8 -12 15 -18t22 -6q37 0 37 41q0 26 -18.5 46.5t-67.5 46.5q-8 4 -12 7t-4 7q0 5 6 17q11 28 24 62l10 28l12 -1q-7 -21 -11.5 -37z" />
    <glyph glyph-name="Egrave" unicode="&#xc8;" horiz-adv-x="533" 
d="M42 6q0 6 2 6q39 0 57.5 5t25 19.5t6.5 44.5v463q0 30 -6.5 44t-25 19.5t-57.5 5.5q-2 0 -2 6t2 6h396q9 0 9 -9l2 -121q0 -3 -5.5 -3t-5.5 3q0 51 -27 81t-71 30h-69q-38 0 -56 -5t-24.5 -19t-6.5 -44v-453q0 -29 6.5 -42.5t24 -18.5t56.5 -5h92q40 0 68.5 35t36.5 92
q0 3 6 2.5t6 -3.5q-9 -63 -9 -130q0 -8 -3.5 -11.5t-12.5 -3.5h-413q-2 0 -2 6zM382 298q-19 18 -67 18h-154v19h157q46 0 64 15.5t18 53.5q0 2 6 2t6 -2l-1 -79q0 -29 1 -43l1 -47q0 -2 -6 -2t-6 2q0 45 -19 63zM166 756q-7 1 5.5 8.5t29 13.5t20.5 4q40 -23 84.5 -48
t87.5 -45q2 -1 2 -4t-2 -5t-4 -1q-113 50 -223 77z" />
    <glyph glyph-name="Eacute" unicode="&#xc9;" horiz-adv-x="533" 
d="M42 6q0 6 2 6q39 0 57.5 5t25 19.5t6.5 44.5v463q0 30 -6.5 44t-25 19.5t-57.5 5.5q-2 0 -2 6t2 6h396q9 0 9 -9l2 -121q0 -3 -5.5 -3t-5.5 3q0 51 -27 81t-71 30h-69q-38 0 -56 -5t-24.5 -19t-6.5 -44v-453q0 -29 6.5 -42.5t24 -18.5t56.5 -5h92q40 0 68.5 35t36.5 92
q0 3 6 2.5t6 -3.5q-9 -63 -9 -130q0 -8 -3.5 -11.5t-12.5 -3.5h-413q-2 0 -2 6zM382 298q-19 18 -67 18h-154v19h157q46 0 64 15.5t18 53.5q0 2 6 2t6 -2l-1 -79q0 -29 1 -43l1 -47q0 -2 -6 -2t-6 2q0 45 -19 63zM191 678q-4 0 -5 4.5t2 6.5q46 21 122 65l50 28q4 2 20.5 -4
t29 -13.5t5.5 -8.5q-62 -15 -113.5 -33.5t-108.5 -43.5z" />
    <glyph glyph-name="Ecircumflex" unicode="&#xca;" horiz-adv-x="533" 
d="M42 6q0 6 2 6q39 0 57.5 5t25 19.5t6.5 44.5v463q0 30 -6.5 44t-25 19.5t-57.5 5.5q-2 0 -2 6t2 6h396q9 0 9 -9l2 -121q0 -3 -5.5 -3t-5.5 3q0 51 -27 81t-71 30h-69q-38 0 -56 -5t-24.5 -19t-6.5 -44v-453q0 -29 6.5 -42.5t24 -18.5t56.5 -5h92q40 0 68.5 35t36.5 92
q0 3 6 2.5t6 -3.5q-9 -63 -9 -130q0 -8 -3.5 -11.5t-12.5 -3.5h-413q-2 0 -2 6zM382 298q-19 18 -67 18h-154v19h157q46 0 64 15.5t18 53.5q0 2 6 2t6 -2l-1 -79q0 -29 1 -43l1 -47q0 -2 -6 -2t-6 2q0 45 -19 63zM291 788q6 0 11 -5l102 -93q1 0 1 -2t-2.5 -4t-3.5 -1
l-108 62l-109 -62q-2 -1 -5 2.5t-1 4.5l103 93q5 5 12 5z" />
    <glyph glyph-name="Edieresis" unicode="&#xcb;" horiz-adv-x="533" 
d="M42 6q0 6 2 6q39 0 57.5 5t25 19.5t6.5 44.5v463q0 30 -6.5 44t-25 19.5t-57.5 5.5q-2 0 -2 6t2 6h396q9 0 9 -9l2 -121q0 -3 -5.5 -3t-5.5 3q0 51 -27 81t-71 30h-69q-38 0 -56 -5t-24.5 -19t-6.5 -44v-453q0 -29 6.5 -42.5t24 -18.5t56.5 -5h92q40 0 68.5 35t36.5 92
q0 3 6 2.5t6 -3.5q-9 -63 -9 -130q0 -8 -3.5 -11.5t-12.5 -3.5h-413q-2 0 -2 6zM382 298q-19 18 -67 18h-154v19h157q46 0 64 15.5t18 53.5q0 2 6 2t6 -2l-1 -79q0 -29 1 -43l1 -47q0 -2 -6 -2t-6 2q0 45 -19 63zM173.5 730q-10.5 10 -10.5 28t10.5 28t29.5 10q18 0 28 -10
t10 -28t-10 -28t-28 -10q-19 0 -29.5 10zM349 730q-11 10 -11 28t11 28t29 10q19 0 29 -10t10 -28t-10 -28t-29 -10q-18 0 -29 10z" />
    <glyph glyph-name="Igrave" unicode="&#xcc;" horiz-adv-x="330" 
d="M198.5 36q6.5 -14 24.5 -19t58 -5q2 0 2 -6t-2 -6q-30 0 -47 1l-70 1l-67 -1q-18 -1 -49 -1q-3 0 -3 6t3 6q39 0 57.5 5t25.5 19.5t7 44.5v463q0 30 -7 44t-25.5 19.5t-57.5 5.5q-3 0 -3 6t3 6l49 -1q42 -2 67 -2q28 0 70 2l47 1q2 0 2 -6t-2 -6q-39 0 -57.5 -6
t-25 -20.5t-6.5 -44.5v-461q0 -31 6.5 -45zM41 756q-7 1 5.5 8.5t29 13.5t20.5 4q40 -23 84.5 -48t87.5 -45q2 -1 2 -4t-2 -5t-4 -1q-113 50 -223 77z" />
    <glyph glyph-name="Iacute" unicode="&#xcd;" horiz-adv-x="330" 
d="M198.5 36q6.5 -14 24.5 -19t58 -5q2 0 2 -6t-2 -6q-30 0 -47 1l-70 1l-67 -1q-18 -1 -49 -1q-3 0 -3 6t3 6q39 0 57.5 5t25.5 19.5t7 44.5v463q0 30 -7 44t-25.5 19.5t-57.5 5.5q-3 0 -3 6t3 6l49 -1q42 -2 67 -2q28 0 70 2l47 1q2 0 2 -6t-2 -6q-39 0 -57.5 -6
t-25 -20.5t-6.5 -44.5v-461q0 -31 6.5 -45zM66 678q-4 0 -5 4.5t2 6.5q46 21 122 65l50 28q4 2 20.5 -4t29 -13.5t5.5 -8.5q-62 -15 -113.5 -33.5t-108.5 -43.5z" />
    <glyph glyph-name="Icircumflex" unicode="&#xce;" horiz-adv-x="330" 
d="M198.5 36q6.5 -14 24.5 -19t58 -5q2 0 2 -6t-2 -6q-30 0 -47 1l-70 1l-67 -1q-18 -1 -49 -1q-3 0 -3 6t3 6q39 0 57.5 5t25.5 19.5t7 44.5v463q0 30 -7 44t-25.5 19.5t-57.5 5.5q-3 0 -3 6t3 6l49 -1q42 -2 67 -2q28 0 70 2l47 1q2 0 2 -6t-2 -6q-39 0 -57.5 -6
t-25 -20.5t-6.5 -44.5v-461q0 -31 6.5 -45zM166 788q6 0 11 -5l102 -93q1 0 1 -2t-2.5 -4t-3.5 -1l-108 62l-109 -62q-2 -1 -5 2.5t-1 4.5l103 93q5 5 12 5z" />
    <glyph glyph-name="Idieresis" unicode="&#xcf;" horiz-adv-x="330" 
d="M198.5 36q6.5 -14 24.5 -19t58 -5q2 0 2 -6t-2 -6q-30 0 -47 1l-70 1l-67 -1q-18 -1 -49 -1q-3 0 -3 6t3 6q39 0 57.5 5t25.5 19.5t7 44.5v463q0 30 -7 44t-25.5 19.5t-57.5 5.5q-3 0 -3 6t3 6l49 -1q42 -2 67 -2q28 0 70 2l47 1q2 0 2 -6t-2 -6q-39 0 -57.5 -6
t-25 -20.5t-6.5 -44.5v-461q0 -31 6.5 -45zM66 730q-11 10 -11 28t11 28t29 10q19 0 29 -10t10 -28t-10 -28t-29 -10q-18 0 -29 10zM206.5 730q-10.5 10 -10.5 28t10.5 28t29.5 10q18 0 28 -10t10 -28t-10 -28t-28 -10q-19 0 -29.5 10z" />
    <glyph glyph-name="Eth" unicode="&#xd0;" horiz-adv-x="688" 
d="M49 311q0 9 4 9h262q4 0 4 -9t-4 -9h-262q-4 0 -4 9zM232 -1q-14 1 -34.5 2t-45.5 1l-66 -1q-18 -1 -50 -1q-2 0 -2 6t2 6q39 0 57.5 5t25.5 19.5t7 44.5v463q0 30 -6.5 44t-25 19.5t-57.5 5.5q-2 0 -2 6t2 6l49 -1q42 -2 66 -2q35 0 71 3q44 2 60 2q105 0 186 -40
t125.5 -109t44.5 -155q0 -97 -46.5 -171.5t-124.5 -115t-171 -40.5q-29 0 -65 3zM436 43q65 34 101.5 100t36.5 158q0 88 -34.5 159t-99 112.5t-148.5 41.5q-44 0 -67.5 -5t-34.5 -20.5t-11 -46.5v-450q0 -30 9 -48t32 -26.5t67 -8.5q84 0 149 34z" />
    <glyph glyph-name="Ntilde" unicode="&#xd1;" horiz-adv-x="725" 
d="M118 602l22 -2v-496q0 -51 17 -71.5t59 -20.5q3 0 3 -6t-3 -6q-24 0 -37 1l-48 1l-49 -1q-13 -1 -39 -1q-2 0 -2 6t2 6q43 0 59 20t16 72v498zM616 -14q-5 -1 -7 1l-452 556q-32 39 -58.5 54.5t-52.5 15.5q-3 0 -3 6t3 6l36 -1q11 -1 31 -1q17 0 28 1t17 1q7 0 11.5 -3.5
t10.5 -14.5q11 -18 24 -34l409 -508l8 -76q0 -2 -5 -3zM621 -11l-22 31v500q0 51 -16 72t-58 21q-2 0 -2 6t2 6l38 -1q30 -2 48 -2q17 0 49 2l39 1q3 0 3 -6t-3 -6q-43 0 -60.5 -21t-17.5 -72v-531zM478.5 759q10.5 7 21.5 20h1q3 0 5.5 -2.5t0.5 -4.5q-26 -34 -43 -46
t-35 -12q-15 0 -31 3.5t-32 8.5t-34 9t-35 4q-16 0 -24.5 -5.5t-15 -12l-9.5 -9.5h-2q-3 0 -5 2.5t0 4.5q16 22 38.5 39.5t45.5 17.5q14 0 31.5 -4.5t20.5 -5.5q44 -14 74 -14q17 0 27.5 7z" />
    <glyph glyph-name="Ograve" unicode="&#xd2;" horiz-adv-x="766" 
d="M200.5 31.5q-72.5 43.5 -112 118t-39.5 162.5q0 103 52 176.5t133.5 110.5t166.5 37q95 0 167 -44.5t110.5 -117.5t38.5 -155q0 -91 -48 -167t-128.5 -120t-174.5 -44q-93 0 -165.5 43.5zM530 41q57 33 90 97t33 153q0 94 -36.5 167.5t-103 114.5t-154.5 41
q-116 0 -181 -72t-65 -196q0 -93 36.5 -170.5t102.5 -122.5t150 -45q71 0 128 33zM260 756q-7 1 5.5 8.5t29 13.5t20.5 4q40 -23 84.5 -48t87.5 -45q2 -1 2 -4t-2 -5t-4 -1q-113 50 -223 77z" />
    <glyph glyph-name="Oacute" unicode="&#xd3;" horiz-adv-x="766" 
d="M200.5 31.5q-72.5 43.5 -112 118t-39.5 162.5q0 103 52 176.5t133.5 110.5t166.5 37q95 0 167 -44.5t110.5 -117.5t38.5 -155q0 -91 -48 -167t-128.5 -120t-174.5 -44q-93 0 -165.5 43.5zM530 41q57 33 90 97t33 153q0 94 -36.5 167.5t-103 114.5t-154.5 41
q-116 0 -181 -72t-65 -196q0 -93 36.5 -170.5t102.5 -122.5t150 -45q71 0 128 33zM285 678q-4 0 -5 4.5t2 6.5q46 21 122 65l50 28q4 2 20.5 -4t29 -13.5t5.5 -8.5q-62 -15 -113.5 -33.5t-108.5 -43.5z" />
    <glyph glyph-name="Ocircumflex" unicode="&#xd4;" horiz-adv-x="766" 
d="M200.5 31.5q-72.5 43.5 -112 118t-39.5 162.5q0 103 52 176.5t133.5 110.5t166.5 37q95 0 167 -44.5t110.5 -117.5t38.5 -155q0 -91 -48 -167t-128.5 -120t-174.5 -44q-93 0 -165.5 43.5zM530 41q57 33 90 97t33 153q0 94 -36.5 167.5t-103 114.5t-154.5 41
q-116 0 -181 -72t-65 -196q0 -93 36.5 -170.5t102.5 -122.5t150 -45q71 0 128 33zM385 788q6 0 11 -5l102 -93q1 0 1 -2t-2.5 -4t-3.5 -1l-108 62l-109 -62q-2 -1 -5 2.5t-1 4.5l103 93q5 5 12 5z" />
    <glyph glyph-name="Otilde" unicode="&#xd5;" horiz-adv-x="766" 
d="M200.5 31.5q-72.5 43.5 -112 118t-39.5 162.5q0 103 52 176.5t133.5 110.5t166.5 37q95 0 167 -44.5t110.5 -117.5t38.5 -155q0 -91 -48 -167t-128.5 -120t-174.5 -44q-93 0 -165.5 43.5zM530 41q57 33 90 97t33 153q0 94 -36.5 167.5t-103 114.5t-154.5 41
q-116 0 -181 -72t-65 -196q0 -93 36.5 -170.5t102.5 -122.5t150 -45q71 0 128 33zM488.5 759q10.5 7 21.5 20h1q3 0 5.5 -2.5t0.5 -4.5q-26 -34 -43 -46t-35 -12q-15 0 -31 3.5t-32 8.5t-34 9t-35 4q-16 0 -24.5 -5.5t-15 -12l-9.5 -9.5h-2q-3 0 -5 2.5t0 4.5
q16 22 38.5 39.5t45.5 17.5q14 0 31.5 -4.5t20.5 -5.5q44 -14 74 -14q17 0 27.5 7z" />
    <glyph glyph-name="Odieresis" unicode="&#xd6;" horiz-adv-x="766" 
d="M200.5 31.5q-72.5 43.5 -112 118t-39.5 162.5q0 103 52 176.5t133.5 110.5t166.5 37q95 0 167 -44.5t110.5 -117.5t38.5 -155q0 -91 -48 -167t-128.5 -120t-174.5 -44q-93 0 -165.5 43.5zM530 41q57 33 90 97t33 153q0 94 -36.5 167.5t-103 114.5t-154.5 41
q-116 0 -181 -72t-65 -196q0 -93 36.5 -170.5t102.5 -122.5t150 -45q71 0 128 33zM267.5 730q-10.5 10 -10.5 28t10.5 28t29.5 10q18 0 28 -10t10 -28t-10 -28t-28 -10q-19 0 -29.5 10zM443 730q-11 10 -11 28t11 28t29 10q19 0 29 -10t10 -28t-10 -28t-29 -10q-18 0 -29 10
z" />
    <glyph glyph-name="multiply" unicode="&#xd7;" horiz-adv-x="378" 
d="M69.5 69.5q-13.5 13.5 -11.5 15.5l234 234q4 3 17 -10t10 -17l-234 -232q-2 -4 -15.5 9.5zM69.5 309.5q13.5 13.5 15.5 10.5l234 -233q3 -4 -10 -17t-17 -10l-232 234q-4 2 9.5 15.5z" />
    <glyph glyph-name="Oslash" unicode="&#xd8;" horiz-adv-x="766" 
d="M75 -8q-3 0 -8 6t-3 9l613 622l2 1q5 0 10 -5t2 -7l-614 -625q0 -1 -2 -1zM200.5 31.5q-72.5 43.5 -112 118t-39.5 162.5q0 103 52 176.5t133.5 110.5t166.5 37q95 0 167 -44.5t110.5 -117.5t38.5 -155q0 -91 -48 -167t-128.5 -120t-174.5 -44q-93 0 -165.5 43.5zM530 41
q57 33 90 97t33 153q0 94 -36.5 167.5t-103 114.5t-154.5 41q-116 0 -181 -72t-65 -196q0 -93 36.5 -170.5t102.5 -122.5t150 -45q71 0 128 33z" />
    <glyph glyph-name="Ugrave" unicode="&#xd9;" horiz-adv-x="697" 
d="M551.5 590.5q-20.5 22.5 -64.5 22.5q-3 0 -3 6t3 6l42 -1q34 -2 55 -2q18 0 48 2l41 1q2 0 2 -6t-2 -6q-41 0 -60 -22.5t-19 -70.5v-286q0 -117 -63 -182t-170 -65q-74 0 -129 29.5t-85 83.5t-30 125v319q0 30 -6.5 44t-25 19.5t-57.5 5.5q-2 0 -2 6t2 6l48 -1
q42 -2 67 -2q27 0 69 2l46 1q3 0 3 -6t-3 -6q-39 0 -57 -6t-24.5 -20.5t-6.5 -44.5v-282q0 -117 55 -180.5t154 -63.5q91 0 142 57.5t51 159.5v287q0 48 -20.5 70.5zM250 756q-7 1 5.5 8.5t29 13.5t20.5 4q40 -23 84.5 -48t87.5 -45q2 -1 2 -4t-2 -5t-4 -1q-113 50 -223 77z
" />
    <glyph glyph-name="Uacute" unicode="&#xda;" horiz-adv-x="697" 
d="M551.5 590.5q-20.5 22.5 -64.5 22.5q-3 0 -3 6t3 6l42 -1q34 -2 55 -2q18 0 48 2l41 1q2 0 2 -6t-2 -6q-41 0 -60 -22.5t-19 -70.5v-286q0 -117 -63 -182t-170 -65q-74 0 -129 29.5t-85 83.5t-30 125v319q0 30 -6.5 44t-25 19.5t-57.5 5.5q-2 0 -2 6t2 6l48 -1
q42 -2 67 -2q27 0 69 2l46 1q3 0 3 -6t-3 -6q-39 0 -57 -6t-24.5 -20.5t-6.5 -44.5v-282q0 -117 55 -180.5t154 -63.5q91 0 142 57.5t51 159.5v287q0 48 -20.5 70.5zM275 678q-4 0 -5 4.5t2 6.5q46 21 122 65l50 28q4 2 20.5 -4t29 -13.5t5.5 -8.5q-62 -15 -113.5 -33.5
t-108.5 -43.5z" />
    <glyph glyph-name="Ucircumflex" unicode="&#xdb;" horiz-adv-x="697" 
d="M551.5 590.5q-20.5 22.5 -64.5 22.5q-3 0 -3 6t3 6l42 -1q34 -2 55 -2q18 0 48 2l41 1q2 0 2 -6t-2 -6q-41 0 -60 -22.5t-19 -70.5v-286q0 -117 -63 -182t-170 -65q-74 0 -129 29.5t-85 83.5t-30 125v319q0 30 -6.5 44t-25 19.5t-57.5 5.5q-2 0 -2 6t2 6l48 -1
q42 -2 67 -2q27 0 69 2l46 1q3 0 3 -6t-3 -6q-39 0 -57 -6t-24.5 -20.5t-6.5 -44.5v-282q0 -117 55 -180.5t154 -63.5q91 0 142 57.5t51 159.5v287q0 48 -20.5 70.5zM375 788q6 0 11 -5l102 -93q1 0 1 -2t-2.5 -4t-3.5 -1l-108 62l-109 -62q-2 -1 -5 2.5t-1 4.5l103 93
q5 5 12 5z" />
    <glyph glyph-name="Udieresis" unicode="&#xdc;" horiz-adv-x="697" 
d="M551.5 590.5q-20.5 22.5 -64.5 22.5q-3 0 -3 6t3 6l42 -1q34 -2 55 -2q18 0 48 2l41 1q2 0 2 -6t-2 -6q-41 0 -60 -22.5t-19 -70.5v-286q0 -117 -63 -182t-170 -65q-74 0 -129 29.5t-85 83.5t-30 125v319q0 30 -6.5 44t-25 19.5t-57.5 5.5q-2 0 -2 6t2 6l48 -1
q42 -2 67 -2q27 0 69 2l46 1q3 0 3 -6t-3 -6q-39 0 -57 -6t-24.5 -20.5t-6.5 -44.5v-282q0 -117 55 -180.5t154 -63.5q91 0 142 57.5t51 159.5v287q0 48 -20.5 70.5zM257.5 730q-10.5 10 -10.5 28t10.5 28t29.5 10q18 0 28 -10t10 -28t-10 -28t-28 -10q-19 0 -29.5 10z
M433 730q-11 10 -11 28t11 28t29 10q19 0 29 -10t10 -28t-10 -28t-29 -10q-18 0 -29 10z" />
    <glyph glyph-name="Yacute" unicode="&#xdd;" horiz-adv-x="607" 
d="M475 581q0 32 -54 32q-2 0 -2 6t2 6l45 -1q38 -2 67 -2q17 0 41 2l37 1q2 0 2 -6t-2 -6q-37 0 -72 -23.5t-63 -66.5l-163 -247l-16 14l156 236q22 36 22 55zM60 597q-25 16 -62 16q-3 0 -3 6t3 6l37 -1q24 -2 36 -2q33 0 81 2l52 1q2 0 2 -6t-2 -6q-30 0 -43.5 -4.5
t-13.5 -14.5q0 -6 10 -21l178 -256l-37 -46l-187 271q-26 39 -51 55zM335 319v-238q0 -31 6 -45t24 -19t58 -5q3 0 3 -6t-3 -6q-30 0 -47 1l-68 1l-68 -1q-18 -1 -48 -1q-3 0 -3 6t3 6q39 0 57.5 5t25.5 19.5t7 44.5v229zM217 678q-4 0 -5 4.5t2 6.5q46 21 122 65l50 28
q4 2 20.5 -4t29 -13.5t5.5 -8.5q-62 -15 -113.5 -33.5t-108.5 -43.5z" />
    <glyph glyph-name="Thorn" unicode="&#xde;" horiz-adv-x="535" 
d="M126.5 588q-6.5 14 -25 19.5t-57.5 5.5q-2 0 -2 6t2 6l50 -1q40 -2 66 -2q35 0 87 2l64 1q3 0 3 -6t-3 -6q-56 0 -81.5 -6t-34.5 -21t-9 -47v-454q0 -32 9 -46.5t34.5 -20.5t81.5 -6q3 0 3 -6t-3 -6q-41 0 -64 1l-87 1l-66 -1q-18 -1 -50 -1q-2 0 -2 6t2 6q39 0 57.5 5
t25 19.5t6.5 44.5v463q0 30 -6.5 44zM281 499q98 0 157 -40t59 -130q0 -65 -33 -109t-84 -65.5t-104 -21.5q-24 0 -49 5q-3 0 -3 5q0 3 1.5 6t3.5 2q24 -4 36 -4q71 0 120.5 43.5t49.5 125.5q0 80 -49.5 125.5t-129.5 45.5q-47 0 -97 -16l-8 12q55 16 130 16z" />
    <glyph glyph-name="germandbls" unicode="&#xdf;" horiz-adv-x="491" 
d="M275.5 5.5q-22.5 16.5 -22.5 44.5q0 10 5.5 17.5t18.5 7.5q10 0 16.5 -6t11 -13t6.5 -9q11 -19 22 -29t31 -10q27 0 45.5 19t18.5 50q0 37 -20.5 67.5t-60.5 70.5q-42 42 -64.5 76t-22.5 75q0 31 12 54.5t35 53.5q25 33 38 59t13 62q0 45 -20 81t-71 36q-60 0 -94 -70.5
t-34 -195.5v-365q0 -30 5 -44.5t18.5 -19.5t43.5 -5q2 0 2 -6t-2 -6l-90 1l-96 -1q-3 0 -3 6t3 6q31 0 45.5 5t20 19.5t5.5 44.5v232q0 27 -4 37.5t-18.5 14t-50.5 3.5q-4 0 -4 6t4 6q33 0 47 6t18 18t7 44q11 146 58.5 212t139.5 66q62 0 90.5 -31t28.5 -68
q0 -32 -14.5 -57.5t-42.5 -59.5q-27 -32 -40 -54.5t-13 -49.5q0 -32 20.5 -61.5t61.5 -71.5q45 -48 67.5 -81.5t22.5 -72.5q0 -32 -16.5 -62t-47 -49t-70.5 -19q-37 0 -59.5 16.5z" />
    <glyph glyph-name="agrave" unicode="&#xe0;" horiz-adv-x="419" 
d="M305 -8q-13 0 -22.5 22t-9.5 60v193q0 110 -68 110q-34 0 -53 -21.5t-26 -50.5q-4 -18 -9.5 -27.5t-22.5 -9.5q-14 0 -22 8.5t-8 19.5q0 22 29.5 45.5t71.5 39t75 15.5q40 0 59.5 -26t19.5 -73v-189q0 -37 8.5 -53t29.5 -16q19 0 55 15h2q4 0 5 -4.5t-3 -6.5l-103 -49
q-4 -2 -8 -2zM80.5 13q-20.5 20 -20.5 48t22 50.5t76 42.5l125 47l2 -13l-118 -45q-29 -12 -40 -26t-11 -33q0 -24 15 -41t42 -17q22 0 52 17l67 39l2 -12l-75 -47q-25 -16 -44 -23t-39 -7q-35 0 -55.5 20zM130.5 730.5q12.5 -1.5 26.5 -6t14 -8.5l56 -240q2 -2 -3.5 -3.5
t-6.5 1.5l-97 253q-2 5 10.5 3.5z" />
    <glyph glyph-name="aacute" unicode="&#xe1;" horiz-adv-x="419" 
d="M305 -8q-13 0 -22.5 22t-9.5 60v193q0 110 -68 110q-34 0 -53 -21.5t-26 -50.5q-4 -18 -9.5 -27.5t-22.5 -9.5q-14 0 -22 8.5t-8 19.5q0 22 29.5 45.5t71.5 39t75 15.5q40 0 59.5 -26t19.5 -73v-189q0 -37 8.5 -53t29.5 -16q19 0 55 15h2q4 0 5 -4.5t-3 -6.5l-103 -49
q-4 -2 -8 -2zM80.5 13q-20.5 20 -20.5 48t22 50.5t76 42.5l125 47l2 -13l-118 -45q-29 -12 -40 -26t-11 -33q0 -24 15 -41t42 -17q22 0 52 17l67 39l2 -12l-75 -47q-25 -16 -44 -23t-39 -7q-35 0 -55.5 20zM205 472q-3 0 -5.5 1.5t-1.5 2.5l57 240q1 4 14.5 8.5t26 6
t10.5 -3.5l-97 -253q0 -2 -4 -2z" />
    <glyph glyph-name="acircumflex" unicode="&#xe2;" horiz-adv-x="419" 
d="M305 -8q-13 0 -22.5 22t-9.5 60v193q0 110 -68 110q-34 0 -53 -21.5t-26 -50.5q-4 -18 -9.5 -27.5t-22.5 -9.5q-14 0 -22 8.5t-8 19.5q0 22 29.5 45.5t71.5 39t75 15.5q40 0 59.5 -26t19.5 -73v-189q0 -37 8.5 -53t29.5 -16q19 0 55 15h2q4 0 5 -4.5t-3 -6.5l-103 -49
q-4 -2 -8 -2zM80.5 13q-20.5 20 -20.5 48t22 50.5t76 42.5l125 47l2 -13l-118 -45q-29 -12 -40 -26t-11 -33q0 -24 15 -41t42 -17q22 0 52 17l67 39l2 -12l-75 -47q-25 -16 -44 -23t-39 -7q-35 0 -55.5 20zM286.5 472.5q-5.5 -1.5 -6.5 1.5l-68 179l-69 -179q0 -2 -4 -2
q-3 0 -5.5 1.5t-1.5 2.5l68 249q1 5 11 5q11 0 12 -5l67 -249q2 -2 -3.5 -3.5z" />
    <glyph glyph-name="atilde" unicode="&#xe3;" horiz-adv-x="419" 
d="M305 -8q-13 0 -22.5 22t-9.5 60v193q0 110 -68 110q-34 0 -53 -21.5t-26 -50.5q-4 -18 -9.5 -27.5t-22.5 -9.5q-14 0 -22 8.5t-8 19.5q0 22 29.5 45.5t71.5 39t75 15.5q40 0 59.5 -26t19.5 -73v-189q0 -37 8.5 -53t29.5 -16q19 0 55 15h2q4 0 5 -4.5t-3 -6.5l-103 -49
q-4 -2 -8 -2zM80.5 13q-20.5 20 -20.5 48t22 50.5t76 42.5l125 47l2 -13l-118 -45q-29 -12 -40 -26t-11 -33q0 -24 15 -41t42 -17q22 0 52 17l67 39l2 -12l-75 -47q-25 -16 -44 -23t-39 -7q-35 0 -55.5 20zM315.5 529q10.5 7 21.5 20h1q3 0 5.5 -2.5t0.5 -4.5
q-26 -34 -43 -46t-35 -12q-15 0 -31 3.5t-32 8.5t-34 9t-35 4q-16 0 -24.5 -5.5t-15 -12l-9.5 -9.5h-2q-3 0 -5 2.5t0 4.5q16 22 38.5 39.5t45.5 17.5q14 0 31.5 -4.5t20.5 -5.5q44 -14 74 -14q17 0 27.5 7z" />
    <glyph glyph-name="adieresis" unicode="&#xe4;" horiz-adv-x="419" 
d="M305 -8q-13 0 -22.5 22t-9.5 60v193q0 110 -68 110q-34 0 -53 -21.5t-26 -50.5q-4 -18 -9.5 -27.5t-22.5 -9.5q-14 0 -22 8.5t-8 19.5q0 22 29.5 45.5t71.5 39t75 15.5q40 0 59.5 -26t19.5 -73v-189q0 -37 8.5 -53t29.5 -16q19 0 55 15h2q4 0 5 -4.5t-3 -6.5l-103 -49
q-4 -2 -8 -2zM80.5 13q-20.5 20 -20.5 48t22 50.5t76 42.5l125 47l2 -13l-118 -45q-29 -12 -40 -26t-11 -33q0 -24 15 -41t42 -17q22 0 52 17l67 39l2 -12l-75 -47q-25 -16 -44 -23t-39 -7q-35 0 -55.5 20zM94.5 491q-10.5 10 -10.5 28t10.5 28t29.5 10q18 0 28 -10t10 -28
t-10 -28t-28 -10q-19 0 -29.5 10zM270 491q-11 10 -11 28t11 28t29 10q19 0 29 -10t10 -28t-10 -28t-29 -10q-18 0 -29 10z" />
    <glyph glyph-name="aring" unicode="&#xe5;" horiz-adv-x="419" 
d="M305 -8q-13 0 -22.5 22t-9.5 60v193q0 110 -68 110q-34 0 -53 -21.5t-26 -50.5q-4 -18 -9.5 -27.5t-22.5 -9.5q-14 0 -22 8.5t-8 19.5q0 22 29.5 45.5t71.5 39t75 15.5q40 0 59.5 -26t19.5 -73v-189q0 -37 8.5 -53t29.5 -16q19 0 55 15h2q4 0 5 -4.5t-3 -6.5l-103 -49
q-4 -2 -8 -2zM80.5 13q-20.5 20 -20.5 48t22 50.5t76 42.5l125 47l2 -13l-118 -45q-29 -12 -40 -26t-11 -33q0 -24 15 -41t42 -17q22 0 52 17l67 39l2 -12l-75 -47q-25 -16 -44 -23t-39 -7q-35 0 -55.5 20zM142 491.5q-23 23.5 -23 55.5q0 36 29 57t64 21q34 0 58.5 -23.5
t24.5 -56.5q0 -35 -28.5 -56t-64.5 -21q-37 0 -60 23.5zM247 489q9 12 9 38q0 36 -18.5 62t-45.5 26q-19 0 -27 -11.5t-8 -36.5q0 -34 16.5 -62t44.5 -28q20 0 29 12z" />
    <glyph glyph-name="ae" unicode="&#xe6;" horiz-adv-x="593" 
d="M267 170q-3 84 -7.5 125t-18 62.5t-42.5 21.5q-41 0 -58.5 -24.5t-24.5 -63.5q-3 -33 -31 -33q-15 0 -22.5 8t-7.5 21q0 22 26 47.5t65 43t75 17.5t60.5 -26.5t24.5 -69.5q0 -14 3 -31q5 -31 6 -53q2 -49 10 -90t38 -74t88 -33q32 0 56 8.5t44 27.5h1q3 0 5.5 -3.5
t0.5 -6.5q-32 -30 -64 -43t-71 -13q-148 0 -156 182zM297 267l207 4v-15l-206 -1zM359.5 369q43.5 26 95.5 26q47 0 72.5 -31t25.5 -86q0 -12 -2.5 -17t-8.5 -5h-50q1 7 1 19q0 49 -19.5 74.5t-52.5 25.5q-50 0 -78 -43t-28 -117l-26 84q27 44 70.5 70zM71.5 12.5
q-20.5 19.5 -20.5 48.5q0 27 22.5 49t76.5 42l125 47l2 -11l-118 -45q-29 -12 -40 -26t-11 -33q0 -25 15 -42t47 -17q25 0 52 17l69 42l1 -10l-76 -51q-25 -17 -45 -23.5t-40 -6.5q-39 0 -59.5 19.5z" />
    <glyph glyph-name="ccedilla" unicode="&#xe7;" horiz-adv-x="407" 
d="M122.5 16.5q-43.5 28.5 -64.5 73.5t-21 95q0 64 31.5 111.5t81 73t101.5 25.5q43 0 78.5 -17t35.5 -40q0 -12 -8 -20.5t-21 -8.5q-23 0 -40 28q-13 19 -30.5 28.5t-46.5 9.5q-60 0 -92.5 -43.5t-32.5 -117.5q0 -84 43 -139.5t128 -55.5q64 0 103 35h2q3 0 5.5 -3t-0.5 -5
q-34 -30 -69 -44t-76 -14q-64 0 -107.5 28.5zM214.5 -39q-4.5 -16 -4.5 -24q0 -11 6.5 -17t19 -13t19.5 -11q25 -14 39.5 -32t14.5 -45q0 -36 -25.5 -65t-73.5 -29q-26 0 -44 9.5t-18 26.5q0 12 8 19.5t20 7.5q10 0 15.5 -5t10.5 -15q8 -12 15 -18t22 -6q37 0 37 41
q0 26 -18.5 46.5t-67.5 46.5q-8 4 -12 7t-4 7q0 5 6 17q11 28 24 62l10 28l12 -1q-7 -21 -11.5 -37z" />
    <glyph glyph-name="egrave" unicode="&#xe8;" horiz-adv-x="405" 
d="M118 15q-40 27 -60.5 70.5t-20.5 94.5q0 59 28 108.5t75.5 78t103.5 28.5t84.5 -30.5t28.5 -83.5q0 -14 -2.5 -19.5t-9.5 -5.5h-47q1 7 1 19q0 50 -23.5 75t-63.5 25q-56 0 -87 -42t-31 -117q0 -87 41 -141.5t115 -54.5q31 0 53 8.5t48 25.5h1q3 0 5.5 -3.5t0.5 -6.5
q-66 -56 -143 -56q-57 0 -97 27zM80 267l228 4v-15l-227 -1zM144.5 730.5q12.5 -1.5 26.5 -6t14 -8.5l56 -240q2 -2 -3.5 -3.5t-6.5 1.5l-97 253q-2 5 10.5 3.5z" />
    <glyph glyph-name="eacute" unicode="&#xe9;" horiz-adv-x="405" 
d="M118 15q-40 27 -60.5 70.5t-20.5 94.5q0 59 28 108.5t75.5 78t103.5 28.5t84.5 -30.5t28.5 -83.5q0 -14 -2.5 -19.5t-9.5 -5.5h-47q1 7 1 19q0 50 -23.5 75t-63.5 25q-56 0 -87 -42t-31 -117q0 -87 41 -141.5t115 -54.5q31 0 53 8.5t48 25.5h1q3 0 5.5 -3.5t0.5 -6.5
q-66 -56 -143 -56q-57 0 -97 27zM80 267l228 4v-15l-227 -1zM219 472q-3 0 -5.5 1.5t-1.5 2.5l57 240q1 4 14.5 8.5t26 6t10.5 -3.5l-97 -253q0 -2 -4 -2z" />
    <glyph glyph-name="ecircumflex" unicode="&#xea;" horiz-adv-x="405" 
d="M118 15q-40 27 -60.5 70.5t-20.5 94.5q0 59 28 108.5t75.5 78t103.5 28.5t84.5 -30.5t28.5 -83.5q0 -14 -2.5 -19.5t-9.5 -5.5h-47q1 7 1 19q0 50 -23.5 75t-63.5 25q-56 0 -87 -42t-31 -117q0 -87 41 -141.5t115 -54.5q31 0 53 8.5t48 25.5h1q3 0 5.5 -3.5t0.5 -6.5
q-66 -56 -143 -56q-57 0 -97 27zM80 267l228 4v-15l-227 -1zM300.5 472.5q-5.5 -1.5 -6.5 1.5l-68 179l-69 -179q0 -2 -4 -2q-3 0 -5.5 1.5t-1.5 2.5l68 249q1 5 11 5q11 0 12 -5l67 -249q2 -2 -3.5 -3.5z" />
    <glyph glyph-name="edieresis" unicode="&#xeb;" horiz-adv-x="405" 
d="M118 15q-40 27 -60.5 70.5t-20.5 94.5q0 59 28 108.5t75.5 78t103.5 28.5t84.5 -30.5t28.5 -83.5q0 -14 -2.5 -19.5t-9.5 -5.5h-47q1 7 1 19q0 50 -23.5 75t-63.5 25q-56 0 -87 -42t-31 -117q0 -87 41 -141.5t115 -54.5q31 0 53 8.5t48 25.5h1q3 0 5.5 -3.5t0.5 -6.5
q-66 -56 -143 -56q-57 0 -97 27zM80 267l228 4v-15l-227 -1zM108.5 491q-10.5 10 -10.5 28t10.5 28t29.5 10q18 0 28 -10t10 -28t-10 -28t-28 -10q-19 0 -29.5 10zM284 491q-11 10 -11 28t11 28t29 10q19 0 29 -10t10 -28t-10 -28t-29 -10q-18 0 -29 10z" />
    <glyph glyph-name="igrave" unicode="&#xec;" horiz-adv-x="275" 
d="M55 6q0 6 2 6q29 0 42.5 5t18.5 19.5t5 44.5v189q0 37 -7.5 53t-25.5 16q-19 0 -48 -15h-1q-4 0 -6 5t2 7l124 58l4 1q2 0 4.5 -2t2.5 -5q0 -6 -1 -39.5t-1 -77.5v-190q0 -30 4.5 -44.5t18 -19.5t42.5 -5q3 0 3 -6t-3 -6q-23 0 -36 1l-53 1l-52 -1q-14 -1 -37 -1
q-2 0 -2 6zM57.5 730.5q12.5 -1.5 26.5 -6t14 -8.5l56 -240q2 -2 -3.5 -3.5t-6.5 1.5l-97 253q-2 5 10.5 3.5z" />
    <glyph glyph-name="iacute" unicode="&#xed;" horiz-adv-x="275" 
d="M55 6q0 6 2 6q29 0 42.5 5t18.5 19.5t5 44.5v189q0 37 -7.5 53t-25.5 16q-19 0 -48 -15h-1q-4 0 -6 5t2 7l124 58l4 1q2 0 4.5 -2t2.5 -5q0 -6 -1 -39.5t-1 -77.5v-190q0 -30 4.5 -44.5t18 -19.5t42.5 -5q3 0 3 -6t-3 -6q-23 0 -36 1l-53 1l-52 -1q-14 -1 -37 -1
q-2 0 -2 6zM132 472q-3 0 -5.5 1.5t-1.5 2.5l57 240q1 4 14.5 8.5t26 6t10.5 -3.5l-97 -253q0 -2 -4 -2z" />
    <glyph glyph-name="icircumflex" unicode="&#xee;" horiz-adv-x="275" 
d="M55 6q0 6 2 6q29 0 42.5 5t18.5 19.5t5 44.5v189q0 37 -7.5 53t-25.5 16q-19 0 -48 -15h-1q-4 0 -6 5t2 7l124 58l4 1q2 0 4.5 -2t2.5 -5q0 -6 -1 -39.5t-1 -77.5v-190q0 -30 4.5 -44.5t18 -19.5t42.5 -5q3 0 3 -6t-3 -6q-23 0 -36 1l-53 1l-52 -1q-14 -1 -37 -1
q-2 0 -2 6zM213.5 472.5q-5.5 -1.5 -6.5 1.5l-68 179l-69 -179q0 -2 -4 -2q-3 0 -5.5 1.5t-1.5 2.5l68 249q1 5 11 5q11 0 12 -5l67 -249q2 -2 -3.5 -3.5z" />
    <glyph glyph-name="idieresis" unicode="&#xef;" horiz-adv-x="275" 
d="M55 6q0 6 2 6q29 0 42.5 5t18.5 19.5t5 44.5v189q0 37 -7.5 53t-25.5 16q-19 0 -48 -15h-1q-4 0 -6 5t2 7l124 58l4 1q2 0 4.5 -2t2.5 -5q0 -6 -1 -39.5t-1 -77.5v-190q0 -30 4.5 -44.5t18 -19.5t42.5 -5q3 0 3 -6t-3 -6q-23 0 -36 1l-53 1l-52 -1q-14 -1 -37 -1
q-2 0 -2 6zM39 491q-11 10 -11 28t11 28t29 10q19 0 29 -10t10 -28t-10 -28t-29 -10q-18 0 -29 10zM179.5 491q-10.5 10 -10.5 28t10.5 28t29.5 10q18 0 28 -10t10 -28t-10 -28t-28 -10q-19 0 -29.5 10z" />
    <glyph glyph-name="eth" unicode="&#xf0;" horiz-adv-x="470" 
d="M323 351q-40 30 -95 30q-58 0 -96 -44t-38 -122q0 -57 19.5 -105t55.5 -76.5t82 -28.5q60 0 92 42.5t32 143.5q0 108 -38 210.5t-103 184t-144 130.5q-2 2 -2 3q0 2 2.5 4.5t5.5 1.5q101 -48 177.5 -127.5t118 -176.5t41.5 -194q0 -121 -59 -180.5t-151 -59.5
q-56 0 -98 27t-65 73t-23 99q0 69 31 117t78 72t95 24q35 0 68 -13.5t58 -38.5l11 -79q-15 53 -55 83zM124 484q-4 0 -6.5 8t1.5 10l274 130h1q4 0 6.5 -8.5t-1.5 -9.5l-274 -130h-1z" />
    <glyph glyph-name="ntilde" unicode="&#xf1;" horiz-adv-x="515" 
d="M312 6q0 6 3 6q29 0 42 5t18 19.5t5 44.5v167q0 61 -23 89t-72 28q-38 0 -77.5 -25.5t-68.5 -68.5l-4 12q46 61 89 88.5t88 27.5q56 0 85.5 -30t29.5 -91v-197q0 -30 4.5 -44.5t18 -19.5t42.5 -5q3 0 3 -6t-3 -6q-23 0 -36 1l-52 1l-53 -1q-13 -1 -36 -1q-3 0 -3 6zM43 6
q0 6 3 6q29 0 42 5t18 19.5t5 44.5v200q0 35 -8 50t-28 15q-16 0 -56 -15h-2q-4 0 -5.5 4.5t2.5 6.5l111 52q2 1 5 1q8 0 18 -22.5t10 -57.5v-234q0 -30 4.5 -44.5t18 -19.5t42.5 -5q3 0 3 -6t-3 -6q-23 0 -36 1l-52 1l-53 -1q-13 -1 -36 -1q-3 0 -3 6zM373.5 529
q10.5 7 21.5 20h1q3 0 5.5 -2.5t0.5 -4.5q-26 -34 -43 -46t-35 -12q-15 0 -31 3.5t-32 8.5t-34 9t-35 4q-16 0 -24.5 -5.5t-15 -12l-9.5 -9.5h-2q-3 0 -5 2.5t0 4.5q16 22 38.5 39.5t45.5 17.5q14 0 31.5 -4.5t20.5 -5.5q44 -14 74 -14q17 0 27.5 7z" />
    <glyph glyph-name="ograve" unicode="&#xf2;" 
d="M129 15.5q-44 28.5 -68 77t-24 105.5q0 65 31.5 110.5t80 68t99.5 22.5q58 0 101.5 -29t67 -76.5t23.5 -100.5q0 -62 -28.5 -109t-76.5 -72t-105 -25t-101 28.5zM349 44q33 39 33 123q0 60 -21 108.5t-59 76.5t-87 28q-57 0 -89 -39.5t-32 -113.5q0 -60 21 -110.5t58 -81
t85 -30.5q58 0 91 39zM158.5 730.5q12.5 -1.5 26.5 -6t14 -8.5l56 -240q2 -2 -3.5 -3.5t-6.5 1.5l-97 253q-2 5 10.5 3.5z" />
    <glyph glyph-name="oacute" unicode="&#xf3;" 
d="M129 15.5q-44 28.5 -68 77t-24 105.5q0 65 31.5 110.5t80 68t99.5 22.5q58 0 101.5 -29t67 -76.5t23.5 -100.5q0 -62 -28.5 -109t-76.5 -72t-105 -25t-101 28.5zM349 44q33 39 33 123q0 60 -21 108.5t-59 76.5t-87 28q-57 0 -89 -39.5t-32 -113.5q0 -60 21 -110.5t58 -81
t85 -30.5q58 0 91 39zM233 472q-3 0 -5.5 1.5t-1.5 2.5l57 240q1 4 14.5 8.5t26 6t10.5 -3.5l-97 -253q0 -2 -4 -2z" />
    <glyph glyph-name="ocircumflex" unicode="&#xf4;" 
d="M129 15.5q-44 28.5 -68 77t-24 105.5q0 65 31.5 110.5t80 68t99.5 22.5q58 0 101.5 -29t67 -76.5t23.5 -100.5q0 -62 -28.5 -109t-76.5 -72t-105 -25t-101 28.5zM349 44q33 39 33 123q0 60 -21 108.5t-59 76.5t-87 28q-57 0 -89 -39.5t-32 -113.5q0 -60 21 -110.5t58 -81
t85 -30.5q58 0 91 39zM314.5 472.5q-5.5 -1.5 -6.5 1.5l-68 179l-69 -179q0 -2 -4 -2q-3 0 -5.5 1.5t-1.5 2.5l68 249q1 5 11 5q11 0 12 -5l67 -249q2 -2 -3.5 -3.5z" />
    <glyph glyph-name="otilde" unicode="&#xf5;" 
d="M129 15.5q-44 28.5 -68 77t-24 105.5q0 65 31.5 110.5t80 68t99.5 22.5q58 0 101.5 -29t67 -76.5t23.5 -100.5q0 -62 -28.5 -109t-76.5 -72t-105 -25t-101 28.5zM349 44q33 39 33 123q0 60 -21 108.5t-59 76.5t-87 28q-57 0 -89 -39.5t-32 -113.5q0 -60 21 -110.5t58 -81
t85 -30.5q58 0 91 39zM343.5 529q10.5 7 21.5 20h1q3 0 5.5 -2.5t0.5 -4.5q-26 -34 -43 -46t-35 -12q-15 0 -31 3.5t-32 8.5t-34 9t-35 4q-16 0 -24.5 -5.5t-15 -12l-9.5 -9.5h-2q-3 0 -5 2.5t0 4.5q16 22 38.5 39.5t45.5 17.5q14 0 31.5 -4.5t20.5 -5.5q44 -14 74 -14
q17 0 27.5 7z" />
    <glyph glyph-name="odieresis" unicode="&#xf6;" 
d="M129 15.5q-44 28.5 -68 77t-24 105.5q0 65 31.5 110.5t80 68t99.5 22.5q58 0 101.5 -29t67 -76.5t23.5 -100.5q0 -62 -28.5 -109t-76.5 -72t-105 -25t-101 28.5zM349 44q33 39 33 123q0 60 -21 108.5t-59 76.5t-87 28q-57 0 -89 -39.5t-32 -113.5q0 -60 21 -110.5t58 -81
t85 -30.5q58 0 91 39zM122.5 491q-10.5 10 -10.5 28t10.5 28t29.5 10q18 0 28 -10t10 -28t-10 -28t-28 -10q-19 0 -29.5 10zM298 491q-11 10 -11 28t11 28t29 10q19 0 29 -10t10 -28t-10 -28t-29 -10q-18 0 -29 10z" />
    <glyph glyph-name="divide" unicode="&#xf7;" horiz-adv-x="398" 
d="M30.5 177.5q-1.5 6.5 -1.5 13.5q0 6 1 11.5t3 5.5h331q2 0 3.5 -5.5t1.5 -12.5t-1.5 -13t-3.5 -6h-330q-2 0 -3.5 6.5zM168.5 -0.5q-10.5 10.5 -10.5 28.5q0 17 10.5 27t29.5 10q18 0 28 -10t10 -27q0 -18 -10 -28.5t-28 -10.5q-19 0 -29.5 10.5zM168.5 330.5
q-10.5 10.5 -10.5 28.5q0 17 10.5 27t29.5 10q18 0 28 -10t10 -27q0 -18 -10 -28.5t-28 -10.5q-19 0 -29.5 10.5z" />
    <glyph glyph-name="oslash" unicode="&#xf8;" 
d="M47 -15q-3 0 -8 6t-3 9l386 398l2 1q4 0 9.5 -5t2.5 -8l-387 -400q0 -1 -2 -1zM129 15.5q-44 28.5 -68 77t-24 105.5q0 65 31.5 110.5t80 68t99.5 22.5q58 0 101.5 -29t67 -76.5t23.5 -100.5q0 -62 -28.5 -109t-76.5 -72t-105 -25t-101 28.5zM349 44q33 39 33 123
q0 60 -21 108.5t-59 76.5t-87 28q-57 0 -89 -39.5t-32 -113.5q0 -60 21 -110.5t58 -81t85 -30.5q58 0 91 39z" />
    <glyph glyph-name="ugrave" unicode="&#xf9;" horiz-adv-x="490" 
d="M103.5 24q-27.5 31 -27.5 91v155q0 41 -6.5 58.5t-22.5 17.5q-15 0 -36 -10h-2q-4 0 -5.5 5t2.5 6l105 47l4 1q2 0 5 -2t3 -5v-243q0 -60 21 -89t63 -29q41 0 82 24.5t72 67.5l5 -11q-47 -61 -92.5 -88t-93.5 -27q-49 0 -76.5 31zM397.5 55.5q8.5 -15.5 28.5 -15.5
q10 0 24.5 4.5t31.5 10.5h2q4 0 5.5 -4.5t-2.5 -6.5l-112 -52l-4 -1q-9 0 -18.5 22.5t-9.5 57.5v199q0 41 -6.5 58.5t-23.5 17.5q-15 0 -36 -10h-2q-4 0 -5 5t3 6l105 47l3 1q3 0 5.5 -2t2.5 -5v-283q0 -34 8.5 -49.5zM152.5 730.5q12.5 -1.5 26.5 -6t14 -8.5l56 -240
q2 -2 -3.5 -3.5t-6.5 1.5l-97 253q-2 5 10.5 3.5z" />
    <glyph glyph-name="uacute" unicode="&#xfa;" horiz-adv-x="490" 
d="M103.5 24q-27.5 31 -27.5 91v155q0 41 -6.5 58.5t-22.5 17.5q-15 0 -36 -10h-2q-4 0 -5.5 5t2.5 6l105 47l4 1q2 0 5 -2t3 -5v-243q0 -60 21 -89t63 -29q41 0 82 24.5t72 67.5l5 -11q-47 -61 -92.5 -88t-93.5 -27q-49 0 -76.5 31zM397.5 55.5q8.5 -15.5 28.5 -15.5
q10 0 24.5 4.5t31.5 10.5h2q4 0 5.5 -4.5t-2.5 -6.5l-112 -52l-4 -1q-9 0 -18.5 22.5t-9.5 57.5v199q0 41 -6.5 58.5t-23.5 17.5q-15 0 -36 -10h-2q-4 0 -5 5t3 6l105 47l3 1q3 0 5.5 -2t2.5 -5v-283q0 -34 8.5 -49.5zM227 472q-3 0 -5.5 1.5t-1.5 2.5l57 240q1 4 14.5 8.5
t26 6t10.5 -3.5l-97 -253q0 -2 -4 -2z" />
    <glyph glyph-name="ucircumflex" unicode="&#xfb;" horiz-adv-x="490" 
d="M103.5 24q-27.5 31 -27.5 91v155q0 41 -6.5 58.5t-22.5 17.5q-15 0 -36 -10h-2q-4 0 -5.5 5t2.5 6l105 47l4 1q2 0 5 -2t3 -5v-243q0 -60 21 -89t63 -29q41 0 82 24.5t72 67.5l5 -11q-47 -61 -92.5 -88t-93.5 -27q-49 0 -76.5 31zM397.5 55.5q8.5 -15.5 28.5 -15.5
q10 0 24.5 4.5t31.5 10.5h2q4 0 5.5 -4.5t-2.5 -6.5l-112 -52l-4 -1q-9 0 -18.5 22.5t-9.5 57.5v199q0 41 -6.5 58.5t-23.5 17.5q-15 0 -36 -10h-2q-4 0 -5 5t3 6l105 47l3 1q3 0 5.5 -2t2.5 -5v-283q0 -34 8.5 -49.5zM308.5 472.5q-5.5 -1.5 -6.5 1.5l-68 179l-69 -179
q0 -2 -4 -2q-3 0 -5.5 1.5t-1.5 2.5l68 249q1 5 11 5q11 0 12 -5l67 -249q2 -2 -3.5 -3.5z" />
    <glyph glyph-name="udieresis" unicode="&#xfc;" horiz-adv-x="490" 
d="M103.5 24q-27.5 31 -27.5 91v155q0 41 -6.5 58.5t-22.5 17.5q-15 0 -36 -10h-2q-4 0 -5.5 5t2.5 6l105 47l4 1q2 0 5 -2t3 -5v-243q0 -60 21 -89t63 -29q41 0 82 24.5t72 67.5l5 -11q-47 -61 -92.5 -88t-93.5 -27q-49 0 -76.5 31zM397.5 55.5q8.5 -15.5 28.5 -15.5
q10 0 24.5 4.5t31.5 10.5h2q4 0 5.5 -4.5t-2.5 -6.5l-112 -52l-4 -1q-9 0 -18.5 22.5t-9.5 57.5v199q0 41 -6.5 58.5t-23.5 17.5q-15 0 -36 -10h-2q-4 0 -5 5t3 6l105 47l3 1q3 0 5.5 -2t2.5 -5v-283q0 -34 8.5 -49.5zM116.5 491q-10.5 10 -10.5 28t10.5 28t29.5 10
q18 0 28 -10t10 -28t-10 -28t-28 -10q-19 0 -29.5 10zM292 491q-11 10 -11 28t11 28t29 10q19 0 29 -10t10 -28t-10 -28t-29 -10q-18 0 -29 10z" />
    <glyph glyph-name="yacute" unicode="&#xfd;" horiz-adv-x="437" 
d="M432 380q0 -6 -3 -6q-24 0 -41 -15t-31 -54l-125 -333q-37 -97 -69.5 -151.5t-67.5 -78t-81 -23.5q-20 0 -34 9.5t-14 27.5q0 11 8 18t19 7q21 0 41 -12q9 -6 16.5 -8.5t18.5 -2.5q25 0 48 23t49 77t63 151v-22l-155 316q-23 44 -35 57.5t-31 13.5q-2 0 -2 6t2 6
q21 0 31 -1l31 -1l62 1q14 1 39 1q2 0 2 -6t-2 -6q-60 0 -60 -24q0 -7 4 -15l140 -287l-20 -37l101 290q8 22 8 36q0 21 -18.5 29t-62.5 8q-2 0 -2 6t2 6q27 0 41 -1l60 -1l35 1q9 1 30 1q3 0 3 -6zM219 472q-3 0 -5.5 1.5t-1.5 2.5l57 240q1 4 14.5 8.5t26 6t10.5 -3.5
l-97 -253q0 -2 -4 -2z" />
    <glyph glyph-name="thorn" unicode="&#xfe;" horiz-adv-x="490" 
d="M13 -269q0 6 2 6q28 0 42 5.5t19 19.5t5 44v794q0 37 -7.5 53t-25.5 16q-16 0 -48 -15h-2q-4 0 -5.5 5t2.5 6l121 59l4 1q2 0 4.5 -2t2.5 -5v-912q0 -30 8 -44t29.5 -19.5t65.5 -5.5q3 0 3 -6t-3 -6q-34 0 -53 1l-72 1l-53 -1q-13 -1 -37 -1q-2 0 -2 6zM169.5 -2.5
q-29.5 10.5 -63.5 37.5l10 53q31 -40 66.5 -60.5t88.5 -20.5q55 0 91 48t36 129q0 86 -38 134t-96 48q-41 0 -75.5 -23t-72.5 -65l-8 7q50 59 97 86.5t96 27.5q41 0 75.5 -22t55.5 -64t21 -98q0 -74 -34 -125.5t-84 -77t-96 -25.5q-40 0 -69.5 10.5z" />
    <glyph glyph-name="ydieresis" unicode="&#xff;" horiz-adv-x="437" 
d="M432 380q0 -6 -3 -6q-24 0 -41 -15t-31 -54l-125 -333q-37 -97 -69.5 -151.5t-67.5 -78t-81 -23.5q-20 0 -34 9.5t-14 27.5q0 11 8 18t19 7q21 0 41 -12q9 -6 16.5 -8.5t18.5 -2.5q25 0 48 23t49 77t63 151v-22l-155 316q-23 44 -35 57.5t-31 13.5q-2 0 -2 6t2 6
q21 0 31 -1l31 -1l62 1q14 1 39 1q2 0 2 -6t-2 -6q-60 0 -60 -24q0 -7 4 -15l140 -287l-20 -37l101 290q8 22 8 36q0 21 -18.5 29t-62.5 8q-2 0 -2 6t2 6q27 0 41 -1l60 -1l35 1q9 1 30 1q3 0 3 -6zM108.5 491q-10.5 10 -10.5 28t10.5 28t29.5 10q18 0 28 -10t10 -28
t-10 -28t-28 -10q-19 0 -29.5 10zM284 491q-11 10 -11 28t11 28t29 10q19 0 29 -10t10 -28t-10 -28t-29 -10q-18 0 -29 10z" />
    <glyph glyph-name="Amacron" unicode="&#x100;" horiz-adv-x="698" 
d="M209 305h259l7 -18h-275zM698 6q0 -6 -4 -6q-18 0 -58 2q-38 2 -56 2q-21 0 -55 -2q-32 -2 -48 -2q-4 0 -4 6t4 6q41 0 59 7.5t18 25.5q0 14 -11 39l-226 486l19 17l-193 -464q-14 -34 -14 -56q0 -29 24 -42t75 -13q5 0 5 -6t-5 -6q-18 0 -52 2q-38 2 -66 2q-25 0 -59 -2
q-30 -2 -49 -2q-5 0 -5 6t5 6q28 0 47.5 10t37 36t37.5 74l209 503q2 3 6.5 3t5.5 -3l232 -498q23 -51 41 -77.5t35.5 -37t40.5 -10.5q4 0 4 -6zM208.5 728q-1.5 4 -1.5 9q0 13 5 13h251q5 0 5 -13t-5 -13h-251q-2 0 -3.5 4z" />
    <glyph glyph-name="amacron" unicode="&#x101;" horiz-adv-x="419" 
d="M305 -8q-13 0 -22.5 22t-9.5 60v193q0 110 -68 110q-34 0 -53 -21.5t-26 -50.5q-4 -18 -9.5 -27.5t-22.5 -9.5q-14 0 -22 8.5t-8 19.5q0 22 29.5 45.5t71.5 39t75 15.5q40 0 59.5 -26t19.5 -73v-189q0 -37 8.5 -53t29.5 -16q19 0 55 15h2q4 0 5 -4.5t-3 -6.5l-103 -49
q-4 -2 -8 -2zM80.5 13q-20.5 20 -20.5 48t22 50.5t76 42.5l125 47l2 -13l-118 -45q-29 -12 -40 -26t-11 -33q0 -24 15 -41t42 -17q22 0 52 17l67 39l2 -12l-75 -47q-25 -16 -44 -23t-39 -7q-35 0 -55.5 20zM81.5 489q-1.5 4 -1.5 9q0 13 5 13h251q5 0 5 -13t-5 -13h-251
q-2 0 -3.5 4z" />
    <glyph glyph-name="Abreve" unicode="&#x102;" horiz-adv-x="698" 
d="M209 305h259l7 -18h-275zM698 6q0 -6 -4 -6q-18 0 -58 2q-38 2 -56 2q-21 0 -55 -2q-32 -2 -48 -2q-4 0 -4 6t4 6q41 0 59 7.5t18 25.5q0 14 -11 39l-226 486l19 17l-193 -464q-14 -34 -14 -56q0 -29 24 -42t75 -13q5 0 5 -6t-5 -6q-18 0 -52 2q-38 2 -66 2q-25 0 -59 -2
q-30 -2 -49 -2q-5 0 -5 6t5 6q28 0 47.5 10t37 36t37.5 74l209 503q2 3 6.5 3t5.5 -3l232 -498q23 -51 41 -77.5t35.5 -37t40.5 -10.5q4 0 4 -6zM270.5 716.5q-26.5 26.5 -35.5 75.5q-1 4 4 4.5t7 -1.5q8 -30 35 -50.5t57 -20.5t56.5 21t34.5 50q0 2 4 2q3 0 5.5 -1.5
t1.5 -3.5q-9 -49 -35 -75.5t-67 -26.5t-67.5 26.5z" />
    <glyph glyph-name="abreve" unicode="&#x103;" horiz-adv-x="419" 
d="M305 -8q-13 0 -22.5 22t-9.5 60v193q0 110 -68 110q-34 0 -53 -21.5t-26 -50.5q-4 -18 -9.5 -27.5t-22.5 -9.5q-14 0 -22 8.5t-8 19.5q0 22 29.5 45.5t71.5 39t75 15.5q40 0 59.5 -26t19.5 -73v-189q0 -37 8.5 -53t29.5 -16q19 0 55 15h2q4 0 5 -4.5t-3 -6.5l-103 -49
q-4 -2 -8 -2zM80.5 13q-20.5 20 -20.5 48t22 50.5t76 42.5l125 47l2 -13l-118 -45q-29 -12 -40 -26t-11 -33q0 -24 15 -41t42 -17q22 0 52 17l67 39l2 -12l-75 -47q-25 -16 -44 -23t-39 -7q-35 0 -55.5 20zM113.5 628q5.5 1 5.5 -2q0 -47 26 -78t66 -31q38 0 64.5 31.5
t26.5 77.5q0 2 3 2t5.5 -1.5t2.5 -3.5q0 -73 -26 -110.5t-76 -37.5t-76.5 37.5t-26.5 110.5q0 4 5.5 5z" />
    <glyph glyph-name="Aogonek" unicode="&#x104;" horiz-adv-x="701" 
d="M452.5 -246q-33.5 29 -33.5 80q0 43 20 72.5t58 66.5q27 25 40 42.5t13 37.5q0 15 -7 29l-227 482l19 23l-192 -464q-14 -34 -14 -56q0 -29 24 -42t75 -13q5 0 5 -6t-5 -6q-18 0 -52 2q-38 2 -66 2q-25 0 -59 -2q-30 -2 -49 -2q-5 0 -5 6t5 6q28 0 47.5 10t37 36t37.5 74
l209 503q2 3 6.5 3t5.5 -3l232 -500q33 -74 58 -100t59 -26q4 0 4 -5.5t-4 -5.5q-20 0 -52 2l-40 1q-35 0 -66 -17t-50 -47.5t-19 -68.5q0 -47 28.5 -81.5t86.5 -34.5q35 0 59 14h1q3 0 5.5 -3t0.5 -5q-45 -33 -104 -33q-58 0 -91.5 29zM209 305h259l7 -18h-275z" />
    <glyph glyph-name="aogonek" unicode="&#x105;" horiz-adv-x="419" 
d="M305 -8q-13 0 -22.5 22t-9.5 60v193q0 110 -68 110q-34 0 -53 -21.5t-26 -50.5q-4 -18 -9.5 -27.5t-22.5 -9.5q-14 0 -22 8.5t-8 19.5q0 22 29.5 45.5t71.5 39t75 15.5q40 0 59.5 -26t19.5 -73v-189q0 -37 8.5 -53t29.5 -16q19 0 55 15h2q4 0 5 -4.5t-3 -6.5l-103 -49
q-4 -2 -8 -2zM80.5 13q-20.5 20 -20.5 48t22 50.5t76 42.5l125 47l2 -13l-118 -45q-29 -12 -40 -26t-11 -33q0 -24 15 -41t42 -17q22 0 52 17l67 39l2 -12l-75 -47q-25 -16 -44 -23t-39 -7q-35 0 -55.5 20zM255.5 -73q-19.5 -36 -19.5 -77q0 -46 23.5 -72t68.5 -26
q24 0 39.5 6.5t31.5 19.5h2q3 0 5.5 -3t-0.5 -5q-51 -45 -107 -45q-54 0 -82.5 25.5t-28.5 70.5q0 90 119 185l11 -5q-43 -38 -62.5 -74z" />
    <glyph glyph-name="Cacute" unicode="&#x106;" horiz-adv-x="687" 
d="M515 626.5q42 -9.5 89 -33.5q6 -4 7.5 -6.5t2.5 -15.5l12 -114q0 -3 -5.5 -3.5t-6.5 2.5q-22 83 -73 124.5t-134 41.5q-88 0 -154.5 -37t-103 -105.5t-36.5 -159.5q0 -85 40.5 -158.5t109 -117t146.5 -43.5q166 0 212 163q0 2 5 2q7 0 7 -3l-8 -106q-1 -12 -3 -15t-8 -7
q-52 -27 -97.5 -37.5t-108.5 -10.5q-104 0 -185.5 41.5t-127.5 117t-46 173.5q0 94 46 166t127.5 111.5t184.5 39.5q66 0 108 -9.5zM286 678q-4 0 -5 4.5t2 6.5q46 21 122 65l50 28q4 2 20.5 -4t29 -13.5t5.5 -8.5q-62 -15 -113.5 -33.5t-108.5 -43.5z" />
    <glyph glyph-name="cacute" unicode="&#x107;" horiz-adv-x="407" 
d="M122.5 16.5q-43.5 28.5 -64.5 73.5t-21 95q0 64 31.5 111.5t81 73t101.5 25.5q43 0 78.5 -17t35.5 -40q0 -12 -8 -20.5t-21 -8.5q-23 0 -40 28q-13 19 -30.5 28.5t-46.5 9.5q-60 0 -92.5 -43.5t-32.5 -117.5q0 -84 43 -139.5t128 -55.5q64 0 103 35h2q3 0 5.5 -3t-0.5 -5
q-34 -30 -69 -44t-76 -14q-64 0 -107.5 28.5zM213 472q-3 0 -5.5 1.5t-1.5 2.5l57 240q1 4 14.5 8.5t26 6t10.5 -3.5l-97 -253q0 -2 -4 -2z" />
    <glyph glyph-name="Ccircumflex" unicode="&#x108;" horiz-adv-x="687" 
d="M515 626.5q42 -9.5 89 -33.5q6 -4 7.5 -6.5t2.5 -15.5l12 -114q0 -3 -5.5 -3.5t-6.5 2.5q-22 83 -73 124.5t-134 41.5q-88 0 -154.5 -37t-103 -105.5t-36.5 -159.5q0 -85 40.5 -158.5t109 -117t146.5 -43.5q166 0 212 163q0 2 5 2q7 0 7 -3l-8 -106q-1 -12 -3 -15t-8 -7
q-52 -27 -97.5 -37.5t-108.5 -10.5q-104 0 -185.5 41.5t-127.5 117t-46 173.5q0 94 46 166t127.5 111.5t184.5 39.5q66 0 108 -9.5zM386 788q6 0 11 -5l102 -93q1 0 1 -2t-2.5 -4t-3.5 -1l-108 62l-109 -62q-2 -1 -5 2.5t-1 4.5l103 93q5 5 12 5z" />
    <glyph glyph-name="ccircumflex" unicode="&#x109;" horiz-adv-x="407" 
d="M122.5 16.5q-43.5 28.5 -64.5 73.5t-21 95q0 64 31.5 111.5t81 73t101.5 25.5q43 0 78.5 -17t35.5 -40q0 -12 -8 -20.5t-21 -8.5q-23 0 -40 28q-13 19 -30.5 28.5t-46.5 9.5q-60 0 -92.5 -43.5t-32.5 -117.5q0 -84 43 -139.5t128 -55.5q64 0 103 35h2q3 0 5.5 -3t-0.5 -5
q-34 -30 -69 -44t-76 -14q-64 0 -107.5 28.5zM294.5 472.5q-5.5 -1.5 -6.5 1.5l-68 179l-69 -179q0 -2 -4 -2q-3 0 -5.5 1.5t-1.5 2.5l68 249q1 5 11 5q11 0 12 -5l67 -249q2 -2 -3.5 -3.5z" />
    <glyph glyph-name="Cdotaccent" unicode="&#x10a;" horiz-adv-x="687" 
d="M515 626.5q42 -9.5 89 -33.5q6 -4 7.5 -6.5t2.5 -15.5l12 -114q0 -3 -5.5 -3.5t-6.5 2.5q-22 83 -73 124.5t-134 41.5q-88 0 -154.5 -37t-103 -105.5t-36.5 -159.5q0 -85 40.5 -158.5t109 -117t146.5 -43.5q166 0 212 163q0 2 5 2q7 0 7 -3l-8 -106q-1 -12 -3 -15t-8 -7
q-52 -27 -97.5 -37.5t-108.5 -10.5q-104 0 -185.5 41.5t-127.5 117t-46 173.5q0 94 46 166t127.5 111.5t184.5 39.5q66 0 108 -9.5zM355.5 723q-10.5 10 -10.5 29q0 17 10.5 27t29.5 10q18 0 28 -10t10 -27q0 -19 -10 -29t-28 -10q-19 0 -29.5 10z" />
    <glyph glyph-name="cdotaccent" unicode="&#x10b;" horiz-adv-x="407" 
d="M122.5 16.5q-43.5 28.5 -64.5 73.5t-21 95q0 64 31.5 111.5t81 73t101.5 25.5q43 0 78.5 -17t35.5 -40q0 -12 -8 -20.5t-21 -8.5q-23 0 -40 28q-13 19 -30.5 28.5t-46.5 9.5q-60 0 -92.5 -43.5t-32.5 -117.5q0 -84 43 -139.5t128 -55.5q64 0 103 35h2q3 0 5.5 -3t-0.5 -5
q-34 -30 -69 -44t-76 -14q-64 0 -107.5 28.5zM189.5 526q-10.5 10 -10.5 28t10.5 28t29.5 10q18 0 28 -10t10 -28t-10 -28t-28 -10q-19 0 -29.5 10z" />
    <glyph glyph-name="Ccaron" unicode="&#x10c;" horiz-adv-x="687" 
d="M515 626.5q42 -9.5 89 -33.5q6 -4 7.5 -6.5t2.5 -15.5l12 -114q0 -3 -5.5 -3.5t-6.5 2.5q-22 83 -73 124.5t-134 41.5q-88 0 -154.5 -37t-103 -105.5t-36.5 -159.5q0 -85 40.5 -158.5t109 -117t146.5 -43.5q166 0 212 163q0 2 5 2q7 0 7 -3l-8 -106q-1 -12 -3 -15t-8 -7
q-52 -27 -97.5 -37.5t-108.5 -10.5q-104 0 -185.5 41.5t-127.5 117t-46 173.5q0 94 46 166t127.5 111.5t184.5 39.5q66 0 108 -9.5zM270 780h-1q0 2 2.5 4.5t4.5 1.5l109 -62l108 62h1q3 0 5 -3t-1 -4l-102 -92q-4 -4 -11 -4q-8 0 -12 4l-103 92v1z" />
    <glyph glyph-name="ccaron" unicode="&#x10d;" horiz-adv-x="407" 
d="M122.5 16.5q-43.5 28.5 -64.5 73.5t-21 95q0 64 31.5 111.5t81 73t101.5 25.5q43 0 78.5 -17t35.5 -40q0 -12 -8 -20.5t-21 -8.5q-23 0 -40 28q-13 19 -30.5 28.5t-46.5 9.5q-60 0 -92.5 -43.5t-32.5 -117.5q0 -84 43 -139.5t128 -55.5q64 0 103 35h2q3 0 5.5 -3t-0.5 -5
q-34 -30 -69 -44t-76 -14q-64 0 -107.5 28.5zM143.5 730q5.5 1 6.5 -1l69 -179l68 179q1 2 6 1t4 -4l-67 -249q-2 -5 -11 -5t-12 5l-68 249q-1 3 4.5 4z" />
    <glyph glyph-name="Dcaron" unicode="&#x10e;" horiz-adv-x="688" 
d="M232 -1q-14 1 -34.5 2t-45.5 1l-66 -1q-18 -1 -50 -1q-2 0 -2 6t2 6q39 0 57.5 5t25.5 19.5t7 44.5v463q0 30 -6.5 44t-25 19.5t-57.5 5.5q-2 0 -2 6t2 6l49 -1q42 -2 66 -2q35 0 71 3q44 2 60 2q105 0 186 -40t125.5 -109t44.5 -155q0 -97 -46.5 -171.5t-124.5 -115
t-171 -40.5q-29 0 -65 3zM436 43q65 34 101.5 100t36.5 158q0 88 -34.5 159t-99 112.5t-148.5 41.5q-44 0 -67.5 -5t-34.5 -20.5t-11 -46.5v-450q0 -30 9 -48t32 -26.5t67 -8.5q84 0 149 34zM202 780h-1q0 2 2.5 4.5t4.5 1.5l109 -62l108 62h1q3 0 5 -3t-1 -4l-102 -92
q-4 -4 -11 -4q-8 0 -12 4l-103 92v1z" />
    <glyph glyph-name="dcaron" unicode="&#x10f;" horiz-adv-x="513" 
d="M115.5 11q-35.5 24 -57 67.5t-21.5 98.5q0 70 35 120.5t88 76t105 25.5q68 0 122 -48l-9 -64q-29 44 -61.5 68.5t-81.5 24.5q-65 0 -104 -46t-39 -128q0 -55 18 -97t49 -65.5t69 -23.5q42 0 77 23t73 65l8 -7q-46 -52 -90 -83t-103 -31q-42 0 -77.5 24zM420.5 55
q8.5 -16 29.5 -16q31 0 55 15l2 1q4 0 5.5 -5t-2.5 -7l-103 -49q-4 -2 -8 -2q-14 0 -24 23.5t-10 65.5v518q0 37 -7.5 53t-26.5 16q-8 0 -20.5 -4.5t-27.5 -10.5h-2q-4 0 -5 4.5t2 6.5l122 60q2 1 5 1q2 0 4.5 -2t2.5 -5v-610q0 -37 8.5 -53zM502 721.5q11 -5.5 22 -14.5
t11 -13l-25 -245q0 -2 -5.5 -1.5t-5.5 2.5l-8 272q0 5 11 -0.5z" />
    <glyph glyph-name="Dcroat" unicode="&#x110;" horiz-adv-x="688" 
d="M49 311q0 9 4 9h262q4 0 4 -9t-4 -9h-262q-4 0 -4 9zM232 -1q-14 1 -34.5 2t-45.5 1l-66 -1q-18 -1 -50 -1q-2 0 -2 6t2 6q39 0 57.5 5t25.5 19.5t7 44.5v463q0 30 -6.5 44t-25 19.5t-57.5 5.5q-2 0 -2 6t2 6l49 -1q42 -2 66 -2q35 0 71 3q44 2 60 2q105 0 186 -40
t125.5 -109t44.5 -155q0 -97 -46.5 -171.5t-124.5 -115t-171 -40.5q-29 0 -65 3zM436 43q65 34 101.5 100t36.5 158q0 88 -34.5 159t-99 112.5t-148.5 41.5q-44 0 -67.5 -5t-34.5 -20.5t-11 -46.5v-450q0 -30 9 -48t32 -26.5t67 -8.5q84 0 149 34z" />
    <glyph glyph-name="dcroat" unicode="&#x111;" horiz-adv-x="513" 
d="M189 510q0 9 4 9h287q4 0 4 -9t-4 -9h-287q-4 0 -4 9zM115.5 11q-35.5 24 -57 67.5t-21.5 98.5q0 70 35 120.5t88 76t105 25.5q68 0 122 -48l-9 -64q-29 44 -61.5 68.5t-81.5 24.5q-65 0 -104 -46t-39 -128q0 -55 18 -97t49 -65.5t69 -23.5q42 0 77 23t73 65l8 -7
q-46 -52 -90 -83t-103 -31q-42 0 -77.5 24zM420.5 55q8.5 -16 29.5 -16q31 0 55 15l2 1q4 0 5.5 -5t-2.5 -7l-103 -49q-4 -2 -8 -2q-14 0 -24 23.5t-10 65.5v518q0 37 -7.5 53t-26.5 16q-8 0 -20.5 -4.5t-27.5 -10.5h-2q-4 0 -5 4.5t2 6.5l122 60q2 1 5 1q2 0 4.5 -2t2.5 -5
v-610q0 -37 8.5 -53z" />
    <glyph glyph-name="Emacron" unicode="&#x112;" horiz-adv-x="533" 
d="M42 6q0 6 2 6q39 0 57.5 5t25 19.5t6.5 44.5v463q0 30 -6.5 44t-25 19.5t-57.5 5.5q-2 0 -2 6t2 6h396q9 0 9 -9l2 -121q0 -3 -5.5 -3t-5.5 3q0 51 -27 81t-71 30h-69q-38 0 -56 -5t-24.5 -19t-6.5 -44v-453q0 -29 6.5 -42.5t24 -18.5t56.5 -5h92q40 0 68.5 35t36.5 92
q0 3 6 2.5t6 -3.5q-9 -63 -9 -130q0 -8 -3.5 -11.5t-12.5 -3.5h-413q-2 0 -2 6zM382 298q-19 18 -67 18h-154v19h157q46 0 64 15.5t18 53.5q0 2 6 2t6 -2l-1 -79q0 -29 1 -43l1 -47q0 -2 -6 -2t-6 2q0 45 -19 63zM160.5 728q-1.5 4 -1.5 9q0 13 5 13h251q5 0 5 -13t-5 -13
h-251q-2 0 -3.5 4z" />
    <glyph glyph-name="emacron" unicode="&#x113;" horiz-adv-x="405" 
d="M118 15q-40 27 -60.5 70.5t-20.5 94.5q0 59 28 108.5t75.5 78t103.5 28.5t84.5 -30.5t28.5 -83.5q0 -14 -2.5 -19.5t-9.5 -5.5h-47q1 7 1 19q0 50 -23.5 75t-63.5 25q-56 0 -87 -42t-31 -117q0 -87 41 -141.5t115 -54.5q31 0 53 8.5t48 25.5h1q3 0 5.5 -3.5t0.5 -6.5
q-66 -56 -143 -56q-57 0 -97 27zM80 267l228 4v-15l-227 -1zM95.5 489q-1.5 4 -1.5 9q0 13 5 13h251q5 0 5 -13t-5 -13h-251q-2 0 -3.5 4z" />
    <glyph glyph-name="Ebreve" unicode="&#x114;" horiz-adv-x="533" 
d="M42 6q0 6 2 6q39 0 57.5 5t25 19.5t6.5 44.5v463q0 30 -6.5 44t-25 19.5t-57.5 5.5q-2 0 -2 6t2 6h396q9 0 9 -9l2 -121q0 -3 -5.5 -3t-5.5 3q0 51 -27 81t-71 30h-69q-38 0 -56 -5t-24.5 -19t-6.5 -44v-453q0 -29 6.5 -42.5t24 -18.5t56.5 -5h92q40 0 68.5 35t36.5 92
q0 3 6 2.5t6 -3.5q-9 -63 -9 -130q0 -8 -3.5 -11.5t-12.5 -3.5h-413q-2 0 -2 6zM382 298q-19 18 -67 18h-154v19h157q46 0 64 15.5t18 53.5q0 2 6 2t6 -2l-1 -79q0 -29 1 -43l1 -47q0 -2 -6 -2t-6 2q0 45 -19 63zM222.5 716.5q-26.5 26.5 -35.5 75.5q-1 4 4 4.5t7 -1.5
q8 -30 35 -50.5t57 -20.5t56.5 21t34.5 50q0 2 4 2q3 0 5.5 -1.5t1.5 -3.5q-9 -49 -35 -75.5t-67 -26.5t-67.5 26.5z" />
    <glyph glyph-name="ebreve" unicode="&#x115;" horiz-adv-x="405" 
d="M118 15q-40 27 -60.5 70.5t-20.5 94.5q0 59 28 108.5t75.5 78t103.5 28.5t84.5 -30.5t28.5 -83.5q0 -14 -2.5 -19.5t-9.5 -5.5h-47q1 7 1 19q0 50 -23.5 75t-63.5 25q-56 0 -87 -42t-31 -117q0 -87 41 -141.5t115 -54.5q31 0 53 8.5t48 25.5h1q3 0 5.5 -3.5t0.5 -6.5
q-66 -56 -143 -56q-57 0 -97 27zM80 267l228 4v-15l-227 -1zM127.5 628q5.5 1 5.5 -2q0 -47 26 -78t66 -31q38 0 64.5 31.5t26.5 77.5q0 2 3 2t5.5 -1.5t2.5 -3.5q0 -73 -26 -110.5t-76 -37.5t-76.5 37.5t-26.5 110.5q0 4 5.5 5z" />
    <glyph glyph-name="Edotaccent" unicode="&#x116;" horiz-adv-x="533" 
d="M42 6q0 6 2 6q39 0 57.5 5t25 19.5t6.5 44.5v463q0 30 -6.5 44t-25 19.5t-57.5 5.5q-2 0 -2 6t2 6h396q9 0 9 -9l2 -121q0 -3 -5.5 -3t-5.5 3q0 51 -27 81t-71 30h-69q-38 0 -56 -5t-24.5 -19t-6.5 -44v-453q0 -29 6.5 -42.5t24 -18.5t56.5 -5h92q40 0 68.5 35t36.5 92
q0 3 6 2.5t6 -3.5q-9 -63 -9 -130q0 -8 -3.5 -11.5t-12.5 -3.5h-413q-2 0 -2 6zM382 298q-19 18 -67 18h-154v19h157q46 0 64 15.5t18 53.5q0 2 6 2t6 -2l-1 -79q0 -29 1 -43l1 -47q0 -2 -6 -2t-6 2q0 45 -19 63zM260.5 723q-10.5 10 -10.5 29q0 17 10.5 27t29.5 10
q18 0 28 -10t10 -27q0 -19 -10 -29t-28 -10q-19 0 -29.5 10z" />
    <glyph glyph-name="edotaccent" unicode="&#x117;" horiz-adv-x="405" 
d="M118 15q-40 27 -60.5 70.5t-20.5 94.5q0 59 28 108.5t75.5 78t103.5 28.5t84.5 -30.5t28.5 -83.5q0 -14 -2.5 -19.5t-9.5 -5.5h-47q1 7 1 19q0 50 -23.5 75t-63.5 25q-56 0 -87 -42t-31 -117q0 -87 41 -141.5t115 -54.5q31 0 53 8.5t48 25.5h1q3 0 5.5 -3.5t0.5 -6.5
q-66 -56 -143 -56q-57 0 -97 27zM80 267l228 4v-15l-227 -1zM195.5 526q-10.5 10 -10.5 28t10.5 28t29.5 10q18 0 28 -10t10 -28t-10 -28t-28 -10q-19 0 -29.5 10z" />
    <glyph glyph-name="Eogonek" unicode="&#x118;" horiz-adv-x="533" 
d="M42 6q0 6 2 6q39 0 57.5 5t25 19.5t6.5 44.5v463q0 30 -6.5 44t-25 19.5t-57.5 5.5q-2 0 -2 6t2 6h396q9 0 9 -9l2 -121q0 -3 -5.5 -3t-5.5 3q0 51 -27 81t-71 30h-69q-38 0 -56 -5t-24.5 -19t-6.5 -44v-453q0 -29 6.5 -42.5t24 -18.5t56.5 -5h92q40 0 68.5 35t36.5 92
q0 3 6 2.5t6 -3.5q-9 -63 -9 -130q0 -8 -3.5 -11.5t-12.5 -3.5h-413q-2 0 -2 6zM382 298q-19 18 -67 18h-154v19h157q46 0 64 15.5t18 53.5q0 2 6 2t6 -2l-1 -79q0 -29 1 -43l1 -47q0 -2 -6 -2t-6 2q0 45 -19 63zM351.5 -73q-19.5 -36 -19.5 -77q0 -46 23.5 -72t68.5 -26
q24 0 39.5 6.5t31.5 19.5h2q3 0 5.5 -3t-0.5 -5q-51 -45 -107 -45q-54 0 -82.5 25.5t-28.5 70.5q0 90 119 185l11 -5q-43 -38 -62.5 -74z" />
    <glyph glyph-name="eogonek" unicode="&#x119;" horiz-adv-x="405" 
d="M197.5 -249q-25.5 26 -25.5 70q0 102 152 211l11 -5q-61 -46 -88 -88t-27 -89q0 -46 21 -72t60 -26q19 0 31.5 6.5t27.5 19.5h2q3 0 5.5 -3t-0.5 -5q-45 -45 -96 -45q-48 0 -73.5 26zM118 15q-40 27 -60.5 70.5t-20.5 94.5q0 59 28 108.5t75.5 78t103.5 28.5t84.5 -30.5
t28.5 -83.5q0 -14 -2.5 -19.5t-9.5 -5.5h-47q1 7 1 19q0 50 -23.5 75t-63.5 25q-56 0 -87 -42t-31 -117q0 -87 41 -141.5t115 -54.5q31 0 53 8.5t48 25.5h1q3 0 5.5 -3.5t0.5 -6.5q-66 -56 -143 -56q-57 0 -97 27zM80 267l228 4v-15l-227 -1z" />
    <glyph glyph-name="Ecaron" unicode="&#x11a;" horiz-adv-x="533" 
d="M42 6q0 6 2 6q39 0 57.5 5t25 19.5t6.5 44.5v463q0 30 -6.5 44t-25 19.5t-57.5 5.5q-2 0 -2 6t2 6h396q9 0 9 -9l2 -121q0 -3 -5.5 -3t-5.5 3q0 51 -27 81t-71 30h-69q-38 0 -56 -5t-24.5 -19t-6.5 -44v-453q0 -29 6.5 -42.5t24 -18.5t56.5 -5h92q40 0 68.5 35t36.5 92
q0 3 6 2.5t6 -3.5q-9 -63 -9 -130q0 -8 -3.5 -11.5t-12.5 -3.5h-413q-2 0 -2 6zM382 298q-19 18 -67 18h-154v19h157q46 0 64 15.5t18 53.5q0 2 6 2t6 -2l-1 -79q0 -29 1 -43l1 -47q0 -2 -6 -2t-6 2q0 45 -19 63zM174 780v0q0 2 2.5 4.5t4.5 1.5l109 -62l108 62h1q3 0 5 -3
t-1 -4l-102 -92q-4 -4 -11 -4q-8 0 -12 4l-103 92z" />
    <glyph glyph-name="ecaron" unicode="&#x11b;" horiz-adv-x="405" 
d="M118 15q-40 27 -60.5 70.5t-20.5 94.5q0 59 28 108.5t75.5 78t103.5 28.5t84.5 -30.5t28.5 -83.5q0 -14 -2.5 -19.5t-9.5 -5.5h-47q1 7 1 19q0 50 -23.5 75t-63.5 25q-56 0 -87 -42t-31 -117q0 -87 41 -141.5t115 -54.5q31 0 53 8.5t48 25.5h1q3 0 5.5 -3.5t0.5 -6.5
q-66 -56 -143 -56q-57 0 -97 27zM80 267l228 4v-15l-227 -1zM149.5 730q5.5 1 6.5 -1l69 -179l68 179q1 2 6 1t4 -4l-67 -249q-2 -5 -11 -5t-12 5l-68 249q-1 3 4.5 4z" />
    <glyph glyph-name="Gcircumflex" unicode="&#x11c;" horiz-adv-x="709" 
d="M215.5 32.5q-80.5 44.5 -123.5 120t-43 165.5q0 97 48.5 169t133 110.5t189.5 38.5q55 0 101 -11t78 -31q7 -4 8 -7t2 -15l12 -112q0 -3 -5.5 -4t-6.5 2q-22 83 -69.5 123t-133.5 40q-83 0 -149 -35.5t-104 -101t-38 -153.5q0 -83 34.5 -158t106 -123t176.5 -48
q74 0 104.5 28.5t30.5 94.5q0 52 -7 72.5t-30 27.5t-80 7q-6 0 -6 8q0 3 1.5 5.5t3.5 2.5q77 -5 124 -5q45 0 96 3q2 0 3.5 -2.5t1.5 -4.5q0 -7 -5 -7q-26 1 -37 -6.5t-14 -30.5t-3 -80q0 -45 3.5 -64t3.5 -24q0 -6 -2 -8t-9 -4q-121 -27 -206 -27q-109 0 -189.5 44.5z
M390 788q6 0 11 -5l102 -93q1 0 1 -2t-2.5 -4t-3.5 -1l-108 62l-109 -62q-2 -1 -5 2.5t-1 4.5l103 93q5 5 12 5z" />
    <glyph glyph-name="gcircumflex" unicode="&#x11d;" horiz-adv-x="444" 
d="M72.5 -249.5q-38.5 30.5 -38.5 78.5q0 50 41.5 95.5t119.5 89.5l11 -13q-61 -31 -92 -61t-31 -82q0 -50 33.5 -79t99.5 -29q74 0 121 37.5t47 100.5q0 39 -19.5 57.5t-52 23.5t-89.5 5t-90.5 4t-54 19t-20.5 47q0 31 17.5 53t60.5 59l11 -10q-25 -21 -35 -37.5t-10 -34.5
q0 -22 15 -33.5t51.5 -16.5t103.5 -5q66 0 110 -18.5t44 -81.5q0 -53 -35 -99t-92.5 -73t-119.5 -27q-68 0 -106.5 30.5zM100.5 170q-40.5 37 -40.5 92t42 93t114 38q75 0 111.5 -39t36.5 -90q0 -34 -18 -64t-53 -48.5t-82 -18.5q-70 0 -110.5 37zM288 171q22 24 22 73
q0 61 -33 98t-83 37q-38 0 -59.5 -23t-21.5 -72q0 -45 17 -76t43.5 -46t55.5 -15q37 0 59 24zM364 384q28 10 61 10q2 0 3.5 -7t1.5 -14q0 -12 -2.5 -22.5t-6.5 -8.5q-35 14 -65 14q-20 0 -46 -7l-9 -30v34q35 21 63 31zM288.5 472.5q-5.5 -1.5 -6.5 1.5l-68 179l-69 -179
q0 -2 -4 -2q-3 0 -5.5 1.5t-1.5 2.5l68 249q1 5 11 5q11 0 12 -5l67 -249q2 -2 -3.5 -3.5z" />
    <glyph glyph-name="Gbreve" unicode="&#x11e;" horiz-adv-x="709" 
d="M215.5 32.5q-80.5 44.5 -123.5 120t-43 165.5q0 97 48.5 169t133 110.5t189.5 38.5q55 0 101 -11t78 -31q7 -4 8 -7t2 -15l12 -112q0 -3 -5.5 -4t-6.5 2q-22 83 -69.5 123t-133.5 40q-83 0 -149 -35.5t-104 -101t-38 -153.5q0 -83 34.5 -158t106 -123t176.5 -48
q74 0 104.5 28.5t30.5 94.5q0 52 -7 72.5t-30 27.5t-80 7q-6 0 -6 8q0 3 1.5 5.5t3.5 2.5q77 -5 124 -5q45 0 96 3q2 0 3.5 -2.5t1.5 -4.5q0 -7 -5 -7q-26 1 -37 -6.5t-14 -30.5t-3 -80q0 -45 3.5 -64t3.5 -24q0 -6 -2 -8t-9 -4q-121 -27 -206 -27q-109 0 -189.5 44.5z
M321.5 716.5q-26.5 26.5 -35.5 75.5q-1 4 4 4.5t7 -1.5q8 -30 35 -50.5t57 -20.5t56.5 21t34.5 50q0 2 4 2q3 0 5.5 -1.5t1.5 -3.5q-9 -49 -35 -75.5t-67 -26.5t-67.5 26.5z" />
    <glyph glyph-name="gbreve" unicode="&#x11f;" horiz-adv-x="444" 
d="M72.5 -249.5q-38.5 30.5 -38.5 78.5q0 50 41.5 95.5t119.5 89.5l11 -13q-61 -31 -92 -61t-31 -82q0 -50 33.5 -79t99.5 -29q74 0 121 37.5t47 100.5q0 39 -19.5 57.5t-52 23.5t-89.5 5t-90.5 4t-54 19t-20.5 47q0 31 17.5 53t60.5 59l11 -10q-25 -21 -35 -37.5t-10 -34.5
q0 -22 15 -33.5t51.5 -16.5t103.5 -5q66 0 110 -18.5t44 -81.5q0 -53 -35 -99t-92.5 -73t-119.5 -27q-68 0 -106.5 30.5zM100.5 170q-40.5 37 -40.5 92t42 93t114 38q75 0 111.5 -39t36.5 -90q0 -34 -18 -64t-53 -48.5t-82 -18.5q-70 0 -110.5 37zM288 171q22 24 22 73
q0 61 -33 98t-83 37q-38 0 -59.5 -23t-21.5 -72q0 -45 17 -76t43.5 -46t55.5 -15q37 0 59 24zM364 384q28 10 61 10q2 0 3.5 -7t1.5 -14q0 -12 -2.5 -22.5t-6.5 -8.5q-35 14 -65 14q-20 0 -46 -7l-9 -30v34q35 21 63 31zM115.5 628q5.5 1 5.5 -2q0 -47 26 -78t66 -31
q38 0 64.5 31.5t26.5 77.5q0 2 3 2t5.5 -1.5t2.5 -3.5q0 -73 -26 -110.5t-76 -37.5t-76.5 37.5t-26.5 110.5q0 4 5.5 5z" />
    <glyph glyph-name="Gdotaccent" unicode="&#x120;" horiz-adv-x="709" 
d="M215.5 32.5q-80.5 44.5 -123.5 120t-43 165.5q0 97 48.5 169t133 110.5t189.5 38.5q55 0 101 -11t78 -31q7 -4 8 -7t2 -15l12 -112q0 -3 -5.5 -4t-6.5 2q-22 83 -69.5 123t-133.5 40q-83 0 -149 -35.5t-104 -101t-38 -153.5q0 -83 34.5 -158t106 -123t176.5 -48
q74 0 104.5 28.5t30.5 94.5q0 52 -7 72.5t-30 27.5t-80 7q-6 0 -6 8q0 3 1.5 5.5t3.5 2.5q77 -5 124 -5q45 0 96 3q2 0 3.5 -2.5t1.5 -4.5q0 -7 -5 -7q-26 1 -37 -6.5t-14 -30.5t-3 -80q0 -45 3.5 -64t3.5 -24q0 -6 -2 -8t-9 -4q-121 -27 -206 -27q-109 0 -189.5 44.5z
M359.5 723q-10.5 10 -10.5 29q0 17 10.5 27t29.5 10q18 0 28 -10t10 -27q0 -19 -10 -29t-28 -10q-19 0 -29.5 10z" />
    <glyph glyph-name="gdotaccent" unicode="&#x121;" horiz-adv-x="444" 
d="M72.5 -249.5q-38.5 30.5 -38.5 78.5q0 50 41.5 95.5t119.5 89.5l11 -13q-61 -31 -92 -61t-31 -82q0 -50 33.5 -79t99.5 -29q74 0 121 37.5t47 100.5q0 39 -19.5 57.5t-52 23.5t-89.5 5t-90.5 4t-54 19t-20.5 47q0 31 17.5 53t60.5 59l11 -10q-25 -21 -35 -37.5t-10 -34.5
q0 -22 15 -33.5t51.5 -16.5t103.5 -5q66 0 110 -18.5t44 -81.5q0 -53 -35 -99t-92.5 -73t-119.5 -27q-68 0 -106.5 30.5zM100.5 170q-40.5 37 -40.5 92t42 93t114 38q75 0 111.5 -39t36.5 -90q0 -34 -18 -64t-53 -48.5t-82 -18.5q-70 0 -110.5 37zM288 171q22 24 22 73
q0 61 -33 98t-83 37q-38 0 -59.5 -23t-21.5 -72q0 -45 17 -76t43.5 -46t55.5 -15q37 0 59 24zM364 384q28 10 61 10q2 0 3.5 -7t1.5 -14q0 -12 -2.5 -22.5t-6.5 -8.5q-35 14 -65 14q-20 0 -46 -7l-9 -30v34q35 21 63 31zM183.5 526q-10.5 10 -10.5 28t10.5 28t29.5 10
q18 0 28 -10t10 -28t-10 -28t-28 -10q-19 0 -29.5 10z" />
    <glyph glyph-name="uni0122" unicode="&#x122;" horiz-adv-x="709" 
d="M215.5 32.5q-80.5 44.5 -123.5 120t-43 165.5q0 97 48.5 169t133 110.5t189.5 38.5q55 0 101 -11t78 -31q7 -4 8 -7t2 -15l12 -112q0 -3 -5.5 -4t-6.5 2q-22 83 -69.5 123t-133.5 40q-83 0 -149 -35.5t-104 -101t-38 -153.5q0 -83 34.5 -158t106 -123t176.5 -48
q74 0 104.5 28.5t30.5 94.5q0 52 -7 72.5t-30 27.5t-80 7q-6 0 -6 8q0 3 1.5 5.5t3.5 2.5q77 -5 124 -5q45 0 96 3q2 0 3.5 -2.5t1.5 -4.5q0 -7 -5 -7q-26 1 -37 -6.5t-14 -30.5t-3 -80q0 -45 3.5 -64t3.5 -24q0 -6 -2 -8t-9 -4q-121 -27 -206 -27q-109 0 -189.5 44.5z
M411 -276q-3 0 -5 3.5t0 4.5q43 40 43 95q0 20 -4.5 28.5t-14.5 14.5l16 3q3 -16 -6 -24t-24 -8q-17 0 -26.5 9.5t-9.5 25.5q0 35 38 35q26 0 39.5 -18t13.5 -53q0 -32 -14.5 -59.5t-42.5 -55.5q-1 -1 -3 -1z" />
    <glyph glyph-name="uni0123" unicode="&#x123;" horiz-adv-x="444" 
d="M72.5 -249.5q-38.5 30.5 -38.5 78.5q0 50 41.5 95.5t119.5 89.5l11 -13q-61 -31 -92 -61t-31 -82q0 -50 33.5 -79t99.5 -29q74 0 121 37.5t47 100.5q0 39 -19.5 57.5t-52 23.5t-89.5 5t-90.5 4t-54 19t-20.5 47q0 31 17.5 53t60.5 59l11 -10q-25 -21 -35 -37.5t-10 -34.5
q0 -22 15 -33.5t51.5 -16.5t103.5 -5q66 0 110 -18.5t44 -81.5q0 -53 -35 -99t-92.5 -73t-119.5 -27q-68 0 -106.5 30.5zM100.5 170q-40.5 37 -40.5 92t42 93t114 38q75 0 111.5 -39t36.5 -90q0 -34 -18 -64t-53 -48.5t-82 -18.5q-70 0 -110.5 37zM288 171q22 24 22 73
q0 61 -33 98t-83 37q-38 0 -59.5 -23t-21.5 -72q0 -45 17 -76t43.5 -46t55.5 -15q37 0 59 24zM364 384q28 10 61 10q2 0 3.5 -7t1.5 -14q0 -12 -2.5 -22.5t-6.5 -8.5q-35 14 -65 14q-20 0 -46 -7l-9 -30v34q35 21 63 31zM221 674q3 0 5 -3.5t0 -4.5q-43 -40 -43 -95
q0 -20 4.5 -28.5t14.5 -14.5l-16 -3q-3 16 6 24t24 8q17 0 26.5 -9.5t9.5 -25.5q0 -35 -38 -35q-26 0 -39.5 18t-13.5 53q0 32 14.5 59.5t42.5 55.5q1 1 3 1z" />
    <glyph glyph-name="Hcircumflex" unicode="&#x124;" horiz-adv-x="758" 
d="M571.5 586.5q-6.5 14.5 -25 20.5t-57.5 6q-3 0 -3 6t3 6l47 -1q42 -2 69 -2q25 0 67 2l48 1q3 0 3 -6t-3 -6q-39 0 -57.5 -5.5t-25.5 -19.5t-7 -44v-463q0 -30 7 -44.5t25.5 -19.5t57.5 -5q3 0 3 -6t-3 -6q-31 0 -48 1l-67 1l-69 -1q-17 -1 -47 -1q-3 0 -3 6t3 6
q40 0 58 5t24.5 19t6.5 45v461q0 30 -6.5 44.5zM150 335h450v-19h-450v19zM119.5 588q-6.5 14 -25 19.5t-57.5 5.5q-2 0 -2 6t2 6l49 -1q42 -2 66 -2q27 0 69 2l47 1q2 0 2 -6t-2 -6q-39 0 -57.5 -6t-25 -20.5t-6.5 -44.5v-461q0 -31 6.5 -45t24.5 -19t58 -5q2 0 2 -6t-2 -6
q-30 0 -48 1l-68 1l-66 -1q-18 -1 -50 -1q-2 0 -2 6t2 6q39 0 57.5 5t25.5 19.5t7 44.5v463q0 30 -6.5 44zM380 788q6 0 11 -5l102 -93q1 0 1 -2t-2.5 -4t-3.5 -1l-108 62l-109 -62q-2 -1 -5 2.5t-1 4.5l103 93q5 5 12 5z" />
    <glyph glyph-name="hcircumflex" unicode="&#x125;" horiz-adv-x="496" 
d="M24 6q0 6 3 6q29 0 42 5t18 19.5t5 44.5v519q0 37 -7 53t-25 16q-16 0 -48 -15l-2 -1q-4 0 -5.5 5t2.5 7l123 60h2q7 0 7 -7v-637q0 -30 5 -44.5t18.5 -19.5t42.5 -5q2 0 2 -6t-2 -6q-23 0 -37 1l-52 1l-53 -1q-13 -1 -36 -1q-3 0 -3 6zM293 6q0 6 3 6q29 0 42 5t18 19.5
t5 44.5v163q0 61 -23 90t-71 29q-39 0 -78 -25.5t-69 -68.5l-4 12q46 61 89 88t89 27q55 0 84.5 -30.5t29.5 -90.5v-194q0 -30 5 -44.5t18.5 -19.5t42.5 -5q2 0 2 -6t-2 -6q-23 0 -37 1l-52 1l-53 -1q-13 -1 -36 -1q-3 0 -3 6zM125 843q6 0 11 -5l102 -93q1 0 1 -2t-2.5 -4
t-3.5 -1l-108 62l-109 -62q-2 -1 -5 2.5t-1 4.5l103 93q5 5 12 5z" />
    <glyph glyph-name="Hbar" unicode="&#x126;" horiz-adv-x="758" 
d="M571.5 586.5q-6.5 14.5 -25 20.5t-57.5 6q-3 0 -3 6t3 6l47 -1q42 -2 69 -2q25 0 67 2l48 1q3 0 3 -6t-3 -6q-39 0 -57.5 -5.5t-25.5 -19.5t-7 -44v-463q0 -30 7 -44.5t25.5 -19.5t57.5 -5q3 0 3 -6t-3 -6q-31 0 -48 1l-67 1l-69 -1q-17 -1 -47 -1q-3 0 -3 6t3 6
q40 0 58 5t24.5 19t6.5 45v461q0 30 -6.5 44.5zM150 428h450v-19h-450v19zM119.5 588q-6.5 14 -25 19.5t-57.5 5.5q-2 0 -2 6t2 6l49 -1q42 -2 66 -2q27 0 69 2l47 1q2 0 2 -6t-2 -6q-39 0 -57.5 -6t-25 -20.5t-6.5 -44.5v-461q0 -31 6.5 -45t24.5 -19t58 -5q2 0 2 -6t-2 -6
q-30 0 -48 1l-68 1l-66 -1q-18 -1 -50 -1q-2 0 -2 6t2 6q39 0 57.5 5t25.5 19.5t7 44.5v463q0 30 -6.5 44zM150 241h450v-19h-450v19z" />
    <glyph glyph-name="hbar" unicode="&#x127;" horiz-adv-x="496" 
d="M10 510q0 9 4 9h287q4 0 4 -9t-4 -9h-287q-4 0 -4 9zM24 6q0 6 3 6q29 0 42 5t18 19.5t5 44.5v519q0 37 -7 53t-25 16q-16 0 -48 -15l-2 -1q-4 0 -5.5 5t2.5 7l123 60h2q7 0 7 -7v-637q0 -30 5 -44.5t18.5 -19.5t42.5 -5q2 0 2 -6t-2 -6q-23 0 -37 1l-52 1l-53 -1
q-13 -1 -36 -1q-3 0 -3 6zM293 6q0 6 3 6q29 0 42 5t18 19.5t5 44.5v163q0 61 -23 90t-71 29q-39 0 -78 -25.5t-69 -68.5l-4 12q46 61 89 88t89 27q55 0 84.5 -30.5t29.5 -90.5v-194q0 -30 5 -44.5t18.5 -19.5t42.5 -5q2 0 2 -6t-2 -6q-23 0 -37 1l-52 1l-53 -1
q-13 -1 -36 -1q-3 0 -3 6z" />
    <glyph glyph-name="Itilde" unicode="&#x128;" horiz-adv-x="330" 
d="M198.5 36q6.5 -14 24.5 -19t58 -5q2 0 2 -6t-2 -6q-30 0 -47 1l-70 1l-67 -1q-18 -1 -49 -1q-3 0 -3 6t3 6q39 0 57.5 5t25.5 19.5t7 44.5v463q0 30 -7 44t-25.5 19.5t-57.5 5.5q-3 0 -3 6t3 6l49 -1q42 -2 67 -2q28 0 70 2l47 1q2 0 2 -6t-2 -6q-39 0 -57.5 -6
t-25 -20.5t-6.5 -44.5v-461q0 -31 6.5 -45zM269.5 759q10.5 7 21.5 20h1q3 0 5.5 -2.5t0.5 -4.5q-26 -34 -43 -46t-35 -12q-15 0 -31 3.5t-32 8.5t-34 9t-35 4q-16 0 -24.5 -5.5t-15 -12l-9.5 -9.5h-2q-3 0 -5 2.5t0 4.5q16 22 38.5 39.5t45.5 17.5q14 0 31.5 -4.5
t20.5 -5.5q44 -14 74 -14q17 0 27.5 7z" />
    <glyph glyph-name="itilde" unicode="&#x129;" horiz-adv-x="275" 
d="M55 6q0 6 2 6q29 0 42.5 5t18.5 19.5t5 44.5v189q0 37 -7.5 53t-25.5 16q-19 0 -48 -15h-1q-4 0 -6 5t2 7l124 58l4 1q2 0 4.5 -2t2.5 -5q0 -6 -1 -39.5t-1 -77.5v-190q0 -30 4.5 -44.5t18 -19.5t42.5 -5q3 0 3 -6t-3 -6q-23 0 -36 1l-53 1l-52 -1q-14 -1 -37 -1
q-2 0 -2 6zM219.5 529q10.5 7 21.5 20h1q3 0 5.5 -2.5t0.5 -4.5q-26 -34 -43 -46t-35 -12q-14 0 -40 12q-2 1 -16 7t-29 6q-16 0 -25.5 -5.5t-16 -12.5t-8.5 -9h-1q-2 0 -4.5 2.5t-1.5 4.5q46 57 85 57q9 0 33 -10q28 -14 46 -14q17 0 27.5 7z" />
    <glyph glyph-name="Imacron" unicode="&#x12a;" horiz-adv-x="330" 
d="M198.5 36q6.5 -14 24.5 -19t58 -5q2 0 2 -6t-2 -6q-30 0 -47 1l-70 1l-67 -1q-18 -1 -49 -1q-3 0 -3 6t3 6q39 0 57.5 5t25.5 19.5t7 44.5v463q0 30 -7 44t-25.5 19.5t-57.5 5.5q-3 0 -3 6t3 6l49 -1q42 -2 67 -2q28 0 70 2l47 1q2 0 2 -6t-2 -6q-39 0 -57.5 -6
t-25 -20.5t-6.5 -44.5v-461q0 -31 6.5 -45zM35.5 728q-1.5 4 -1.5 9q0 13 5 13h251q5 0 5 -13t-5 -13h-251q-2 0 -3.5 4z" />
    <glyph glyph-name="imacron" unicode="&#x12b;" horiz-adv-x="275" 
d="M55 6q0 6 2 6q29 0 42.5 5t18.5 19.5t5 44.5v189q0 37 -7.5 53t-25.5 16q-19 0 -48 -15h-1q-4 0 -6 5t2 7l124 58l4 1q2 0 4.5 -2t2.5 -5q0 -6 -1 -39.5t-1 -77.5v-190q0 -30 4.5 -44.5t18 -19.5t42.5 -5q3 0 3 -6t-3 -6q-23 0 -36 1l-53 1l-52 -1q-14 -1 -37 -1
q-2 0 -2 6zM8.5 489q-1.5 4 -1.5 9q0 13 5 13h251q5 0 5 -13t-5 -13h-251q-2 0 -3.5 4z" />
    <glyph glyph-name="Ibreve" unicode="&#x12c;" horiz-adv-x="330" 
d="M198.5 36q6.5 -14 24.5 -19t58 -5q2 0 2 -6t-2 -6q-30 0 -47 1l-70 1l-67 -1q-18 -1 -49 -1q-3 0 -3 6t3 6q39 0 57.5 5t25.5 19.5t7 44.5v463q0 30 -7 44t-25.5 19.5t-57.5 5.5q-3 0 -3 6t3 6l49 -1q42 -2 67 -2q28 0 70 2l47 1q2 0 2 -6t-2 -6q-39 0 -57.5 -6
t-25 -20.5t-6.5 -44.5v-461q0 -31 6.5 -45zM97.5 716.5q-26.5 26.5 -35.5 75.5q-1 4 4 4.5t7 -1.5q8 -30 35 -50.5t57 -20.5t56.5 21t34.5 50q0 2 4 2q3 0 5.5 -1.5t1.5 -3.5q-9 -49 -35 -75.5t-67 -26.5t-67.5 26.5z" />
    <glyph glyph-name="ibreve" unicode="&#x12d;" horiz-adv-x="275" 
d="M55 6q0 6 2 6q29 0 42.5 5t18.5 19.5t5 44.5v189q0 37 -7.5 53t-25.5 16q-19 0 -48 -15h-1q-4 0 -6 5t2 7l124 58l4 1q2 0 4.5 -2t2.5 -5q0 -6 -1 -39.5t-1 -77.5v-190q0 -30 4.5 -44.5t18 -19.5t42.5 -5q3 0 3 -6t-3 -6q-23 0 -36 1l-53 1l-52 -1q-14 -1 -37 -1
q-2 0 -2 6zM40.5 628q5.5 1 5.5 -2q0 -47 26 -78t66 -31q38 0 64.5 31.5t26.5 77.5q0 2 3 2t5.5 -1.5t2.5 -3.5q0 -73 -26 -110.5t-76 -37.5t-76.5 37.5t-26.5 110.5q0 4 5.5 5z" />
    <glyph glyph-name="Iogonek" unicode="&#x12e;" horiz-adv-x="330" 
d="M198.5 36q6.5 -14 24.5 -19t58 -5q2 0 2 -6t-2 -6q-30 0 -47 1l-70 1l-67 -1q-18 -1 -49 -1q-3 0 -3 6t3 6q39 0 57.5 5t25.5 19.5t7 44.5v463q0 30 -7 44t-25.5 19.5t-57.5 5.5q-3 0 -3 6t3 6l49 -1q42 -2 67 -2q28 0 70 2l47 1q2 0 2 -6t-2 -6q-39 0 -57.5 -6
t-25 -20.5t-6.5 -44.5v-461q0 -31 6.5 -45zM97 -249q-27 26 -27 70q0 46 25 95t74 96l10 -5q-61 -72 -61 -157q0 -46 21.5 -72t61.5 -26q18 0 29 5.5t18.5 12t10.5 8.5h1q3 0 5.5 -3t0.5 -5q-25 -24 -47 -34.5t-47 -10.5q-48 0 -75 26z" />
    <glyph glyph-name="iogonek" unicode="&#x12f;" horiz-adv-x="275" 
d="M55 6q0 6 2 6q29 0 42.5 5t18.5 19.5t5 44.5v189q0 37 -7.5 53t-25.5 16q-19 0 -48 -15h-1q-4 0 -6 5t2 7l124 58l4 1q2 0 4.5 -2t2.5 -5q0 -6 -1 -39.5t-1 -77.5v-190q0 -30 4.5 -44.5t18 -19.5t42.5 -5q3 0 3 -6t-3 -6q-23 0 -36 1l-53 1l-52 -1q-14 -1 -37 -1
q-2 0 -2 6zM108.5 526q-10.5 10 -10.5 28t10.5 28t29.5 10q18 0 28 -10t10 -28t-10 -28t-28 -10q-19 0 -29.5 10zM76 -241q-27 26 -27 70q0 46 25 95t74 96l10 -5q-61 -72 -61 -157q0 -46 21.5 -72t61.5 -26q18 0 29 5.5t18.5 12t10.5 8.5h1q3 0 5.5 -3t0.5 -5
q-25 -24 -47 -34.5t-47 -10.5q-48 0 -75 26z" />
    <glyph glyph-name="Idotaccent" unicode="&#x130;" horiz-adv-x="330" 
d="M198.5 36q6.5 -14 24.5 -19t58 -5q2 0 2 -6t-2 -6q-30 0 -47 1l-70 1l-67 -1q-18 -1 -49 -1q-3 0 -3 6t3 6q39 0 57.5 5t25.5 19.5t7 44.5v463q0 30 -7 44t-25.5 19.5t-57.5 5.5q-3 0 -3 6t3 6l49 -1q42 -2 67 -2q28 0 70 2l47 1q2 0 2 -6t-2 -6q-39 0 -57.5 -6
t-25 -20.5t-6.5 -44.5v-461q0 -31 6.5 -45zM135.5 723q-10.5 10 -10.5 29q0 17 10.5 27t29.5 10q18 0 28 -10t10 -27q0 -19 -10 -29t-28 -10q-19 0 -29.5 10z" />
    <glyph glyph-name="dotlessi" unicode="&#x131;" horiz-adv-x="275" 
d="M55 6q0 6 2 6q29 0 42.5 5t18.5 19.5t5 44.5v189q0 37 -7.5 53t-25.5 16q-19 0 -48 -15h-1q-4 0 -6 5t2 7l124 58l4 1q2 0 4.5 -2t2.5 -5q0 -6 -1 -39.5t-1 -77.5v-190q0 -30 4.5 -44.5t18 -19.5t42.5 -5q3 0 3 -6t-3 -6q-23 0 -36 1l-53 1l-52 -1q-14 -1 -37 -1
q-2 0 -2 6z" />
    <glyph glyph-name="IJ" unicode="&#x132;" horiz-adv-x="688" 
d="M193.5 305q6.5 -14 24.5 -19t58 -5q3 0 3 -6t-3 -6q-30 0 -47 1l-70 1l-66 -1q-18 -1 -50 -1q-2 0 -2 6t2 6q39 0 57.5 5t25.5 19.5t7 44.5v194q0 30 -7 44t-25.5 19.5t-57.5 5.5q-2 0 -2 6t2 6l50 -1q40 -2 66 -2q29 0 71 2l46 1q3 0 3 -6t-3 -6q-39 0 -57.5 -6
t-25 -20.5t-6.5 -44.5v-192q0 -31 6.5 -45zM655 619q0 -6 -2 -6q-34 0 -50.5 -6t-22 -20.5t-5.5 -44.5v-284q0 -86 -29.5 -147t-82 -92.5t-121.5 -31.5q-61 0 -111 23t-78.5 58t-28.5 68q0 15 7.5 23t19.5 8q20 0 27.5 -13t14.5 -42q8 -33 19 -55.5t40.5 -39t83.5 -16.5
q95 0 140.5 52.5t45.5 146.5v344q0 30 -7.5 44t-29 19.5t-65.5 5.5q-3 0 -3 6t3 6l57 -1q44 -2 70 -2q24 0 64 2l42 1q2 0 2 -6z" />
    <glyph glyph-name="ij" unicode="&#x133;" horiz-adv-x="524" 
d="M55 6q0 6 2 6q29 0 42.5 5t18.5 19.5t5 44.5v189q0 37 -7.5 53t-25.5 16q-19 0 -48 -15h-1q-4 0 -6 5t2 7l124 58l4 1q2 0 4.5 -2t2.5 -5q0 -6 -1 -39.5t-1 -77.5v-190q0 -30 4.5 -44.5t18 -19.5t42.5 -5q3 0 3 -6t-3 -6q-23 0 -36 1l-53 1l-52 -1q-14 -1 -37 -1
q-2 0 -2 6zM108.5 526q-10.5 10 -10.5 28t10.5 28t29.5 10q18 0 28 -10t10 -28t-10 -28t-28 -10q-19 0 -29.5 10zM429 348.5q-1 -33.5 -1 -77.5v-319q0 -68 -12 -111.5t-40.5 -72.5t-78.5 -50q-2 -1 -4.5 4.5t-0.5 6.5q49 21 69 67t20 133v341q0 37 -7 53t-25 16
q-19 0 -48 -15h-1q-5 0 -6.5 5t2.5 7l124 58l3 1q7 0 7 -7q0 -6 -1 -39.5zM366.5 526q-10.5 10 -10.5 28t10.5 28t29.5 10q18 0 28 -10t10 -28t-10 -28t-28 -10q-19 0 -29.5 10z" />
    <glyph glyph-name="Jcircumflex" unicode="&#x134;" horiz-adv-x="318" 
d="M277 619q0 -6 -2 -6q-34 0 -50 -6t-21.5 -20.5t-5.5 -44.5v-576q0 -96 -43.5 -153t-127.5 -57q-33 0 -51.5 10.5t-18.5 27.5q0 13 7.5 21t21.5 8q15 0 23 -6t18 -18q8 -12 16 -18t22 -6q39 0 59 43.5t20 138.5v587q0 30 -7.5 44t-28.5 19.5t-66 5.5q-2 0 -2 6t2 6l57 -1
q46 -2 71 -2t63 2l42 1q2 0 2 -6zM161 799q6 0 11 -5l102 -93q1 0 1 -2t-2.5 -4t-3.5 -1l-108 62l-109 -62q-2 -1 -5 2.5t-1 4.5l103 93q5 5 12 5z" />
    <glyph glyph-name="jcircumflex" unicode="&#x135;" horiz-adv-x="255" 
d="M160 348.5q-1 -33.5 -1 -77.5v-319q0 -68 -12 -111.5t-40.5 -72.5t-78.5 -50q-2 -1 -4.5 4.5t-0.5 6.5q49 21 69 67t20 133v341q0 37 -7 53t-25 16q-19 0 -48 -15h-1q-5 0 -6.5 5t2.5 7l124 58l3 1q7 0 7 -7q0 -6 -1 -39.5zM202.5 472.5q-5.5 -1.5 -6.5 1.5l-68 179
l-69 -179q0 -2 -4 -2q-3 0 -5.5 1.5t-1.5 2.5l68 249q1 5 11 5q11 0 12 -5l67 -249q2 -2 -3.5 -3.5z" />
    <glyph glyph-name="uni0136" unicode="&#x136;" horiz-adv-x="649" 
d="M119.5 588q-6.5 14 -25 19.5t-57.5 5.5q-2 0 -2 6t2 6l49 -1q42 -2 66 -2q27 0 69 2l47 1q2 0 2 -6t-2 -6q-39 0 -57.5 -6t-25 -20.5t-6.5 -44.5v-461q0 -31 6.5 -45t24.5 -19t58 -5q2 0 2 -6t-2 -6q-30 0 -48 1l-68 1l-66 -1q-18 -1 -50 -1q-2 0 -2 6t2 6q39 0 57.5 5
t25.5 19.5t7 44.5v463q0 30 -6.5 44zM209 349l42 30l144 -181q76 -95 116 -134t61 -45.5t63 -6.5q3 0 3 -6t-3 -6h-112q-35 0 -42 4t-36.5 46t-71.5 95zM433 597q0 9 -13.5 12.5t-44.5 3.5q-2 0 -2 6t2 6l42 -1q38 -2 71 -2q31 0 65 2l35 1q3 0 3 -6t-3 -6
q-41 0 -84.5 -15.5t-81.5 -53.5l-256 -249l-24 -1l257 256q34 34 34 47zM329 -276q-3 0 -5 3.5t0 4.5q43 40 43 95q0 20 -4.5 28.5t-14.5 14.5l16 3q3 -16 -6 -24t-24 -8q-17 0 -26.5 9.5t-9.5 25.5q0 35 38 35q26 0 39.5 -18t13.5 -53q0 -32 -14.5 -59.5t-42.5 -55.5
q-1 -1 -3 -1z" />
    <glyph glyph-name="uni0137" unicode="&#x137;" horiz-adv-x="491" 
d="M24 6q0 6 3 6q29 0 42 5t18 19.5t5 44.5v519q0 37 -7 53t-25 16q-16 0 -48 -15h-2q-4 0 -5.5 5t2.5 6l120 59l5 1q2 0 4.5 -2t2.5 -5v-637q0 -30 5 -44.5t18.5 -19.5t42.5 -5q2 0 2 -6t-2 -6q-23 0 -37 1l-52 1l-53 -1q-13 -1 -36 -1q-3 0 -3 6zM276 6q0 6 2 6
q28 0 40.5 4.5t12.5 14.5q0 9 -9 22l-128 177l41 30l128 -179q48 -69 117 -69q2 0 2 -6t-2 -6q-23 0 -37 1l-52 1l-70 -1q-16 -1 -43 -1q-2 0 -2 6zM122 182l162 126q34 25 34 43q0 23 -63 23q-3 0 -3 6t3 6q27 0 41 -1l71 -1l66 1q12 1 35 1q2 0 2 -6t-2 -6q-75 0 -166 -69
l-176 -133zM232 -276q-3 0 -5 3.5t0 4.5q43 40 43 95q0 20 -4.5 28.5t-14.5 14.5l16 3q3 -16 -6 -24t-24 -8q-17 0 -26.5 9.5t-9.5 25.5q0 35 38 35q26 0 39.5 -18t13.5 -53q0 -32 -14.5 -59.5t-42.5 -55.5q-1 -1 -3 -1z" />
    <glyph glyph-name="kgreenlandic" unicode="&#x138;" horiz-adv-x="509" 
d="M293 6q0 6 3 6q27 0 39.5 4.5t12.5 14.5q0 9 -9 22l-127 177l41 30l127 -179q48 -69 117 -69q3 0 3 -6t-3 -6q-23 0 -36 1l-53 1l-71 -1q-15 -1 -41 -1q-3 0 -3 6zM139 182l163 126q34 25 34 43q0 23 -63 23q-3 0 -3 6t3 6q26 0 40 -1l72 -1l65 1q13 1 35 1q3 0 3 -6
t-3 -6q-75 0 -166 -69l-175 -133zM42 6q0 6 2 6q29 0 42.5 5t18.5 19.5t5 44.5v200q0 35 -8 50t-28 15q-16 0 -56 -15h-2q-4 0 -5.5 4.5t2.5 6.5l111 52q2 1 5 1q8 0 18 -22.5t10 -57.5v-234q0 -30 4.5 -44.5t18 -19.5t42.5 -5q3 0 3 -6t-3 -6q-23 0 -36 1l-53 1l-52 -1
q-14 -1 -37 -1q-2 0 -2 6z" />
    <glyph glyph-name="Lacute" unicode="&#x139;" horiz-adv-x="530" 
d="M184.5 42.5q6.5 -13.5 24 -18.5t55.5 -5h128q99 0 117 127q0 3 5.5 2.5t5.5 -3.5q-9 -79 -9 -130q0 -8 -3 -11.5t-12 -3.5h-460q-2 0 -2 6t2 6q39 0 57.5 5t25 19.5t6.5 44.5v463q0 30 -6.5 44t-25 19.5t-57.5 5.5q-2 0 -2 6t2 6l49 -1q42 -2 66 -2q27 0 69 2l47 1
q2 0 2 -6t-2 -6q-39 0 -57.5 -5.5t-25 -20t-6.5 -44.5v-458q0 -29 6.5 -42.5zM58 678q-4 0 -5 4.5t2 6.5q46 21 122 65l50 28q4 2 20.5 -4t29 -13.5t5.5 -8.5q-62 -15 -113.5 -33.5t-108.5 -43.5z" />
    <glyph glyph-name="lacute" unicode="&#x13a;" horiz-adv-x="256" 
d="M38 6q0 6 3 6q29 0 42 5t18 19.5t5 44.5v519q0 37 -7 53t-25 16q-16 0 -48 -15h-2q-4 0 -5.5 5t2.5 6l123 59q2 1 5 1q2 0 4.5 -2t2.5 -5v-637q0 -30 4.5 -44t18 -19.5t42.5 -5.5q3 0 3 -6t-3 -6q-22 0 -36 1l-54 1l-54 -1q-13 -1 -36 -1q-3 0 -3 6zM26 727q-4 0 -5 4.5
t2 6.5q46 21 122 65l50 28q4 2 20.5 -4t29 -13.5t5.5 -8.5q-62 -15 -113.5 -33.5t-108.5 -43.5z" />
    <glyph glyph-name="uni013B" unicode="&#x13b;" horiz-adv-x="530" 
d="M184.5 42.5q6.5 -13.5 24 -18.5t55.5 -5h128q99 0 117 127q0 3 5.5 2.5t5.5 -3.5q-9 -79 -9 -130q0 -8 -3 -11.5t-12 -3.5h-460q-2 0 -2 6t2 6q39 0 57.5 5t25 19.5t6.5 44.5v463q0 30 -6.5 44t-25 19.5t-57.5 5.5q-2 0 -2 6t2 6l49 -1q42 -2 66 -2q27 0 69 2l47 1
q2 0 2 -6t-2 -6q-39 0 -57.5 -5.5t-25 -20t-6.5 -44.5v-458q0 -29 6.5 -42.5zM284 -276q-3 0 -5 3.5t0 4.5q43 40 43 95q0 20 -4.5 28.5t-14.5 14.5l16 3q3 -16 -6 -24t-24 -8q-17 0 -26.5 9.5t-9.5 25.5q0 35 38 35q26 0 39.5 -18t13.5 -53q0 -32 -14.5 -59.5t-42.5 -55.5
q-1 -1 -3 -1z" />
    <glyph glyph-name="uni013C" unicode="&#x13c;" horiz-adv-x="256" 
d="M38 6q0 6 3 6q29 0 42 5t18 19.5t5 44.5v519q0 37 -7 53t-25 16q-16 0 -48 -15h-2q-4 0 -5.5 5t2.5 6l123 59q2 1 5 1q2 0 4.5 -2t2.5 -5v-637q0 -30 4.5 -44t18 -19.5t42.5 -5.5q3 0 3 -6t-3 -6q-22 0 -36 1l-54 1l-54 -1q-13 -1 -36 -1q-3 0 -3 6zM117 -276
q-3 0 -5 3.5t0 4.5q43 40 43 95q0 20 -4.5 28.5t-14.5 14.5l16 3q3 -16 -6 -24t-24 -8q-17 0 -26.5 9.5t-9.5 25.5q0 35 38 35q26 0 39.5 -18t13.5 -53q0 -32 -14.5 -59.5t-42.5 -55.5q-1 -1 -3 -1z" />
    <glyph glyph-name="Lcaron" unicode="&#x13d;" horiz-adv-x="530" 
d="M184.5 42.5q6.5 -13.5 24 -18.5t55.5 -5h128q99 0 117 127q0 3 5.5 2.5t5.5 -3.5q-9 -79 -9 -130q0 -8 -3 -11.5t-12 -3.5h-460q-2 0 -2 6t2 6q39 0 57.5 5t25 19.5t6.5 44.5v463q0 30 -6.5 44t-25 19.5t-57.5 5.5q-2 0 -2 6t2 6l49 -1q42 -2 66 -2q27 0 69 2l47 1
q2 0 2 -6t-2 -6q-39 0 -57.5 -5.5t-25 -20t-6.5 -44.5v-458q0 -29 6.5 -42.5zM364 624.5q11 -5.5 22 -14.5t11 -13l-25 -245q0 -2 -5.5 -1.5t-5.5 2.5l-8 272q0 5 11 -0.5z" />
    <glyph glyph-name="lcaron" unicode="&#x13e;" horiz-adv-x="256" 
d="M38 6q0 6 3 6q29 0 42 5t18 19.5t5 44.5v519q0 37 -7 53t-25 16q-16 0 -48 -15h-2q-4 0 -5.5 5t2.5 6l123 59q2 1 5 1q2 0 4.5 -2t2.5 -5v-637q0 -30 4.5 -44t18 -19.5t42.5 -5.5q3 0 3 -6t-3 -6q-22 0 -36 1l-54 1l-54 -1q-13 -1 -36 -1q-3 0 -3 6zM240 724.5
q11 -5.5 22 -14.5t11 -13l-25 -245q0 -2 -5.5 -1.5t-5.5 2.5l-8 272q0 5 11 -0.5z" />
    <glyph glyph-name="Ldot" unicode="&#x13f;" horiz-adv-x="530" 
d="M184.5 42.5q6.5 -13.5 24 -18.5t55.5 -5h128q99 0 117 127q0 3 5.5 2.5t5.5 -3.5q-9 -79 -9 -130q0 -8 -3 -11.5t-12 -3.5h-460q-2 0 -2 6t2 6q39 0 57.5 5t25 19.5t6.5 44.5v463q0 30 -6.5 44t-25 19.5t-57.5 5.5q-2 0 -2 6t2 6l49 -1q42 -2 66 -2q27 0 69 2l47 1
q2 0 2 -6t-2 -6q-39 0 -57.5 -5.5t-25 -20t-6.5 -44.5v-458q0 -29 6.5 -42.5zM400 294.5q-11 10.5 -11 28.5q0 17 11 27t29 10q19 0 29 -10t10 -27q0 -18 -10 -28.5t-29 -10.5q-18 0 -29 10.5z" />
    <glyph glyph-name="ldot" unicode="&#x140;" horiz-adv-x="256" 
d="M38 6q0 6 3 6q29 0 42 5t18 19.5t5 44.5v519q0 37 -7 53t-25 16q-16 0 -48 -15h-2q-4 0 -5.5 5t2.5 6l123 59q2 1 5 1q2 0 4.5 -2t2.5 -5v-637q0 -30 4.5 -44t18 -19.5t42.5 -5.5q3 0 3 -6t-3 -6q-22 0 -36 1l-54 1l-54 -1q-13 -1 -36 -1q-3 0 -3 6zM228 309.5
q-11 10.5 -11 28.5q0 17 11 27t29 10q19 0 29 -10t10 -27q0 -18 -10 -28.5t-29 -10.5q-18 0 -29 10.5z" />
    <glyph glyph-name="Lslash" unicode="&#x141;" horiz-adv-x="518" 
d="M73 240q-4 0 -8 7.5t-1 8.5l219 126h1q4 0 8 -7.5t0 -8.5l-218 -126h-1zM184.5 42.5q6.5 -13.5 24 -18.5t55.5 -5h128q99 0 117 127q0 3 5.5 2.5t5.5 -3.5q-9 -79 -9 -130q0 -8 -3 -11.5t-12 -3.5h-460q-2 0 -2 6t2 6q39 0 57.5 5t25 19.5t6.5 44.5v463q0 30 -6.5 44
t-25 19.5t-57.5 5.5q-2 0 -2 6t2 6l49 -1q42 -2 66 -2q27 0 69 2l47 1q2 0 2 -6t-2 -6q-39 0 -57.5 -5.5t-25 -20t-6.5 -44.5v-458q0 -29 6.5 -42.5z" />
    <glyph glyph-name="lslash" unicode="&#x142;" horiz-adv-x="260" 
d="M50 287q-4 0 -8 7.5t0 8.5l178 103h1q4 0 8 -7.5t0 -9.5l-178 -102h-1zM42 6q0 6 3 6q29 0 42 5t18 19.5t5 44.5v519q0 37 -7 53t-25 16q-16 0 -48 -15h-2q-4 0 -5.5 5t2.5 6l123 59q2 1 5 1q2 0 4.5 -2t2.5 -5v-637q0 -30 4.5 -44t18 -19.5t42.5 -5.5q3 0 3 -6t-3 -6
q-22 0 -36 1l-54 1l-54 -1q-13 -1 -36 -1q-3 0 -3 6z" />
    <glyph glyph-name="Nacute" unicode="&#x143;" horiz-adv-x="725" 
d="M118 602l22 -2v-496q0 -51 17 -71.5t59 -20.5q3 0 3 -6t-3 -6q-24 0 -37 1l-48 1l-49 -1q-13 -1 -39 -1q-2 0 -2 6t2 6q43 0 59 20t16 72v498zM616 -14q-5 -1 -7 1l-452 556q-32 39 -58.5 54.5t-52.5 15.5q-3 0 -3 6t3 6l36 -1q11 -1 31 -1q17 0 28 1t17 1q7 0 11.5 -3.5
t10.5 -14.5q11 -18 24 -34l409 -508l8 -76q0 -2 -5 -3zM621 -11l-22 31v500q0 51 -16 72t-58 21q-2 0 -2 6t2 6l38 -1q30 -2 48 -2q17 0 49 2l39 1q3 0 3 -6t-3 -6q-43 0 -60.5 -21t-17.5 -72v-531zM275 678q-4 0 -5 4.5t2 6.5q46 21 122 65l50 28q4 2 20.5 -4t29 -13.5
t5.5 -8.5q-62 -15 -113.5 -33.5t-108.5 -43.5z" />
    <glyph glyph-name="nacute" unicode="&#x144;" horiz-adv-x="515" 
d="M312 6q0 6 3 6q29 0 42 5t18 19.5t5 44.5v167q0 61 -23 89t-72 28q-38 0 -77.5 -25.5t-68.5 -68.5l-4 12q46 61 89 88.5t88 27.5q56 0 85.5 -30t29.5 -91v-197q0 -30 4.5 -44.5t18 -19.5t42.5 -5q3 0 3 -6t-3 -6q-23 0 -36 1l-52 1l-53 -1q-13 -1 -36 -1q-3 0 -3 6zM43 6
q0 6 3 6q29 0 42 5t18 19.5t5 44.5v200q0 35 -8 50t-28 15q-16 0 -56 -15h-2q-4 0 -5.5 4.5t2.5 6.5l111 52q2 1 5 1q8 0 18 -22.5t10 -57.5v-234q0 -30 4.5 -44.5t18 -19.5t42.5 -5q3 0 3 -6t-3 -6q-23 0 -36 1l-52 1l-53 -1q-13 -1 -36 -1q-3 0 -3 6zM263 472
q-3 0 -5.5 1.5t-1.5 2.5l57 240q1 4 14.5 8.5t26 6t10.5 -3.5l-97 -253q0 -2 -4 -2z" />
    <glyph glyph-name="uni0145" unicode="&#x145;" horiz-adv-x="725" 
d="M118 602l22 -2v-496q0 -51 17 -71.5t59 -20.5q3 0 3 -6t-3 -6q-24 0 -37 1l-48 1l-49 -1q-13 -1 -39 -1q-2 0 -2 6t2 6q43 0 59 20t16 72v498zM616 -14q-5 -1 -7 1l-452 556q-32 39 -58.5 54.5t-52.5 15.5q-3 0 -3 6t3 6l36 -1q11 -1 31 -1q17 0 28 1t17 1q7 0 11.5 -3.5
t10.5 -14.5q11 -18 24 -34l409 -508l8 -76q0 -2 -5 -3zM621 -11l-22 31v500q0 51 -16 72t-58 21q-2 0 -2 6t2 6l38 -1q30 -2 48 -2q17 0 49 2l39 1q3 0 3 -6t-3 -6q-43 0 -60.5 -21t-17.5 -72v-531zM360 -276q-3 0 -5 3.5t0 4.5q43 40 43 95q0 20 -4.5 28.5t-14.5 14.5l16 3
q3 -16 -6 -24t-24 -8q-17 0 -26.5 9.5t-9.5 25.5q0 35 38 35q26 0 39.5 -18t13.5 -53q0 -32 -14.5 -59.5t-42.5 -55.5q-1 -1 -3 -1z" />
    <glyph glyph-name="uni0146" unicode="&#x146;" horiz-adv-x="515" 
d="M312 6q0 6 3 6q29 0 42 5t18 19.5t5 44.5v167q0 61 -23 89t-72 28q-38 0 -77.5 -25.5t-68.5 -68.5l-4 12q46 61 89 88.5t88 27.5q56 0 85.5 -30t29.5 -91v-197q0 -30 4.5 -44.5t18 -19.5t42.5 -5q3 0 3 -6t-3 -6q-23 0 -36 1l-52 1l-53 -1q-13 -1 -36 -1q-3 0 -3 6zM43 6
q0 6 3 6q29 0 42 5t18 19.5t5 44.5v200q0 35 -8 50t-28 15q-16 0 -56 -15h-2q-4 0 -5.5 4.5t2.5 6.5l111 52q2 1 5 1q8 0 18 -22.5t10 -57.5v-234q0 -30 4.5 -44.5t18 -19.5t42.5 -5q3 0 3 -6t-3 -6q-23 0 -36 1l-52 1l-53 -1q-13 -1 -36 -1q-3 0 -3 6zM243 -276
q-3 0 -5 3.5t0 4.5q43 40 43 95q0 20 -4.5 28.5t-14.5 14.5l16 3q3 -16 -6 -24t-24 -8q-17 0 -26.5 9.5t-9.5 25.5q0 35 38 35q26 0 39.5 -18t13.5 -53q0 -32 -14.5 -59.5t-42.5 -55.5q-1 -1 -3 -1z" />
    <glyph glyph-name="Ncaron" unicode="&#x147;" horiz-adv-x="725" 
d="M118 602l22 -2v-496q0 -51 17 -71.5t59 -20.5q3 0 3 -6t-3 -6q-24 0 -37 1l-48 1l-49 -1q-13 -1 -39 -1q-2 0 -2 6t2 6q43 0 59 20t16 72v498zM616 -14q-5 -1 -7 1l-452 556q-32 39 -58.5 54.5t-52.5 15.5q-3 0 -3 6t3 6l36 -1q11 -1 31 -1q17 0 28 1t17 1q7 0 11.5 -3.5
t10.5 -14.5q11 -18 24 -34l409 -508l8 -76q0 -2 -5 -3zM621 -11l-22 31v500q0 51 -16 72t-58 21q-2 0 -2 6t2 6l38 -1q30 -2 48 -2q17 0 49 2l39 1q3 0 3 -6t-3 -6q-43 0 -60.5 -21t-17.5 -72v-531zM258 780v0q0 2 2.5 4.5t4.5 1.5l109 -62l108 62h1q3 0 5 -3t-1 -4
l-102 -92q-4 -4 -11 -4q-8 0 -12 4l-103 92z" />
    <glyph glyph-name="ncaron" unicode="&#x148;" horiz-adv-x="515" 
d="M312 6q0 6 3 6q29 0 42 5t18 19.5t5 44.5v167q0 61 -23 89t-72 28q-38 0 -77.5 -25.5t-68.5 -68.5l-4 12q46 61 89 88.5t88 27.5q56 0 85.5 -30t29.5 -91v-197q0 -30 4.5 -44.5t18 -19.5t42.5 -5q3 0 3 -6t-3 -6q-23 0 -36 1l-52 1l-53 -1q-13 -1 -36 -1q-3 0 -3 6zM43 6
q0 6 3 6q29 0 42 5t18 19.5t5 44.5v200q0 35 -8 50t-28 15q-16 0 -56 -15h-2q-4 0 -5.5 4.5t2.5 6.5l111 52q2 1 5 1q8 0 18 -22.5t10 -57.5v-234q0 -30 4.5 -44.5t18 -19.5t42.5 -5q3 0 3 -6t-3 -6q-23 0 -36 1l-52 1l-53 -1q-13 -1 -36 -1q-3 0 -3 6zM193.5 730
q5.5 1 6.5 -1l69 -179l68 179q1 2 6 1t4 -4l-67 -249q-2 -5 -11 -5t-12 5l-68 249q-1 3 4.5 4z" />
    <glyph glyph-name="napostrophe" unicode="&#x149;" horiz-adv-x="515" 
d="M132.5 613.5q16.5 -21.5 16.5 -63.5t-17.5 -80t-51.5 -76q-1 -1 -3 -1q-3 0 -5 3t0 5q21 31 28 57.5t7 60.5q0 27 -8 44t-21 30l38 7q1 -17 -8.5 -26t-25.5 -9q-17 0 -26.5 9.5t-9.5 25.5q0 35 41 35q29 0 45.5 -21.5zM312 6q0 6 3 6q29 0 42 5t18 19.5t5 44.5v167
q0 61 -23 89t-72 28q-38 0 -77.5 -25.5t-68.5 -68.5l-4 12q46 61 89 88.5t88 27.5q56 0 85.5 -30t29.5 -91v-197q0 -30 4.5 -44.5t18 -19.5t42.5 -5q3 0 3 -6t-3 -6q-23 0 -36 1l-52 1l-53 -1q-13 -1 -36 -1q-3 0 -3 6zM43 6q0 6 3 6q29 0 42 5t18 19.5t5 44.5v200
q0 35 -8 50t-28 15q-16 0 -56 -15h-2q-4 0 -5.5 4.5t2.5 6.5l111 52q2 1 5 1q8 0 18 -22.5t10 -57.5v-234q0 -30 4.5 -44.5t18 -19.5t42.5 -5q3 0 3 -6t-3 -6q-23 0 -36 1l-52 1l-53 -1q-13 -1 -36 -1q-3 0 -3 6z" />
    <glyph glyph-name="Eng" unicode="&#x14a;" horiz-adv-x="725" 
d="M98.5 597.5q-26.5 15.5 -52.5 15.5q-3 0 -3 6t3 6l36 -1q11 -1 31 -1q17 0 28 1t17 1q7 0 11.5 -3.5t10.5 -14.5q11 -18 24 -34l409 -508l8 -76l-12 -2l-452 556q-32 39 -58.5 54.5zM440.5 -175q-21.5 16 -21.5 39q0 15 7 23.5t20 8.5t19.5 -7.5t13.5 -24.5
q7 -18 15 -27.5t26 -9.5q38 0 59.5 43.5t21.5 115.5l20 3q0 -89 -32 -134.5t-94 -45.5q-33 0 -54.5 16zM41 6q0 6 2 6q43 0 60 20.5t17 71.5v498l20 -2v-496q0 -51 17 -71.5t59 -20.5q3 0 3 -6t-3 -6q-24 0 -37 1l-48 1l-49 -1q-13 -1 -39 -1q-2 0 -2 6zM584 592
q-17 21 -59 21q-2 0 -2 6t2 6l38 -1q30 -2 48 -2q17 0 49 2l39 1q3 0 3 -6t-3 -6q-43 0 -60.5 -21t-17.5 -72v-531l-20 -3v534q0 51 -17 72z" />
    <glyph glyph-name="eng" unicode="&#x14b;" horiz-adv-x="503" 
d="M290 -270.5q-2 5.5 0 6.5q49 21 69 64t20 129v319q0 61 -23 89t-72 28q-38 0 -77.5 -25.5t-68.5 -68.5l-5 12q46 61 89 88.5t89 27.5q56 0 85.5 -30t29.5 -91v-326q0 -67 -12 -109.5t-40 -69.5t-79 -48q-3 -1 -5 4.5zM42 6q0 6 2 6q29 0 42.5 5t18.5 19.5t5 44.5v200
q0 35 -8 50t-28 15q-16 0 -56 -15h-2q-4 0 -5.5 4.5t2.5 6.5l111 52q2 1 5 1q8 0 18 -22.5t10 -57.5v-234q0 -30 4.5 -44.5t18 -19.5t42.5 -5q3 0 3 -6t-3 -6q-23 0 -36 1l-53 1l-52 -1q-14 -1 -37 -1q-2 0 -2 6z" />
    <glyph glyph-name="Omacron" unicode="&#x14c;" horiz-adv-x="766" 
d="M200.5 31.5q-72.5 43.5 -112 118t-39.5 162.5q0 103 52 176.5t133.5 110.5t166.5 37q95 0 167 -44.5t110.5 -117.5t38.5 -155q0 -91 -48 -167t-128.5 -120t-174.5 -44q-93 0 -165.5 43.5zM530 41q57 33 90 97t33 153q0 94 -36.5 167.5t-103 114.5t-154.5 41
q-116 0 -181 -72t-65 -196q0 -93 36.5 -170.5t102.5 -122.5t150 -45q71 0 128 33zM254.5 728q-1.5 4 -1.5 9q0 13 5 13h251q5 0 5 -13t-5 -13h-251q-2 0 -3.5 4z" />
    <glyph glyph-name="omacron" unicode="&#x14d;" 
d="M129 15.5q-44 28.5 -68 77t-24 105.5q0 65 31.5 110.5t80 68t99.5 22.5q58 0 101.5 -29t67 -76.5t23.5 -100.5q0 -62 -28.5 -109t-76.5 -72t-105 -25t-101 28.5zM349 44q33 39 33 123q0 60 -21 108.5t-59 76.5t-87 28q-57 0 -89 -39.5t-32 -113.5q0 -60 21 -110.5t58 -81
t85 -30.5q58 0 91 39zM109.5 489q-1.5 4 -1.5 9q0 13 5 13h251q5 0 5 -13t-5 -13h-251q-2 0 -3.5 4z" />
    <glyph glyph-name="Obreve" unicode="&#x14e;" horiz-adv-x="766" 
d="M200.5 31.5q-72.5 43.5 -112 118t-39.5 162.5q0 103 52 176.5t133.5 110.5t166.5 37q95 0 167 -44.5t110.5 -117.5t38.5 -155q0 -91 -48 -167t-128.5 -120t-174.5 -44q-93 0 -165.5 43.5zM530 41q57 33 90 97t33 153q0 94 -36.5 167.5t-103 114.5t-154.5 41
q-116 0 -181 -72t-65 -196q0 -93 36.5 -170.5t102.5 -122.5t150 -45q71 0 128 33zM316.5 716.5q-26.5 26.5 -35.5 75.5q-1 4 4 4.5t7 -1.5q8 -30 35 -50.5t57 -20.5t56.5 21t34.5 50q0 2 4 2q3 0 5.5 -1.5t1.5 -3.5q-9 -49 -35 -75.5t-67 -26.5t-67.5 26.5z" />
    <glyph glyph-name="obreve" unicode="&#x14f;" 
d="M129 15.5q-44 28.5 -68 77t-24 105.5q0 65 31.5 110.5t80 68t99.5 22.5q58 0 101.5 -29t67 -76.5t23.5 -100.5q0 -62 -28.5 -109t-76.5 -72t-105 -25t-101 28.5zM349 44q33 39 33 123q0 60 -21 108.5t-59 76.5t-87 28q-57 0 -89 -39.5t-32 -113.5q0 -60 21 -110.5t58 -81
t85 -30.5q58 0 91 39zM141.5 628q5.5 1 5.5 -2q0 -47 26 -78t66 -31q38 0 64.5 31.5t26.5 77.5q0 2 3 2t5.5 -1.5t2.5 -3.5q0 -73 -26 -110.5t-76 -37.5t-76.5 37.5t-26.5 110.5q0 4 5.5 5z" />
    <glyph glyph-name="Ohungarumlaut" unicode="&#x150;" horiz-adv-x="766" 
d="M200.5 31.5q-72.5 43.5 -112 118t-39.5 162.5q0 103 52 176.5t133.5 110.5t166.5 37q95 0 167 -44.5t110.5 -117.5t38.5 -155q0 -91 -48 -167t-128.5 -120t-174.5 -44q-93 0 -165.5 43.5zM530 41q57 33 90 97t33 153q0 94 -36.5 167.5t-103 114.5t-154.5 41
q-116 0 -181 -72t-65 -196q0 -93 36.5 -170.5t102.5 -122.5t150 -45q71 0 128 33zM279 678q-3 0 -4 4.5t1 6.5q41 37 90 87q3 3 20.5 -1t31 -10t6.5 -9q-67 -28 -143 -77zM396 678q-3 0 -4 4.5t1 6.5q41 37 90 87q3 3 19.5 -1t29 -10t6.5 -9q-37 -15 -68.5 -33t-71.5 -44z
" />
    <glyph glyph-name="ohungarumlaut" unicode="&#x151;" 
d="M129 15.5q-44 28.5 -68 77t-24 105.5q0 65 31.5 110.5t80 68t99.5 22.5q58 0 101.5 -29t67 -76.5t23.5 -100.5q0 -62 -28.5 -109t-76.5 -72t-105 -25t-101 28.5zM349 44q33 39 33 123q0 60 -21 108.5t-59 76.5t-87 28q-57 0 -89 -39.5t-32 -113.5q0 -60 21 -110.5t58 -81
t85 -30.5q58 0 91 39zM177 472q-3 0 -5.5 1.5t-1.5 2.5l57 240q1 4 14.5 8.5t26 6t10.5 -3.5l-97 -253q0 -2 -4 -2zM306 472q-3 0 -5.5 1.5t-1.5 2.5l57 240q1 4 14.5 8.5t26 6t10.5 -3.5l-97 -253q0 -2 -4 -2z" />
    <glyph glyph-name="OE" unicode="&#x152;" horiz-adv-x="910" 
d="M215.5 36q-78.5 40 -122.5 110t-44 155q0 97 46 171t124.5 114.5t171.5 40.5q41 0 65 -1l80 -1h280q10 0 10 -9l2 -121q0 -3 -6 -3t-6 3q0 50 -27 80.5t-71 30.5h-69q-38 0 -56 -5t-24 -17.5t-6 -40.5v-458q0 -29 6 -42.5t24 -18.5t56 -5h93q39 0 68 35t37 91q0 3 5.5 3
t5.5 -3q-9 -79 -9 -130q0 -8 -3 -11.5t-12 -3.5h-292q-22 0 -72 -2q-52 -2 -77 -2q-99 0 -177.5 40zM759 298q-19 18 -68 18h-153v19h157q46 0 64 15.5t18 53.5q0 2 5.5 2t5.5 -2l-1 -79q0 -29 1 -43l1 -47q0 -2 -5.5 -2t-5.5 2q0 45 -19 63zM463 14.5q24 5.5 35.5 21
t11.5 46.5v449q0 45 -22.5 64t-86.5 19q-84 0 -149.5 -34t-102 -99.5t-36.5 -157.5q0 -88 34.5 -159.5t99 -113t148.5 -41.5q44 0 68 5.5z" />
    <glyph glyph-name="oe" unicode="&#x153;" horiz-adv-x="697" 
d="M112 16q-41 29 -63.5 77t-22.5 105q0 65 29.5 110.5t75 68t92.5 22.5q52 0 89.5 -26t57 -70t19.5 -96q0 -65 -24.5 -115t-66.5 -77.5t-93 -27.5q-52 0 -93 29zM309.5 48q28.5 43 28.5 122q0 63 -18.5 110.5t-52 73.5t-76.5 26q-51 0 -80 -39.5t-29 -113.5
q0 -60 19.5 -111t54 -81t76.5 -30q49 0 77.5 43zM385 39.5q-47 51.5 -47 130.5q0 60 27.5 111.5t75.5 82.5t106 31q55 0 82.5 -28t27.5 -89q0 -12 -2.5 -17t-8.5 -5h-50q1 8 1 24q0 95 -84 95q-58 0 -91 -46.5t-33 -121.5q0 -87 44 -137t118 -50q63 0 104 34h1q3 0 5.5 -3.5
t0.5 -6.5q-66 -56 -143 -56q-87 0 -134 51.5zM378 267l230 4v-15l-229 -1z" />
    <glyph glyph-name="Racute" unicode="&#x154;" horiz-adv-x="667" 
d="M461.5 85.5q-72.5 85.5 -174.5 236.5l48 15q88 -125 147 -194.5t104.5 -100t89.5 -30.5q3 0 3 -6t-3 -6h-116q-26 0 -98.5 85.5zM415.5 591.5q41.5 -36.5 41.5 -96.5q0 -52 -30.5 -95.5t-83 -68.5t-113.5 -25q-4 0 -43 3v-228q0 -31 6.5 -45t24.5 -19t58 -5q3 0 3 -6
t-3 -6q-30 0 -48 1l-68 1l-66 -1q-18 -1 -50 -1q-2 0 -2 6t2 6q40 0 58.5 5t25.5 19.5t7 44.5v463q0 30 -6.5 44t-25 19.5t-57.5 5.5q-3 0 -3 6t3 6l48 -1q40 -2 66 -2q22 0 41.5 1t33.5 2q36 3 64 3q75 0 116.5 -36.5zM363.5 580q-37.5 35 -108.5 35q-38 0 -53 -14t-15 -59
v-210q29 -3 60 -3q83 0 118.5 34.5t35.5 104.5q0 77 -37.5 112zM175 678q-4 0 -5.5 4.5t1.5 6.5q40 18 114 60l58 32q4 2 20.5 -3.5t29 -13t5.5 -8.5q-118 -30 -222 -78h-1z" />
    <glyph glyph-name="racute" unicode="&#x155;" horiz-adv-x="360" 
d="M216.5 372q27.5 23 52.5 23q22 0 41.5 -11.5t19.5 -26.5q0 -10 -7.5 -18t-21.5 -8q-10 0 -18 5.5t-10 6.5q-19 15 -38 15q-15 0 -33.5 -16t-62.5 -71l-4 10q54 68 81.5 91zM43 6q0 6 3 6q29 0 42 5t18 19.5t5 44.5v200q0 35 -8 50t-28 15q-16 0 -56 -15h-2q-4 0 -5.5 4.5
t2.5 6.5l111 52q2 1 5 1q8 0 18 -22.5t10 -57.5v-234q0 -30 7 -44.5t27.5 -19.5t65.5 -5q3 0 3 -6t-3 -6q-32 0 -51 1l-72 1l-53 -1q-13 -1 -36 -1q-3 0 -3 6zM175 472q-3 0 -5.5 1.5t-1.5 2.5l57 240q1 4 14.5 8.5t26 6t10.5 -3.5l-97 -253q0 -2 -4 -2z" />
    <glyph glyph-name="uni0156" unicode="&#x156;" horiz-adv-x="667" 
d="M461.5 85.5q-72.5 85.5 -174.5 236.5l48 15q88 -125 147 -194.5t104.5 -100t89.5 -30.5q3 0 3 -6t-3 -6h-116q-26 0 -98.5 85.5zM415.5 591.5q41.5 -36.5 41.5 -96.5q0 -52 -30.5 -95.5t-83 -68.5t-113.5 -25q-4 0 -43 3v-228q0 -31 6.5 -45t24.5 -19t58 -5q3 0 3 -6
t-3 -6q-30 0 -48 1l-68 1l-66 -1q-18 -1 -50 -1q-2 0 -2 6t2 6q40 0 58.5 5t25.5 19.5t7 44.5v463q0 30 -6.5 44t-25 19.5t-57.5 5.5q-3 0 -3 6t3 6l48 -1q40 -2 66 -2q22 0 41.5 1t33.5 2q36 3 64 3q75 0 116.5 -36.5zM363.5 580q-37.5 35 -108.5 35q-38 0 -53 -14t-15 -59
v-210q29 -3 60 -3q83 0 118.5 34.5t35.5 104.5q0 77 -37.5 112zM326 -276q-3 0 -5 3.5t0 4.5q43 40 43 95q0 20 -4.5 28.5t-14.5 14.5l16 3q3 -16 -6 -24t-24 -8q-17 0 -26.5 9.5t-9.5 25.5q0 35 38 35q26 0 39.5 -18t13.5 -53q0 -32 -14.5 -59.5t-42.5 -55.5q-1 -1 -3 -1z
" />
    <glyph glyph-name="uni0157" unicode="&#x157;" horiz-adv-x="360" 
d="M216.5 372q27.5 23 52.5 23q22 0 41.5 -11.5t19.5 -26.5q0 -10 -7.5 -18t-21.5 -8q-10 0 -18 5.5t-10 6.5q-19 15 -38 15q-15 0 -33.5 -16t-62.5 -71l-4 10q54 68 81.5 91zM43 6q0 6 3 6q29 0 42 5t18 19.5t5 44.5v200q0 35 -8 50t-28 15q-16 0 -56 -15h-2q-4 0 -5.5 4.5
t2.5 6.5l111 52q2 1 5 1q8 0 18 -22.5t10 -57.5v-234q0 -30 7 -44.5t27.5 -19.5t65.5 -5q3 0 3 -6t-3 -6q-32 0 -51 1l-72 1l-53 -1q-13 -1 -36 -1q-3 0 -3 6zM140 -276q-3 0 -5 3.5t0 4.5q43 40 43 95q0 20 -4.5 28.5t-14.5 14.5l16 3q3 -16 -6 -24t-24 -8q-17 0 -26.5 9.5
t-9.5 25.5q0 35 38 35q26 0 39.5 -18t13.5 -53q0 -32 -14.5 -59.5t-42.5 -55.5q-1 -1 -3 -1z" />
    <glyph glyph-name="Rcaron" unicode="&#x158;" horiz-adv-x="667" 
d="M461.5 85.5q-72.5 85.5 -174.5 236.5l48 15q88 -125 147 -194.5t104.5 -100t89.5 -30.5q3 0 3 -6t-3 -6h-116q-26 0 -98.5 85.5zM415.5 591.5q41.5 -36.5 41.5 -96.5q0 -52 -30.5 -95.5t-83 -68.5t-113.5 -25q-4 0 -43 3v-228q0 -31 6.5 -45t24.5 -19t58 -5q3 0 3 -6
t-3 -6q-30 0 -48 1l-68 1l-66 -1q-18 -1 -50 -1q-2 0 -2 6t2 6q40 0 58.5 5t25.5 19.5t7 44.5v463q0 30 -6.5 44t-25 19.5t-57.5 5.5q-3 0 -3 6t3 6l48 -1q40 -2 66 -2q22 0 41.5 1t33.5 2q36 3 64 3q75 0 116.5 -36.5zM363.5 580q-37.5 35 -108.5 35q-38 0 -53 -14t-15 -59
v-210q29 -3 60 -3q83 0 118.5 34.5t35.5 104.5q0 77 -37.5 112zM158 780h-1q0 2 2.5 4.5t4.5 1.5l109 -62l108 62h1q3 0 5 -3t-1 -4l-102 -92q-4 -4 -11 -4q-8 0 -12 4l-103 92v1z" />
    <glyph glyph-name="rcaron" unicode="&#x159;" horiz-adv-x="360" 
d="M216.5 372q27.5 23 52.5 23q22 0 41.5 -11.5t19.5 -26.5q0 -10 -7.5 -18t-21.5 -8q-10 0 -18 5.5t-10 6.5q-19 15 -38 15q-15 0 -33.5 -16t-62.5 -71l-4 10q54 68 81.5 91zM43 6q0 6 3 6q29 0 42 5t18 19.5t5 44.5v200q0 35 -8 50t-28 15q-16 0 -56 -15h-2q-4 0 -5.5 4.5
t2.5 6.5l111 52q2 1 5 1q8 0 18 -22.5t10 -57.5v-234q0 -30 7 -44.5t27.5 -19.5t65.5 -5q3 0 3 -6t-3 -6q-32 0 -51 1l-72 1l-53 -1q-13 -1 -36 -1q-3 0 -3 6zM105.5 730q5.5 1 6.5 -1l69 -179l68 179q1 2 6 1t4 -4l-67 -249q-2 -5 -11 -5t-12 5l-68 249q-1 3 4.5 4z" />
    <glyph glyph-name="Sacute" unicode="&#x15a;" horiz-adv-x="485" 
d="M157 435q19 -29 46.5 -48.5t76.5 -48.5q52 -31 80.5 -51.5t49 -52.5t20.5 -77q0 -47 -23 -85.5t-68.5 -61t-111.5 -22.5q-35 0 -66.5 7.5t-69.5 26.5q-5 3 -6.5 7t-2.5 12l-15 130v1q0 4 5 4.5t6 -3.5q10 -69 53 -120t118 -51q53 0 89.5 29t36.5 91q0 45 -20 77.5
t-48.5 54t-77.5 50.5q-48 28 -75.5 49t-47 52.5t-19.5 75.5q0 50 25.5 85t66.5 52.5t88 17.5q55 0 114 -24q15 -6 15 -17l9 -106q0 -4 -5.5 -4t-6.5 4q-4 52 -39 93t-100 41q-60 0 -88 -35t-28 -84q0 -40 19 -69zM152 678q-4 0 -5 4.5t2 6.5q46 21 122 65l50 28q4 2 20.5 -4
t29 -13.5t5.5 -8.5q-62 -15 -113.5 -33.5t-108.5 -43.5z" />
    <glyph glyph-name="sacute" unicode="&#x15b;" horiz-adv-x="338" 
d="M119 264.5q23 -20.5 70 -43.5q34 -17 54 -30t34 -33.5t14 -49.5q0 -50 -37.5 -84.5t-102.5 -34.5q-53 0 -94 31q-6 4 -6 12l-2 72q0 3 5.5 3.5t6.5 -2.5q19 -50 48.5 -73.5t70.5 -23.5q34 0 52 15t18 44t-12.5 48.5t-31 31.5t-50.5 27q-33 16 -52.5 28.5t-33 33.5
t-13.5 52q0 53 40 82t94 29q37 0 71 -15q6 -3 7.5 -5t1.5 -6q0 -19 -1 -30l-1 -39q0 -2 -6 -2t-6 2q0 32 -33 53.5t-70 21.5q-27 0 -42.5 -14.5t-15.5 -42.5q0 -37 23 -57.5zM166 472q-3 0 -5.5 1.5t-1.5 2.5l57 240q1 4 14.5 8.5t26 6t10.5 -3.5l-97 -253q0 -2 -4 -2z" />
    <glyph glyph-name="Scircumflex" unicode="&#x15c;" horiz-adv-x="485" 
d="M157 435q19 -29 46.5 -48.5t76.5 -48.5q52 -31 80.5 -51.5t49 -52.5t20.5 -77q0 -47 -23 -85.5t-68.5 -61t-111.5 -22.5q-35 0 -66.5 7.5t-69.5 26.5q-5 3 -6.5 7t-2.5 12l-15 130v1q0 4 5 4.5t6 -3.5q10 -69 53 -120t118 -51q53 0 89.5 29t36.5 91q0 45 -20 77.5
t-48.5 54t-77.5 50.5q-48 28 -75.5 49t-47 52.5t-19.5 75.5q0 50 25.5 85t66.5 52.5t88 17.5q55 0 114 -24q15 -6 15 -17l9 -106q0 -4 -5.5 -4t-6.5 4q-4 52 -39 93t-100 41q-60 0 -88 -35t-28 -84q0 -40 19 -69zM252 788q6 0 11 -5l102 -93q1 0 1 -2t-2.5 -4t-3.5 -1
l-108 62l-109 -62q-2 -1 -5 2.5t-1 4.5l103 93q5 5 12 5z" />
    <glyph glyph-name="scircumflex" unicode="&#x15d;" horiz-adv-x="338" 
d="M119 264.5q23 -20.5 70 -43.5q34 -17 54 -30t34 -33.5t14 -49.5q0 -50 -37.5 -84.5t-102.5 -34.5q-53 0 -94 31q-6 4 -6 12l-2 72q0 3 5.5 3.5t6.5 -2.5q19 -50 48.5 -73.5t70.5 -23.5q34 0 52 15t18 44t-12.5 48.5t-31 31.5t-50.5 27q-33 16 -52.5 28.5t-33 33.5
t-13.5 52q0 53 40 82t94 29q37 0 71 -15q6 -3 7.5 -5t1.5 -6q0 -19 -1 -30l-1 -39q0 -2 -6 -2t-6 2q0 32 -33 53.5t-70 21.5q-27 0 -42.5 -14.5t-15.5 -42.5q0 -37 23 -57.5zM247.5 472.5q-5.5 -1.5 -6.5 1.5l-68 179l-69 -179q0 -2 -4 -2q-3 0 -5.5 1.5t-1.5 2.5l68 249
q1 5 11 5q11 0 12 -5l67 -249q2 -2 -3.5 -3.5z" />
    <glyph glyph-name="Scedilla" unicode="&#x15e;" horiz-adv-x="485" 
d="M157 435q19 -29 46.5 -48.5t76.5 -48.5q52 -31 80.5 -51.5t49 -52.5t20.5 -77q0 -47 -23 -85.5t-68.5 -61t-111.5 -22.5q-35 0 -66.5 7.5t-69.5 26.5q-5 3 -6.5 7t-2.5 12l-15 130v1q0 4 5 4.5t6 -3.5q10 -69 53 -120t118 -51q53 0 89.5 29t36.5 91q0 45 -20 77.5
t-48.5 54t-77.5 50.5q-48 28 -75.5 49t-47 52.5t-19.5 75.5q0 50 25.5 85t66.5 52.5t88 17.5q55 0 114 -24q15 -6 15 -17l9 -106q0 -4 -5.5 -4t-6.5 4q-4 52 -39 93t-100 41q-60 0 -88 -35t-28 -84q0 -40 19 -69zM248.5 -39q-4.5 -16 -4.5 -24q0 -11 6.5 -17t19 -13
t19.5 -11q25 -14 39.5 -32t14.5 -45q0 -36 -25.5 -65t-73.5 -29q-26 0 -44 9.5t-18 26.5q0 12 8 19.5t20 7.5q10 0 15.5 -5t10.5 -15q8 -12 15 -18t22 -6q37 0 37 41q0 26 -18.5 46.5t-67.5 46.5q-8 4 -12 7t-4 7q0 5 6 17q11 28 24 62l10 28l12 -1q-7 -21 -11.5 -37z" />
    <glyph glyph-name="scedilla" unicode="&#x15f;" horiz-adv-x="338" 
d="M119 264.5q23 -20.5 70 -43.5q34 -17 54 -30t34 -33.5t14 -49.5q0 -50 -37.5 -84.5t-102.5 -34.5q-53 0 -94 31q-6 4 -6 12l-2 72q0 3 5.5 3.5t6.5 -2.5q19 -50 48.5 -73.5t70.5 -23.5q34 0 52 15t18 44t-12.5 48.5t-31 31.5t-50.5 27q-33 16 -52.5 28.5t-33 33.5
t-13.5 52q0 53 40 82t94 29q37 0 71 -15q6 -3 7.5 -5t1.5 -6q0 -19 -1 -30l-1 -39q0 -2 -6 -2t-6 2q0 32 -33 53.5t-70 21.5q-27 0 -42.5 -14.5t-15.5 -42.5q0 -37 23 -57.5zM160.5 -39q-4.5 -16 -4.5 -24q0 -11 6.5 -17t19 -13t19.5 -11q25 -14 39.5 -32t14.5 -45
q0 -36 -25.5 -65t-73.5 -29q-26 0 -44 9.5t-18 26.5q0 12 8 19.5t20 7.5q10 0 15.5 -5t10.5 -15q8 -12 15 -18t22 -6q37 0 37 41q0 26 -18.5 46.5t-67.5 46.5q-8 4 -12 7t-4 7q0 5 6 17q11 28 24 62l10 28l12 -1q-7 -21 -11.5 -37z" />
    <glyph glyph-name="Scaron" unicode="&#x160;" horiz-adv-x="485" 
d="M157 435q19 -29 46.5 -48.5t76.5 -48.5q52 -31 80.5 -51.5t49 -52.5t20.5 -77q0 -47 -23 -85.5t-68.5 -61t-111.5 -22.5q-35 0 -66.5 7.5t-69.5 26.5q-5 3 -6.5 7t-2.5 12l-15 130v1q0 4 5 4.5t6 -3.5q10 -69 53 -120t118 -51q53 0 89.5 29t36.5 91q0 45 -20 77.5
t-48.5 54t-77.5 50.5q-48 28 -75.5 49t-47 52.5t-19.5 75.5q0 50 25.5 85t66.5 52.5t88 17.5q55 0 114 -24q15 -6 15 -17l9 -106q0 -4 -5.5 -4t-6.5 4q-4 52 -39 93t-100 41q-60 0 -88 -35t-28 -84q0 -40 19 -69zM136 780h-1q0 2 2.5 4.5t4.5 1.5l109 -62l108 62h1q3 0 5 -3
t-1 -4l-102 -92q-4 -4 -11 -4q-8 0 -12 4l-103 92v1z" />
    <glyph glyph-name="scaron" unicode="&#x161;" horiz-adv-x="338" 
d="M119 264.5q23 -20.5 70 -43.5q34 -17 54 -30t34 -33.5t14 -49.5q0 -50 -37.5 -84.5t-102.5 -34.5q-53 0 -94 31q-6 4 -6 12l-2 72q0 3 5.5 3.5t6.5 -2.5q19 -50 48.5 -73.5t70.5 -23.5q34 0 52 15t18 44t-12.5 48.5t-31 31.5t-50.5 27q-33 16 -52.5 28.5t-33 33.5
t-13.5 52q0 53 40 82t94 29q37 0 71 -15q6 -3 7.5 -5t1.5 -6q0 -19 -1 -30l-1 -39q0 -2 -6 -2t-6 2q0 32 -33 53.5t-70 21.5q-27 0 -42.5 -14.5t-15.5 -42.5q0 -37 23 -57.5zM96.5 730q5.5 1 6.5 -1l69 -179l68 179q1 2 6 1t4 -4l-67 -249q-2 -5 -11 -5t-12 5l-68 249
q-1 3 4.5 4z" />
    <glyph glyph-name="uni0162" unicode="&#x162;" horiz-adv-x="632" 
d="M88 578q-29 -30 -39 -107q0 -2 -6 -2t-6 2q4 27 9 86.5t5 89.5q0 5 6 5t6 -5q0 -22 53 -22q86 -3 201 -3q59 0 125 2l68 1q36 0 53 5t22 20q1 4 6 4t5 -4q-3 -28 -6 -85.5t-3 -93.5q0 -2 -6 -2t-6 2q0 53 -11 82t-37 42t-73 13q-52 0 -73 -3.5t-28.5 -16.5t-7.5 -46v-461
q0 -31 7 -45t28 -19t66 -5q2 0 2 -6t-2 -6q-33 0 -52 1l-77 1l-73 -1q-20 -1 -55 -1q-2 0 -2 6t2 6q45 0 66 5t28.5 19.5t7.5 44.5v463q0 33 -8 45.5t-28.5 15.5t-74.5 3q-63 0 -92 -30zM312 -27q-6 -20 -6 -31q0 -14 9 -23t33 -23q25 -14 39.5 -32t14.5 -45
q0 -36 -25.5 -65t-73.5 -29q-26 0 -44 9.5t-18 26.5q0 12 8 19.5t20 7.5q10 0 15.5 -5t10.5 -15q8 -12 15 -18t22 -6q37 0 37 41q0 26 -18.5 46.5t-67.5 46.5q-8 4 -12 7t-4 7q0 5 6 17l28 73q1 3 13 37l12 -1q-8 -25 -14 -45z" />
    <glyph glyph-name="uni0163" unicode="&#x163;" horiz-adv-x="339" 
d="M122 6.5q-26 18.5 -26 61.5v238q0 27 -3.5 37.5t-13.5 14t-35 3.5q-3 0 -3 6t3 6q38 0 61.5 21t23.5 53q0 3 8 3q7 0 7 -3v-345q0 -83 81 -83q46 0 81 27l2 1q3 0 5 -4.5t-1 -6.5q-37 -26 -65 -37t-58 -11q-41 0 -67 18.5zM211.5 350q-34.5 3 -79.5 3v21q61 0 153 10
q3 0 5 -6.5t2 -16.5q0 -8 -3 -16t-7 -7q-36 9 -70.5 12zM178.5 -39q-4.5 -16 -4.5 -24q0 -11 6.5 -17t19 -13t19.5 -11q25 -14 39.5 -32t14.5 -45q0 -36 -25.5 -65t-73.5 -29q-26 0 -44 9.5t-18 26.5q0 12 8 19.5t20 7.5q10 0 15.5 -5t10.5 -15q8 -12 15 -18t22 -6
q37 0 37 41q0 26 -18.5 46.5t-67.5 46.5q-8 4 -12 7t-4 7q0 5 6 17q11 28 24 62l10 28l12 -1q-7 -21 -11.5 -37z" />
    <glyph glyph-name="Tcaron" unicode="&#x164;" horiz-adv-x="632" 
d="M88 578q-29 -30 -39 -107q0 -2 -6 -2t-6 2q4 27 9 86.5t5 89.5q0 5 6 5t6 -5q0 -22 53 -22q86 -3 201 -3q59 0 125 2l68 1q36 0 53 5t22 20q1 4 6 4t5 -4q-3 -28 -6 -85.5t-3 -93.5q0 -2 -6 -2t-6 2q0 53 -11 82t-37 42t-73 13q-52 0 -73 -3.5t-28.5 -16.5t-7.5 -46v-461
q0 -31 7 -45t28 -19t66 -5q2 0 2 -6t-2 -6q-33 0 -52 1l-77 1l-73 -1q-20 -1 -55 -1q-2 0 -2 6t2 6q45 0 66 5t28.5 19.5t7.5 44.5v463q0 33 -8 45.5t-28.5 15.5t-74.5 3q-63 0 -92 -30zM200 780v0q0 2 2.5 4.5t4.5 1.5l109 -62l108 62h1q3 0 5 -3t-1 -4l-102 -92
q-4 -4 -11 -4q-8 0 -12 4l-103 92z" />
    <glyph glyph-name="tcaron" unicode="&#x165;" horiz-adv-x="339" 
d="M122 6.5q-26 18.5 -26 61.5v238q0 27 -3.5 37.5t-13.5 14t-35 3.5q-3 0 -3 6t3 6q38 0 61.5 21t23.5 53q0 3 8 3q7 0 7 -3v-345q0 -83 81 -83q46 0 81 27l2 1q3 0 5 -4.5t-1 -6.5q-37 -26 -65 -37t-58 -11q-41 0 -67 18.5zM211.5 350q-34.5 3 -79.5 3v21q61 0 153 10
q3 0 5 -6.5t2 -16.5q0 -8 -3 -16t-7 -7q-36 9 -70.5 12zM203 708.5q11 -5.5 22 -14.5t11 -13l-25 -245q0 -2 -5.5 -1.5t-5.5 2.5l-8 272q0 5 11 -0.5z" />
    <glyph glyph-name="Tbar" unicode="&#x166;" horiz-adv-x="632" 
d="M186.5 316q-1.5 3 -1.5 7q0 3 1.5 6t2.5 3h258q2 0 3.5 -3t1.5 -6q0 -4 -1.5 -7t-3.5 -3h-258q-1 0 -2.5 3zM88 578q-29 -30 -39 -107q0 -2 -6 -2t-6 2q4 27 9 86.5t5 89.5q0 5 6 5t6 -5q0 -22 53 -22q86 -3 201 -3q59 0 125 2l68 1q36 0 53 5t22 20q1 4 6 4t5 -4
q-3 -28 -6 -85.5t-3 -93.5q0 -2 -6 -2t-6 2q0 53 -11 82t-37 42t-73 13q-52 0 -73 -3.5t-28.5 -16.5t-7.5 -46v-461q0 -31 7 -45t28 -19t66 -5q2 0 2 -6t-2 -6q-33 0 -52 1l-77 1l-73 -1q-20 -1 -55 -1q-2 0 -2 6t2 6q45 0 66 5t28.5 19.5t7.5 44.5v463q0 33 -8 45.5
t-28.5 15.5t-74.5 3q-63 0 -92 -30z" />
    <glyph glyph-name="tbar" unicode="&#x167;" horiz-adv-x="339" 
d="M48.5 211q-1.5 3 -1.5 7q0 3 1.5 6t2.5 3h229q4 0 4 -9q0 -10 -4 -10h-229q-1 0 -2.5 3zM122 6.5q-26 18.5 -26 61.5v238q0 27 -3.5 37.5t-13.5 14t-35 3.5q-3 0 -3 6t3 6q38 0 61.5 21t23.5 53q0 3 8 3q7 0 7 -3v-345q0 -83 81 -83q46 0 81 27l2 1q3 0 5 -4.5t-1 -6.5
q-37 -26 -65 -37t-58 -11q-41 0 -67 18.5zM211.5 350q-34.5 3 -79.5 3v21q61 0 153 10q3 0 5 -6.5t2 -16.5q0 -8 -3 -16t-7 -7q-36 9 -70.5 12z" />
    <glyph glyph-name="Utilde" unicode="&#x168;" horiz-adv-x="697" 
d="M551.5 590.5q-20.5 22.5 -64.5 22.5q-3 0 -3 6t3 6l42 -1q34 -2 55 -2q18 0 48 2l41 1q2 0 2 -6t-2 -6q-41 0 -60 -22.5t-19 -70.5v-286q0 -117 -63 -182t-170 -65q-74 0 -129 29.5t-85 83.5t-30 125v319q0 30 -6.5 44t-25 19.5t-57.5 5.5q-2 0 -2 6t2 6l48 -1
q42 -2 67 -2q27 0 69 2l46 1q3 0 3 -6t-3 -6q-39 0 -57 -6t-24.5 -20.5t-6.5 -44.5v-282q0 -117 55 -180.5t154 -63.5q91 0 142 57.5t51 159.5v287q0 48 -20.5 70.5zM478.5 759q10.5 7 21.5 20h1q3 0 5.5 -2.5t0.5 -4.5q-26 -34 -43 -46t-35 -12q-15 0 -31 3.5t-32 8.5
t-34 9t-35 4q-16 0 -24.5 -5.5t-15 -12l-9.5 -9.5h-2q-3 0 -5 2.5t0 4.5q16 22 38.5 39.5t45.5 17.5q14 0 31.5 -4.5t20.5 -5.5q44 -14 74 -14q17 0 27.5 7z" />
    <glyph glyph-name="utilde" unicode="&#x169;" horiz-adv-x="490" 
d="M103.5 24q-27.5 31 -27.5 91v155q0 41 -6.5 58.5t-22.5 17.5q-15 0 -36 -10h-2q-4 0 -5.5 5t2.5 6l105 47l4 1q2 0 5 -2t3 -5v-243q0 -60 21 -89t63 -29q41 0 82 24.5t72 67.5l5 -11q-47 -61 -92.5 -88t-93.5 -27q-49 0 -76.5 31zM397.5 55.5q8.5 -15.5 28.5 -15.5
q10 0 24.5 4.5t31.5 10.5h2q4 0 5.5 -4.5t-2.5 -6.5l-112 -52l-4 -1q-9 0 -18.5 22.5t-9.5 57.5v199q0 41 -6.5 58.5t-23.5 17.5q-15 0 -36 -10h-2q-4 0 -5 5t3 6l105 47l3 1q3 0 5.5 -2t2.5 -5v-283q0 -34 8.5 -49.5zM337.5 529q10.5 7 21.5 20h1q3 0 5.5 -2.5t0.5 -4.5
q-26 -34 -43 -46t-35 -12q-15 0 -31 3.5t-32 8.5t-34 9t-35 4q-16 0 -24.5 -5.5t-15 -12l-9.5 -9.5h-2q-3 0 -5 2.5t0 4.5q16 22 38.5 39.5t45.5 17.5q14 0 31.5 -4.5t20.5 -5.5q44 -14 74 -14q17 0 27.5 7z" />
    <glyph glyph-name="Umacron" unicode="&#x16a;" horiz-adv-x="697" 
d="M551.5 590.5q-20.5 22.5 -64.5 22.5q-3 0 -3 6t3 6l42 -1q34 -2 55 -2q18 0 48 2l41 1q2 0 2 -6t-2 -6q-41 0 -60 -22.5t-19 -70.5v-286q0 -117 -63 -182t-170 -65q-74 0 -129 29.5t-85 83.5t-30 125v319q0 30 -6.5 44t-25 19.5t-57.5 5.5q-2 0 -2 6t2 6l48 -1
q42 -2 67 -2q27 0 69 2l46 1q3 0 3 -6t-3 -6q-39 0 -57 -6t-24.5 -20.5t-6.5 -44.5v-282q0 -117 55 -180.5t154 -63.5q91 0 142 57.5t51 159.5v287q0 48 -20.5 70.5zM244.5 728q-1.5 4 -1.5 9q0 13 5 13h251q5 0 5 -13t-5 -13h-251q-2 0 -3.5 4z" />
    <glyph glyph-name="umacron" unicode="&#x16b;" horiz-adv-x="490" 
d="M103.5 24q-27.5 31 -27.5 91v155q0 41 -6.5 58.5t-22.5 17.5q-15 0 -36 -10h-2q-4 0 -5.5 5t2.5 6l105 47l4 1q2 0 5 -2t3 -5v-243q0 -60 21 -89t63 -29q41 0 82 24.5t72 67.5l5 -11q-47 -61 -92.5 -88t-93.5 -27q-49 0 -76.5 31zM397.5 55.5q8.5 -15.5 28.5 -15.5
q10 0 24.5 4.5t31.5 10.5h2q4 0 5.5 -4.5t-2.5 -6.5l-112 -52l-4 -1q-9 0 -18.5 22.5t-9.5 57.5v199q0 41 -6.5 58.5t-23.5 17.5q-15 0 -36 -10h-2q-4 0 -5 5t3 6l105 47l3 1q3 0 5.5 -2t2.5 -5v-283q0 -34 8.5 -49.5zM103.5 489q-1.5 4 -1.5 9q0 13 5 13h251q5 0 5 -13
t-5 -13h-251q-2 0 -3.5 4z" />
    <glyph glyph-name="Ubreve" unicode="&#x16c;" horiz-adv-x="697" 
d="M551.5 590.5q-20.5 22.5 -64.5 22.5q-3 0 -3 6t3 6l42 -1q34 -2 55 -2q18 0 48 2l41 1q2 0 2 -6t-2 -6q-41 0 -60 -22.5t-19 -70.5v-286q0 -117 -63 -182t-170 -65q-74 0 -129 29.5t-85 83.5t-30 125v319q0 30 -6.5 44t-25 19.5t-57.5 5.5q-2 0 -2 6t2 6l48 -1
q42 -2 67 -2q27 0 69 2l46 1q3 0 3 -6t-3 -6q-39 0 -57 -6t-24.5 -20.5t-6.5 -44.5v-282q0 -117 55 -180.5t154 -63.5q91 0 142 57.5t51 159.5v287q0 48 -20.5 70.5zM306.5 716.5q-26.5 26.5 -35.5 75.5q-1 4 4 4.5t7 -1.5q8 -30 35 -50.5t57 -20.5t56.5 21t34.5 50q0 2 4 2
q3 0 5.5 -1.5t1.5 -3.5q-9 -49 -35 -75.5t-67 -26.5t-67.5 26.5z" />
    <glyph glyph-name="ubreve" unicode="&#x16d;" horiz-adv-x="490" 
d="M103.5 24q-27.5 31 -27.5 91v155q0 41 -6.5 58.5t-22.5 17.5q-15 0 -36 -10h-2q-4 0 -5.5 5t2.5 6l105 47l4 1q2 0 5 -2t3 -5v-243q0 -60 21 -89t63 -29q41 0 82 24.5t72 67.5l5 -11q-47 -61 -92.5 -88t-93.5 -27q-49 0 -76.5 31zM397.5 55.5q8.5 -15.5 28.5 -15.5
q10 0 24.5 4.5t31.5 10.5h2q4 0 5.5 -4.5t-2.5 -6.5l-112 -52l-4 -1q-9 0 -18.5 22.5t-9.5 57.5v199q0 41 -6.5 58.5t-23.5 17.5q-15 0 -36 -10h-2q-4 0 -5 5t3 6l105 47l3 1q3 0 5.5 -2t2.5 -5v-283q0 -34 8.5 -49.5zM135.5 628q5.5 1 5.5 -2q0 -47 26 -78t66 -31
q38 0 64.5 31.5t26.5 77.5q0 2 3 2t5.5 -1.5t2.5 -3.5q0 -73 -26 -110.5t-76 -37.5t-76.5 37.5t-26.5 110.5q0 4 5.5 5z" />
    <glyph glyph-name="Uring" unicode="&#x16e;" horiz-adv-x="697" 
d="M551.5 590.5q-20.5 22.5 -64.5 22.5q-3 0 -3 6t3 6l42 -1q34 -2 55 -2q18 0 48 2l41 1q2 0 2 -6t-2 -6q-41 0 -60 -22.5t-19 -70.5v-286q0 -117 -63 -182t-170 -65q-74 0 -129 29.5t-85 83.5t-30 125v319q0 30 -6.5 44t-25 19.5t-57.5 5.5q-2 0 -2 6t2 6l48 -1
q42 -2 67 -2q27 0 69 2l46 1q3 0 3 -6t-3 -6q-39 0 -57 -6t-24.5 -20.5t-6.5 -44.5v-282q0 -117 55 -180.5t154 -63.5q91 0 142 57.5t51 159.5v287q0 48 -20.5 70.5zM305 730.5q-23 23.5 -23 55.5q0 36 29 57t64 21q34 0 58.5 -23.5t24.5 -56.5q0 -35 -28.5 -56t-64.5 -21
q-37 0 -60 23.5zM410 728q9 12 9 38q0 36 -18.5 62t-45.5 26q-19 0 -27 -11.5t-8 -36.5q0 -34 16.5 -62t44.5 -28q20 0 29 12z" />
    <glyph glyph-name="uring" unicode="&#x16f;" horiz-adv-x="490" 
d="M103.5 24q-27.5 31 -27.5 91v155q0 41 -6.5 58.5t-22.5 17.5q-15 0 -36 -10h-2q-4 0 -5.5 5t2.5 6l105 47l4 1q2 0 5 -2t3 -5v-243q0 -60 21 -89t63 -29q41 0 82 24.5t72 67.5l5 -11q-47 -61 -92.5 -88t-93.5 -27q-49 0 -76.5 31zM397.5 55.5q8.5 -15.5 28.5 -15.5
q10 0 24.5 4.5t31.5 10.5h2q4 0 5.5 -4.5t-2.5 -6.5l-112 -52l-4 -1q-9 0 -18.5 22.5t-9.5 57.5v199q0 41 -6.5 58.5t-23.5 17.5q-15 0 -36 -10h-2q-4 0 -5 5t3 6l105 47l3 1q3 0 5.5 -2t2.5 -5v-283q0 -34 8.5 -49.5zM164 491.5q-23 23.5 -23 55.5q0 36 29 57t64 21
q34 0 58.5 -23.5t24.5 -56.5q0 -35 -28.5 -56t-64.5 -21q-37 0 -60 23.5zM269 489q9 12 9 38q0 36 -18.5 62t-45.5 26q-19 0 -27 -11.5t-8 -36.5q0 -34 16.5 -62t44.5 -28q20 0 29 12z" />
    <glyph glyph-name="Uhungarumlaut" unicode="&#x170;" horiz-adv-x="697" 
d="M551.5 590.5q-20.5 22.5 -64.5 22.5q-3 0 -3 6t3 6l42 -1q34 -2 55 -2q18 0 48 2l41 1q2 0 2 -6t-2 -6q-41 0 -60 -22.5t-19 -70.5v-286q0 -117 -63 -182t-170 -65q-74 0 -129 29.5t-85 83.5t-30 125v319q0 30 -6.5 44t-25 19.5t-57.5 5.5q-2 0 -2 6t2 6l48 -1
q42 -2 67 -2q27 0 69 2l46 1q3 0 3 -6t-3 -6q-39 0 -57 -6t-24.5 -20.5t-6.5 -44.5v-282q0 -117 55 -180.5t154 -63.5q91 0 142 57.5t51 159.5v287q0 48 -20.5 70.5zM269 678q-3 0 -4 4.5t1 6.5q41 37 90 87q3 3 20.5 -1t31 -10t6.5 -9q-67 -28 -143 -77zM386 678
q-3 0 -4 4.5t1 6.5q41 37 90 87q3 3 19.5 -1t29 -10t6.5 -9q-37 -15 -68.5 -33t-71.5 -44z" />
    <glyph glyph-name="uhungarumlaut" unicode="&#x171;" horiz-adv-x="490" 
d="M103.5 24q-27.5 31 -27.5 91v155q0 41 -6.5 58.5t-22.5 17.5q-15 0 -36 -10h-2q-4 0 -5.5 5t2.5 6l105 47l4 1q2 0 5 -2t3 -5v-243q0 -60 21 -89t63 -29q41 0 82 24.5t72 67.5l5 -11q-47 -61 -92.5 -88t-93.5 -27q-49 0 -76.5 31zM397.5 55.5q8.5 -15.5 28.5 -15.5
q10 0 24.5 4.5t31.5 10.5h2q4 0 5.5 -4.5t-2.5 -6.5l-112 -52l-4 -1q-9 0 -18.5 22.5t-9.5 57.5v199q0 41 -6.5 58.5t-23.5 17.5q-15 0 -36 -10h-2q-4 0 -5 5t3 6l105 47l3 1q3 0 5.5 -2t2.5 -5v-283q0 -34 8.5 -49.5zM171 472q-3 0 -5.5 1.5t-1.5 2.5l57 240q1 4 14.5 8.5
t26 6t10.5 -3.5l-97 -253q0 -2 -4 -2zM300 472q-3 0 -5.5 1.5t-1.5 2.5l57 240q1 4 14.5 8.5t26 6t10.5 -3.5l-97 -253q0 -2 -4 -2z" />
    <glyph glyph-name="Uogonek" unicode="&#x172;" horiz-adv-x="697" 
d="M551.5 590.5q-20.5 22.5 -64.5 22.5q-3 0 -3 6t3 6l42 -1q34 -2 55 -2q18 0 48 2l41 1q2 0 2 -6t-2 -6q-41 0 -60 -22.5t-19 -70.5v-286q0 -117 -63 -182t-170 -65q-74 0 -129 29.5t-85 83.5t-30 125v319q0 30 -6.5 44t-25 19.5t-57.5 5.5q-2 0 -2 6t2 6l48 -1
q42 -2 67 -2q27 0 69 2l46 1q3 0 3 -6t-3 -6q-39 0 -57 -6t-24.5 -20.5t-6.5 -44.5v-282q0 -117 55 -180.5t154 -63.5q91 0 142 57.5t51 159.5v287q0 48 -20.5 70.5zM372.5 -73q-19.5 -36 -19.5 -77q0 -46 23.5 -72t68.5 -26q24 0 39.5 6.5t31.5 19.5h2q3 0 5.5 -3t-0.5 -5
q-51 -45 -107 -45q-54 0 -82.5 25.5t-28.5 70.5q0 90 119 185l11 -5q-43 -38 -62.5 -74z" />
    <glyph glyph-name="uogonek" unicode="&#x173;" horiz-adv-x="490" 
d="M103.5 24q-27.5 31 -27.5 91v155q0 41 -6.5 58.5t-22.5 17.5q-15 0 -36 -10h-2q-4 0 -5.5 5t2.5 6l105 47l4 1q2 0 5 -2t3 -5v-243q0 -60 21 -89t63 -29q41 0 82 24.5t72 67.5l5 -11q-47 -61 -92.5 -88t-93.5 -27q-49 0 -76.5 31zM397.5 55.5q8.5 -15.5 28.5 -15.5
q10 0 24.5 4.5t31.5 10.5h2q4 0 5.5 -4.5t-2.5 -6.5l-112 -52l-4 -1q-9 0 -18.5 22.5t-9.5 57.5v199q0 41 -6.5 58.5t-23.5 17.5q-15 0 -36 -10h-2q-4 0 -5 5t3 6l105 47l3 1q3 0 5.5 -2t2.5 -5v-283q0 -34 8.5 -49.5zM346 -46q-45 -48 -45 -104q0 -46 23.5 -72t68.5 -26
q24 0 39.5 6.5t31.5 19.5h2q3 0 5.5 -3t-0.5 -5q-51 -45 -107 -45q-54 0 -82.5 25.5t-28.5 70.5q0 66 62 129.5t167 107.5l5 -10q-96 -46 -141 -94z" />
    <glyph glyph-name="Wcircumflex" unicode="&#x174;" horiz-adv-x="936" 
d="M343 -3q-8 0 -11 4l-247 541q-17 39 -36.5 55t-50.5 16q-3 0 -3 6t3 6l43 -1q28 -2 42 -2q29 0 69 2l43 1q3 0 3 -6t-3 -6q-31 0 -47 -7t-16 -25q0 -10 8 -29l230 -496l-34 -43l135 332l14 -20l-131 -324q-1 -4 -11 -4zM942 619q0 -6 -3 -6q-34 0 -56.5 -14.5
t-39.5 -54.5l-220 -543q-1 -4 -11 -4q-8 0 -11 4l-247 541q-17 39 -36.5 55t-50.5 16q-3 0 -3 6t3 6l43 -1q28 -2 42 -2q21 0 49 2l28 1q3 0 3 -6t-3 -6q-20 0 -28 -3t-8 -12t16 -46l230 -496l-34 -43l218 537q7 15 7 29q0 18 -18.5 26t-61.5 8q-3 0 -3 6t3 6l40 -1
q34 -2 60 -2q21 0 47 2l42 1q3 0 3 -6zM567 585q0 15 -11.5 21.5t-36.5 6.5q-2 0 -2 6t2 6l28 -1q20 -2 38 -2q20 0 46 2l43 1q2 0 2 -6t-2 -6q-34 0 -57 -14.5t-39 -54.5l-89 -219l-14 20l83 205q9 21 9 35zM469 788q6 0 11 -5l102 -93q1 0 1 -2t-2.5 -4t-3.5 -1l-108 62
l-109 -62q-2 -1 -5 2.5t-1 4.5l103 93q5 5 12 5z" />
    <glyph glyph-name="wcircumflex" unicode="&#x175;" horiz-adv-x="667" 
d="M269 360.5q-13 13.5 -32 13.5q-2 0 -2 6t2 6l32 -1q10 -1 30 -1l63 1q14 1 38 1q3 0 3 -6t-3 -6q-61 0 -61 -24q0 -7 4 -15l130 -285l-23 -28l118 289q7 19 7 28q0 19 -19.5 27t-63.5 8q-2 0 -2 6t2 6q27 0 41 -1l60 -1l35 1q9 1 30 1q3 0 3 -6t-3 -6q-24 0 -40 -15
t-32 -54l-125 -304q-1 -4 -11 -4t-11 4l-137 302q-20 44 -33 57.5zM35.5 360.5q-12.5 13.5 -31.5 13.5q-3 0 -3 6t3 6q20 0 31 -1l30 -1l58 1q15 1 43 1q3 0 3 -6t-3 -6q-29 0 -44.5 -5.5t-15.5 -18.5q0 -7 4 -15l130 -285l-24 -28l109 263l14 -14l-112 -270q-1 -4 -11 -4
t-11 4l-137 302q-20 44 -32.5 57.5zM399.5 472.5q-5.5 -1.5 -6.5 1.5l-68 179l-69 -179q0 -2 -4 -2q-3 0 -5.5 1.5t-1.5 2.5l68 249q1 5 11 5q11 0 12 -5l67 -249q2 -2 -3.5 -3.5z" />
    </font>
</defs>
</svg>
